solid OpenSCAD_Model
  facet normal -1 0 0
    outer loop
      vertex 36 84.02 1.6
      vertex 36 85.42 8
      vertex 36 85.42 1.6
    endloop
  endfacet
  facet normal -1 -0 0
    outer loop
      vertex 36 85.42 8
      vertex 36 84.02 1.6
      vertex 36 84.02 8
    endloop
  endfacet
  facet normal -1 0 0
    outer loop
      vertex 36 -1.6 1.6
      vertex 36 -0.2 8
      vertex 36 -0.2 1.6
    endloop
  endfacet
  facet normal -1 -0 0
    outer loop
      vertex 36 -0.2 8
      vertex 36 -1.6 1.6
      vertex 36 -1.6 8
    endloop
  endfacet
  facet normal -0 0 1
    outer loop
      vertex 4 85.42 1.6
      vertex 36 84.02 1.6
      vertex 36 85.42 1.6
    endloop
  endfacet
  facet normal 0 0 1
    outer loop
      vertex 36 84.02 1.6
      vertex 4 85.42 1.6
      vertex 4 84.02 1.6
    endloop
  endfacet
  facet normal -0 0 1
    outer loop
      vertex 4 -0.2 1.6
      vertex 36 -1.6 1.6
      vertex 36 -0.2 1.6
    endloop
  endfacet
  facet normal 0 0 1
    outer loop
      vertex 36 -1.6 1.6
      vertex 4 -0.2 1.6
      vertex 4 -1.6 1.6
    endloop
  endfacet
  facet normal 1 -0 0
    outer loop
      vertex 4 84.02 8
      vertex 4 85.42 1.6
      vertex 4 85.42 8
    endloop
  endfacet
  facet normal 1 0 0
    outer loop
      vertex 4 85.42 1.6
      vertex 4 84.02 8
      vertex 4 84.02 1.6
    endloop
  endfacet
  facet normal 1 -0 0
    outer loop
      vertex 4 -1.6 8
      vertex 4 -0.2 1.6
      vertex 4 -0.2 8
    endloop
  endfacet
  facet normal 1 0 0
    outer loop
      vertex 4 -0.2 1.6
      vertex 4 -1.6 8
      vertex 4 -1.6 1.6
    endloop
  endfacet
  facet normal -0 0 1
    outer loop
      vertex 48.46 66 4
      vertex 49.86 19 4
      vertex 49.86 66 4
    endloop
  endfacet
  facet normal 0 0 1
    outer loop
      vertex 49.86 19 4
      vertex 48.46 66 4
      vertex 48.46 19 4
    endloop
  endfacet
  facet normal 0 1 -0
    outer loop
      vertex 49.86 19 4
      vertex 48.46 19 8
      vertex 49.86 19 8
    endloop
  endfacet
  facet normal 0 1 0
    outer loop
      vertex 48.46 19 8
      vertex 49.86 19 4
      vertex 48.46 19 4
    endloop
  endfacet
  facet normal -0 0 1
    outer loop
      vertex 48.46 81 1.6
      vertex 49.86 66 1.6
      vertex 49.86 81 1.6
    endloop
  endfacet
  facet normal 0 0 1
    outer loop
      vertex 49.86 66 1.6
      vertex 48.46 81 1.6
      vertex 48.46 66 1.6
    endloop
  endfacet
  facet normal 0 -1 0
    outer loop
      vertex 48.46 81 1.6
      vertex 49.86 81 8
      vertex 48.46 81 8
    endloop
  endfacet
  facet normal 0 -1 -0
    outer loop
      vertex 49.86 81 8
      vertex 48.46 81 1.6
      vertex 49.86 81 1.6
    endloop
  endfacet
  facet normal 0 1 -0
    outer loop
      vertex 49.86 66 1.6
      vertex 48.46 66 4
      vertex 49.86 66 4
    endloop
  endfacet
  facet normal 0 1 0
    outer loop
      vertex 48.46 66 4
      vertex 49.86 66 1.6
      vertex 48.46 66 1.6
    endloop
  endfacet
  facet normal 1 0 0
    outer loop
      vertex 49.86 19 8
      vertex 49.86 -1.6 8
      vertex 49.86 19 4
    endloop
  endfacet
  facet normal 1 0 0
    outer loop
      vertex 49.86 66 4
      vertex 49.86 19 4
      vertex 49.86 66 1.6
    endloop
  endfacet
  facet normal 1 0 0
    outer loop
      vertex 49.86 81 1.6
      vertex 49.86 85.42 8
      vertex 49.86 81 8
    endloop
  endfacet
  facet normal 1 0 0
    outer loop
      vertex 49.86 85.42 8
      vertex 49.86 81 1.6
      vertex 49.86 85.42 -3.6
    endloop
  endfacet
  facet normal 1 -0 0
    outer loop
      vertex 49.86 66 1.6
      vertex 49.86 85.42 -3.6
      vertex 49.86 81 1.6
    endloop
  endfacet
  facet normal 1 0 0
    outer loop
      vertex 49.86 -1.6 -3.6
      vertex 49.86 66 1.6
      vertex 49.86 19 4
    endloop
  endfacet
  facet normal 1 0 0
    outer loop
      vertex 49.86 66 1.6
      vertex 49.86 -1.6 -3.6
      vertex 49.86 85.42 -3.6
    endloop
  endfacet
  facet normal 1 0 0
    outer loop
      vertex 49.86 -1.6 -3.6
      vertex 49.86 19 4
      vertex 49.86 -1.6 8
    endloop
  endfacet
  facet normal 0 0 1
    outer loop
      vertex 4 85.42 8
      vertex -0.2 84.02 8
      vertex 4 84.02 8
    endloop
  endfacet
  facet normal 0 0 1
    outer loop
      vertex -0.2 84.02 8
      vertex -1.6 85.42 8
      vertex -0.2 -0.2 8
    endloop
  endfacet
  facet normal -0 0 1
    outer loop
      vertex -1.6 85.42 8
      vertex -0.2 84.02 8
      vertex 4 85.42 8
    endloop
  endfacet
  facet normal -0 0 1
    outer loop
      vertex -0.2 -0.2 8
      vertex 4 -1.6 8
      vertex 4 -0.2 8
    endloop
  endfacet
  facet normal 0 0 1
    outer loop
      vertex -0.2 -0.2 8
      vertex -1.6 -1.6 8
      vertex 4 -1.6 8
    endloop
  endfacet
  facet normal 0 0 1
    outer loop
      vertex -1.6 -1.6 8
      vertex -0.2 -0.2 8
      vertex -1.6 85.42 8
    endloop
  endfacet
  facet normal 0 0 1
    outer loop
      vertex 49.86 85.42 8
      vertex 48.46 84.02 8
      vertex 49.86 81 8
    endloop
  endfacet
  facet normal -0 0 1
    outer loop
      vertex 36 85.42 8
      vertex 48.46 84.02 8
      vertex 49.86 85.42 8
    endloop
  endfacet
  facet normal 0 0 1
    outer loop
      vertex 48.46 84.02 8
      vertex 36 85.42 8
      vertex 36 84.02 8
    endloop
  endfacet
  facet normal 0 0 1
    outer loop
      vertex 49.86 81 8
      vertex 48.46 84.02 8
      vertex 48.46 81 8
    endloop
  endfacet
  facet normal 0 0 1
    outer loop
      vertex 48.46 -0.2 8
      vertex 49.86 19 8
      vertex 48.46 19 8
    endloop
  endfacet
  facet normal 0 0 1
    outer loop
      vertex 49.86 19 8
      vertex 48.46 -0.2 8
      vertex 49.86 -1.6 8
    endloop
  endfacet
  facet normal 0 0 1
    outer loop
      vertex 36 -1.6 8
      vertex 48.46 -0.2 8
      vertex 36 -0.2 8
    endloop
  endfacet
  facet normal 0 0 1
    outer loop
      vertex 48.46 -0.2 8
      vertex 36 -1.6 8
      vertex 49.86 -1.6 8
    endloop
  endfacet
  facet normal 0 0 -1
    outer loop
      vertex -1.6 -1.6 -3.6
      vertex 49.86 85.42 -3.6
      vertex 49.86 -1.6 -3.6
    endloop
  endfacet
  facet normal -0 0 -1
    outer loop
      vertex 49.86 85.42 -3.6
      vertex -1.6 -1.6 -3.6
      vertex -1.6 85.42 -3.6
    endloop
  endfacet
  facet normal -1 0 0
    outer loop
      vertex -1.6 -1.6 -3.6
      vertex -1.6 85.42 8
      vertex -1.6 85.42 -3.6
    endloop
  endfacet
  facet normal -1 -0 0
    outer loop
      vertex -1.6 85.42 8
      vertex -1.6 -1.6 -3.6
      vertex -1.6 -1.6 8
    endloop
  endfacet
  facet normal 0 1 0
    outer loop
      vertex 49.86 85.42 8
      vertex 36 85.42 1.6
      vertex 36 85.42 8
    endloop
  endfacet
  facet normal 0 1 0
    outer loop
      vertex -1.6 85.42 -3.6
      vertex 36 85.42 1.6
      vertex 49.86 85.42 -3.6
    endloop
  endfacet
  facet normal 0 1 -0
    outer loop
      vertex 49.86 85.42 -3.6
      vertex 36 85.42 1.6
      vertex 49.86 85.42 8
    endloop
  endfacet
  facet normal 0 1 -0
    outer loop
      vertex 4 85.42 1.6
      vertex -1.6 85.42 8
      vertex 4 85.42 8
    endloop
  endfacet
  facet normal 0 1 0
    outer loop
      vertex 4 85.42 1.6
      vertex -1.6 85.42 -3.6
      vertex -1.6 85.42 8
    endloop
  endfacet
  facet normal 0 1 0
    outer loop
      vertex 36 85.42 1.6
      vertex -1.6 85.42 -3.6
      vertex 4 85.42 1.6
    endloop
  endfacet
  facet normal 0 -1 0
    outer loop
      vertex -1.6 -1.6 8
      vertex 4 -1.6 1.6
      vertex 4 -1.6 8
    endloop
  endfacet
  facet normal 0 -1 -0
    outer loop
      vertex 4 -1.6 1.6
      vertex -1.6 -1.6 -3.6
      vertex 36 -1.6 1.6
    endloop
  endfacet
  facet normal 0 -1 0
    outer loop
      vertex -1.6 -1.6 -3.6
      vertex 4 -1.6 1.6
      vertex -1.6 -1.6 8
    endloop
  endfacet
  facet normal 0 -1 0
    outer loop
      vertex 36 -1.6 1.6
      vertex 49.86 -1.6 8
      vertex 36 -1.6 8
    endloop
  endfacet
  facet normal 0 -1 0
    outer loop
      vertex 36 -1.6 1.6
      vertex 49.86 -1.6 -3.6
      vertex 49.86 -1.6 8
    endloop
  endfacet
  facet normal 0 -1 0
    outer loop
      vertex 49.86 -1.6 -3.6
      vertex 36 -1.6 1.6
      vertex -1.6 -1.6 -3.6
    endloop
  endfacet
  facet normal -1 0 0
    outer loop
      vertex 48.46 84.02 0
      vertex 48.46 81 1.6
      vertex 48.46 84.02 8
    endloop
  endfacet
  facet normal -1 0 0
    outer loop
      vertex 48.46 84.02 0
      vertex 48.46 66 1.6
      vertex 48.46 81 1.6
    endloop
  endfacet
  facet normal -1 0 0
    outer loop
      vertex 48.46 66 1.6
      vertex 48.46 19 4
      vertex 48.46 66 4
    endloop
  endfacet
  facet normal -1 0 0
    outer loop
      vertex 48.46 -0.2 0
      vertex 48.46 66 1.6
      vertex 48.46 84.02 0
    endloop
  endfacet
  facet normal -1 -0 0
    outer loop
      vertex 48.46 66 1.6
      vertex 48.46 -0.2 0
      vertex 48.46 19 4
    endloop
  endfacet
  facet normal -1 0 0
    outer loop
      vertex 48.46 -0.2 8
      vertex 48.46 19 4
      vertex 48.46 -0.2 0
    endloop
  endfacet
  facet normal -1 0 0
    outer loop
      vertex 48.46 19 4
      vertex 48.46 -0.2 8
      vertex 48.46 19 8
    endloop
  endfacet
  facet normal -1 -0 0
    outer loop
      vertex 48.46 84.02 8
      vertex 48.46 81 1.6
      vertex 48.46 81 8
    endloop
  endfacet
  facet normal 0 0 1
    outer loop
      vertex 48.46 84.02 0
      vertex 46.66 82.22 0
      vertex 48.46 -0.2 0
    endloop
  endfacet
  facet normal 0 0 1
    outer loop
      vertex 48.46 84.02 0
      vertex 1.6 82.22 0
      vertex 46.66 82.22 0
    endloop
  endfacet
  facet normal 0 0 1
    outer loop
      vertex 1.6 82.22 0
      vertex -0.2 84.02 0
      vertex 1.6 1.6 0
    endloop
  endfacet
  facet normal -0 0 1
    outer loop
      vertex -0.2 84.02 0
      vertex 1.6 82.22 0
      vertex 48.46 84.02 0
    endloop
  endfacet
  facet normal -0 0 1
    outer loop
      vertex 46.66 1.6 0
      vertex 48.46 -0.2 0
      vertex 46.66 82.22 0
    endloop
  endfacet
  facet normal -0 0 1
    outer loop
      vertex 1.6 1.6 0
      vertex 48.46 -0.2 0
      vertex 46.66 1.6 0
    endloop
  endfacet
  facet normal 0 0 1
    outer loop
      vertex 1.6 1.6 0
      vertex -0.2 -0.2 0
      vertex 48.46 -0.2 0
    endloop
  endfacet
  facet normal 0 0 1
    outer loop
      vertex -0.2 -0.2 0
      vertex 1.6 1.6 0
      vertex -0.2 84.02 0
    endloop
  endfacet
  facet normal 1 -0 0
    outer loop
      vertex -0.2 -0.2 8
      vertex -0.2 84.02 0
      vertex -0.2 84.02 8
    endloop
  endfacet
  facet normal 1 0 0
    outer loop
      vertex -0.2 84.02 0
      vertex -0.2 -0.2 8
      vertex -0.2 -0.2 0
    endloop
  endfacet
  facet normal 0 -1 0
    outer loop
      vertex -0.2 84.02 8
      vertex 4 84.02 1.6
      vertex 4 84.02 8
    endloop
  endfacet
  facet normal 0 -1 -0
    outer loop
      vertex 4 84.02 1.6
      vertex -0.2 84.02 0
      vertex 36 84.02 1.6
    endloop
  endfacet
  facet normal 0 -1 0
    outer loop
      vertex -0.2 84.02 0
      vertex 4 84.02 1.6
      vertex -0.2 84.02 8
    endloop
  endfacet
  facet normal 0 -1 0
    outer loop
      vertex 36 84.02 1.6
      vertex 48.46 84.02 8
      vertex 36 84.02 8
    endloop
  endfacet
  facet normal 0 -1 0
    outer loop
      vertex 36 84.02 1.6
      vertex 48.46 84.02 0
      vertex 48.46 84.02 8
    endloop
  endfacet
  facet normal 0 -1 0
    outer loop
      vertex 48.46 84.02 0
      vertex 36 84.02 1.6
      vertex -0.2 84.02 0
    endloop
  endfacet
  facet normal 0 1 0
    outer loop
      vertex 48.46 -0.2 8
      vertex 36 -0.2 1.6
      vertex 36 -0.2 8
    endloop
  endfacet
  facet normal 0 1 0
    outer loop
      vertex -0.2 -0.2 0
      vertex 36 -0.2 1.6
      vertex 48.46 -0.2 0
    endloop
  endfacet
  facet normal 0 1 -0
    outer loop
      vertex 48.46 -0.2 0
      vertex 36 -0.2 1.6
      vertex 48.46 -0.2 8
    endloop
  endfacet
  facet normal 0 1 -0
    outer loop
      vertex 4 -0.2 1.6
      vertex -0.2 -0.2 8
      vertex 4 -0.2 8
    endloop
  endfacet
  facet normal 0 1 0
    outer loop
      vertex 4 -0.2 1.6
      vertex -0.2 -0.2 0
      vertex -0.2 -0.2 8
    endloop
  endfacet
  facet normal 0 1 0
    outer loop
      vertex 36 -0.2 1.6
      vertex -0.2 -0.2 0
      vertex 4 -0.2 1.6
    endloop
  endfacet
  facet normal -1 0 0
    outer loop
      vertex 46.66 1.6 -2
      vertex 46.66 82.22 0
      vertex 46.66 82.22 -2
    endloop
  endfacet
  facet normal -1 -0 0
    outer loop
      vertex 46.66 82.22 0
      vertex 46.66 1.6 -2
      vertex 46.66 1.6 0
    endloop
  endfacet
  facet normal -0 0 1
    outer loop
      vertex 1.6 82.22 -2
      vertex 46.66 1.6 -2
      vertex 46.66 82.22 -2
    endloop
  endfacet
  facet normal 0 0 1
    outer loop
      vertex 46.66 1.6 -2
      vertex 1.6 82.22 -2
      vertex 1.6 1.6 -2
    endloop
  endfacet
  facet normal 1 -0 0
    outer loop
      vertex 1.6 1.6 0
      vertex 1.6 82.22 -2
      vertex 1.6 82.22 0
    endloop
  endfacet
  facet normal 1 0 0
    outer loop
      vertex 1.6 82.22 -2
      vertex 1.6 1.6 0
      vertex 1.6 1.6 -2
    endloop
  endfacet
  facet normal 0 -1 0
    outer loop
      vertex 1.6 82.22 -2
      vertex 46.66 82.22 0
      vertex 1.6 82.22 0
    endloop
  endfacet
  facet normal 0 -1 -0
    outer loop
      vertex 46.66 82.22 0
      vertex 1.6 82.22 -2
      vertex 46.66 82.22 -2
    endloop
  endfacet
  facet normal 0 1 -0
    outer loop
      vertex 46.66 1.6 -2
      vertex 1.6 1.6 0
      vertex 46.66 1.6 0
    endloop
  endfacet
  facet normal 0 1 0
    outer loop
      vertex 1.6 1.6 0
      vertex 46.66 1.6 -2
      vertex 1.6 1.6 -2
    endloop
  endfacet
endsolid OpenSCAD_Model
