G04 #@! TF.GenerationSoftware,KiCad,Pcbnew,5.1.4*
G04 #@! TF.CreationDate,2019-11-11T19:51:53+01:00*
G04 #@! TF.ProjectId,PluggyReloaded,506c7567-6779-4526-956c-6f616465642e,rev?*
G04 #@! TF.SameCoordinates,Original*
G04 #@! TF.FileFunction,Legend,Top*
G04 #@! TF.FilePolarity,Positive*
%FSLAX46Y46*%
G04 Gerber Fmt 4.6, Leading zero omitted, Abs format (unit mm)*
G04 Created by KiCad (PCBNEW 5.1.4) date 2019-11-11 19:51:53*
%MOMM*%
%LPD*%
G04 APERTURE LIST*
%ADD10C,0.150000*%
%ADD11C,0.120000*%
%ADD12C,0.127000*%
%ADD13C,0.400000*%
G04 APERTURE END LIST*
D10*
X209202976Y-125896666D02*
X209679166Y-125896666D01*
X209107738Y-126182380D02*
X209441071Y-125182380D01*
X209774404Y-126182380D01*
X210012500Y-125182380D02*
X210631547Y-125182380D01*
X210298214Y-125563333D01*
X210441071Y-125563333D01*
X210536309Y-125610952D01*
X210583928Y-125658571D01*
X210631547Y-125753809D01*
X210631547Y-125991904D01*
X210583928Y-126087142D01*
X210536309Y-126134761D01*
X210441071Y-126182380D01*
X210155357Y-126182380D01*
X210060119Y-126134761D01*
X210012500Y-126087142D01*
X209202976Y-128436666D02*
X209679166Y-128436666D01*
X209107738Y-128722380D02*
X209441071Y-127722380D01*
X209774404Y-128722380D01*
X210060119Y-127817619D02*
X210107738Y-127770000D01*
X210202976Y-127722380D01*
X210441071Y-127722380D01*
X210536309Y-127770000D01*
X210583928Y-127817619D01*
X210631547Y-127912857D01*
X210631547Y-128008095D01*
X210583928Y-128150952D01*
X210012500Y-128722380D01*
X210631547Y-128722380D01*
X209202976Y-130976666D02*
X209679166Y-130976666D01*
X209107738Y-131262380D02*
X209441071Y-130262380D01*
X209774404Y-131262380D01*
X210631547Y-131262380D02*
X210060119Y-131262380D01*
X210345833Y-131262380D02*
X210345833Y-130262380D01*
X210250595Y-130405238D01*
X210155357Y-130500476D01*
X210060119Y-130548095D01*
X209202976Y-133516666D02*
X209679166Y-133516666D01*
X209107738Y-133802380D02*
X209441071Y-132802380D01*
X209774404Y-133802380D01*
X210298214Y-132802380D02*
X210393452Y-132802380D01*
X210488690Y-132850000D01*
X210536309Y-132897619D01*
X210583928Y-132992857D01*
X210631547Y-133183333D01*
X210631547Y-133421428D01*
X210583928Y-133611904D01*
X210536309Y-133707142D01*
X210488690Y-133754761D01*
X210393452Y-133802380D01*
X210298214Y-133802380D01*
X210202976Y-133754761D01*
X210155357Y-133707142D01*
X210107738Y-133611904D01*
X210060119Y-133421428D01*
X210060119Y-133183333D01*
X210107738Y-132992857D01*
X210155357Y-132897619D01*
X210202976Y-132850000D01*
X210298214Y-132802380D01*
X209726785Y-135342380D02*
X209250595Y-135342380D01*
X209202976Y-135818571D01*
X209250595Y-135770952D01*
X209345833Y-135723333D01*
X209583928Y-135723333D01*
X209679166Y-135770952D01*
X209726785Y-135818571D01*
X209774404Y-135913809D01*
X209774404Y-136151904D01*
X209726785Y-136247142D01*
X209679166Y-136294761D01*
X209583928Y-136342380D01*
X209345833Y-136342380D01*
X209250595Y-136294761D01*
X209202976Y-136247142D01*
X210060119Y-135342380D02*
X210393452Y-136342380D01*
X210726785Y-135342380D01*
X209774404Y-137930000D02*
X209679166Y-137882380D01*
X209536309Y-137882380D01*
X209393452Y-137930000D01*
X209298214Y-138025238D01*
X209250595Y-138120476D01*
X209202976Y-138310952D01*
X209202976Y-138453809D01*
X209250595Y-138644285D01*
X209298214Y-138739523D01*
X209393452Y-138834761D01*
X209536309Y-138882380D01*
X209631547Y-138882380D01*
X209774404Y-138834761D01*
X209822023Y-138787142D01*
X209822023Y-138453809D01*
X209631547Y-138453809D01*
X210250595Y-138882380D02*
X210250595Y-137882380D01*
X210822023Y-138882380D01*
X210822023Y-137882380D01*
X211298214Y-138882380D02*
X211298214Y-137882380D01*
X211536309Y-137882380D01*
X211679166Y-137930000D01*
X211774404Y-138025238D01*
X211822023Y-138120476D01*
X211869642Y-138310952D01*
X211869642Y-138453809D01*
X211822023Y-138644285D01*
X211774404Y-138739523D01*
X211679166Y-138834761D01*
X211536309Y-138882380D01*
X211298214Y-138882380D01*
X167822619Y-103179761D02*
X168298809Y-102846428D01*
X167822619Y-102608333D02*
X168822619Y-102608333D01*
X168822619Y-102989285D01*
X168775000Y-103084523D01*
X168727380Y-103132142D01*
X168632142Y-103179761D01*
X168489285Y-103179761D01*
X168394047Y-103132142D01*
X168346428Y-103084523D01*
X168298809Y-102989285D01*
X168298809Y-102608333D01*
X167870238Y-103989285D02*
X167822619Y-103894047D01*
X167822619Y-103703571D01*
X167870238Y-103608333D01*
X167965476Y-103560714D01*
X168346428Y-103560714D01*
X168441666Y-103608333D01*
X168489285Y-103703571D01*
X168489285Y-103894047D01*
X168441666Y-103989285D01*
X168346428Y-104036904D01*
X168251190Y-104036904D01*
X168155952Y-103560714D01*
X168489285Y-104370238D02*
X167822619Y-104608333D01*
X168489285Y-104846428D01*
X167917857Y-105227380D02*
X167870238Y-105275000D01*
X167822619Y-105227380D01*
X167870238Y-105179761D01*
X167917857Y-105227380D01*
X167822619Y-105227380D01*
X167822619Y-106989285D02*
X167822619Y-106417857D01*
X167822619Y-106703571D02*
X168822619Y-106703571D01*
X168679761Y-106608333D01*
X168584523Y-106513095D01*
X168536904Y-106417857D01*
X168005238Y-76757142D02*
X170005238Y-76757142D01*
X170005238Y-77519047D01*
X169910000Y-77709523D01*
X169814761Y-77804761D01*
X169624285Y-77900000D01*
X169338571Y-77900000D01*
X169148095Y-77804761D01*
X169052857Y-77709523D01*
X168957619Y-77519047D01*
X168957619Y-76757142D01*
X168005238Y-79042857D02*
X168100476Y-78852380D01*
X168290952Y-78757142D01*
X170005238Y-78757142D01*
X169338571Y-80661904D02*
X168005238Y-80661904D01*
X169338571Y-79804761D02*
X168290952Y-79804761D01*
X168100476Y-79900000D01*
X168005238Y-80090476D01*
X168005238Y-80376190D01*
X168100476Y-80566666D01*
X168195714Y-80661904D01*
X169338571Y-82471428D02*
X167719523Y-82471428D01*
X167529047Y-82376190D01*
X167433809Y-82280952D01*
X167338571Y-82090476D01*
X167338571Y-81804761D01*
X167433809Y-81614285D01*
X168100476Y-82471428D02*
X168005238Y-82280952D01*
X168005238Y-81900000D01*
X168100476Y-81709523D01*
X168195714Y-81614285D01*
X168386190Y-81519047D01*
X168957619Y-81519047D01*
X169148095Y-81614285D01*
X169243333Y-81709523D01*
X169338571Y-81900000D01*
X169338571Y-82280952D01*
X169243333Y-82471428D01*
X169338571Y-84280952D02*
X167719523Y-84280952D01*
X167529047Y-84185714D01*
X167433809Y-84090476D01*
X167338571Y-83900000D01*
X167338571Y-83614285D01*
X167433809Y-83423809D01*
X168100476Y-84280952D02*
X168005238Y-84090476D01*
X168005238Y-83709523D01*
X168100476Y-83519047D01*
X168195714Y-83423809D01*
X168386190Y-83328571D01*
X168957619Y-83328571D01*
X169148095Y-83423809D01*
X169243333Y-83519047D01*
X169338571Y-83709523D01*
X169338571Y-84090476D01*
X169243333Y-84280952D01*
X169338571Y-85042857D02*
X168005238Y-85519047D01*
X169338571Y-85995238D02*
X168005238Y-85519047D01*
X167529047Y-85328571D01*
X167433809Y-85233333D01*
X167338571Y-85042857D01*
X168005238Y-89423809D02*
X168957619Y-88757142D01*
X168005238Y-88280952D02*
X170005238Y-88280952D01*
X170005238Y-89042857D01*
X169910000Y-89233333D01*
X169814761Y-89328571D01*
X169624285Y-89423809D01*
X169338571Y-89423809D01*
X169148095Y-89328571D01*
X169052857Y-89233333D01*
X168957619Y-89042857D01*
X168957619Y-88280952D01*
X168100476Y-91042857D02*
X168005238Y-90852380D01*
X168005238Y-90471428D01*
X168100476Y-90280952D01*
X168290952Y-90185714D01*
X169052857Y-90185714D01*
X169243333Y-90280952D01*
X169338571Y-90471428D01*
X169338571Y-90852380D01*
X169243333Y-91042857D01*
X169052857Y-91138095D01*
X168862380Y-91138095D01*
X168671904Y-90185714D01*
X168005238Y-92280952D02*
X168100476Y-92090476D01*
X168290952Y-91995238D01*
X170005238Y-91995238D01*
X168005238Y-93328571D02*
X168100476Y-93138095D01*
X168195714Y-93042857D01*
X168386190Y-92947619D01*
X168957619Y-92947619D01*
X169148095Y-93042857D01*
X169243333Y-93138095D01*
X169338571Y-93328571D01*
X169338571Y-93614285D01*
X169243333Y-93804761D01*
X169148095Y-93900000D01*
X168957619Y-93995238D01*
X168386190Y-93995238D01*
X168195714Y-93900000D01*
X168100476Y-93804761D01*
X168005238Y-93614285D01*
X168005238Y-93328571D01*
X168005238Y-95709523D02*
X169052857Y-95709523D01*
X169243333Y-95614285D01*
X169338571Y-95423809D01*
X169338571Y-95042857D01*
X169243333Y-94852380D01*
X168100476Y-95709523D02*
X168005238Y-95519047D01*
X168005238Y-95042857D01*
X168100476Y-94852380D01*
X168290952Y-94757142D01*
X168481428Y-94757142D01*
X168671904Y-94852380D01*
X168767142Y-95042857D01*
X168767142Y-95519047D01*
X168862380Y-95709523D01*
X168005238Y-97519047D02*
X170005238Y-97519047D01*
X168100476Y-97519047D02*
X168005238Y-97328571D01*
X168005238Y-96947619D01*
X168100476Y-96757142D01*
X168195714Y-96661904D01*
X168386190Y-96566666D01*
X168957619Y-96566666D01*
X169148095Y-96661904D01*
X169243333Y-96757142D01*
X169338571Y-96947619D01*
X169338571Y-97328571D01*
X169243333Y-97519047D01*
X168100476Y-99233333D02*
X168005238Y-99042857D01*
X168005238Y-98661904D01*
X168100476Y-98471428D01*
X168290952Y-98376190D01*
X169052857Y-98376190D01*
X169243333Y-98471428D01*
X169338571Y-98661904D01*
X169338571Y-99042857D01*
X169243333Y-99233333D01*
X169052857Y-99328571D01*
X168862380Y-99328571D01*
X168671904Y-98376190D01*
X168005238Y-101042857D02*
X170005238Y-101042857D01*
X168100476Y-101042857D02*
X168005238Y-100852380D01*
X168005238Y-100471428D01*
X168100476Y-100280952D01*
X168195714Y-100185714D01*
X168386190Y-100090476D01*
X168957619Y-100090476D01*
X169148095Y-100185714D01*
X169243333Y-100280952D01*
X169338571Y-100471428D01*
X169338571Y-100852380D01*
X169243333Y-101042857D01*
X172116904Y-106497380D02*
X171783571Y-106021190D01*
X171545476Y-106497380D02*
X171545476Y-105497380D01*
X171926428Y-105497380D01*
X172021666Y-105545000D01*
X172069285Y-105592619D01*
X172116904Y-105687857D01*
X172116904Y-105830714D01*
X172069285Y-105925952D01*
X172021666Y-105973571D01*
X171926428Y-106021190D01*
X171545476Y-106021190D01*
X172926428Y-106449761D02*
X172831190Y-106497380D01*
X172640714Y-106497380D01*
X172545476Y-106449761D01*
X172497857Y-106354523D01*
X172497857Y-105973571D01*
X172545476Y-105878333D01*
X172640714Y-105830714D01*
X172831190Y-105830714D01*
X172926428Y-105878333D01*
X172974047Y-105973571D01*
X172974047Y-106068809D01*
X172497857Y-106164047D01*
X173355000Y-106449761D02*
X173450238Y-106497380D01*
X173640714Y-106497380D01*
X173735952Y-106449761D01*
X173783571Y-106354523D01*
X173783571Y-106306904D01*
X173735952Y-106211666D01*
X173640714Y-106164047D01*
X173497857Y-106164047D01*
X173402619Y-106116428D01*
X173355000Y-106021190D01*
X173355000Y-105973571D01*
X173402619Y-105878333D01*
X173497857Y-105830714D01*
X173640714Y-105830714D01*
X173735952Y-105878333D01*
X174593095Y-106449761D02*
X174497857Y-106497380D01*
X174307380Y-106497380D01*
X174212142Y-106449761D01*
X174164523Y-106354523D01*
X174164523Y-105973571D01*
X174212142Y-105878333D01*
X174307380Y-105830714D01*
X174497857Y-105830714D01*
X174593095Y-105878333D01*
X174640714Y-105973571D01*
X174640714Y-106068809D01*
X174164523Y-106164047D01*
X174926428Y-105830714D02*
X175307380Y-105830714D01*
X175069285Y-105497380D02*
X175069285Y-106354523D01*
X175116904Y-106449761D01*
X175212142Y-106497380D01*
X175307380Y-106497380D01*
D11*
X176470000Y-97850000D02*
X179130000Y-97850000D01*
X176470000Y-85090000D02*
X176470000Y-97850000D01*
X179130000Y-85090000D02*
X179130000Y-97850000D01*
X176470000Y-85090000D02*
X179130000Y-85090000D01*
X176470000Y-83820000D02*
X176470000Y-82490000D01*
X176470000Y-82490000D02*
X177800000Y-82490000D01*
X173990000Y-101600000D02*
X173990000Y-78740000D01*
X173990000Y-78740000D02*
X215900000Y-78740000D01*
X215900000Y-78740000D02*
X215900000Y-101600000D01*
X215900000Y-101600000D02*
X173990000Y-101600000D01*
X214630000Y-97790000D02*
X214630000Y-83820000D01*
X214630000Y-83820000D02*
X200660000Y-83820000D01*
X200660000Y-83820000D02*
X200660000Y-97790000D01*
X200660000Y-97790000D02*
X214630000Y-97790000D01*
X170395000Y-109585000D02*
X170395000Y-114085000D01*
X174395000Y-108335000D02*
X172895000Y-108335000D01*
X176895000Y-114085000D02*
X176895000Y-109585000D01*
X172895000Y-115335000D02*
X174395000Y-115335000D01*
X200445000Y-58440000D02*
X200445000Y-72980000D01*
X200445000Y-72980000D02*
X169475000Y-72980000D01*
X169475000Y-72980000D02*
X169475000Y-58440000D01*
X190750000Y-73874338D02*
X190250000Y-73874338D01*
X190250000Y-73874338D02*
X190500000Y-73441325D01*
X190500000Y-73441325D02*
X190750000Y-73874338D01*
X171870000Y-120800000D02*
X171870000Y-123040000D01*
X171870000Y-123040000D02*
X176110000Y-123040000D01*
X176110000Y-123040000D02*
X176110000Y-120800000D01*
X176110000Y-120800000D02*
X171870000Y-120800000D01*
X171220000Y-121920000D02*
X171870000Y-121920000D01*
X176760000Y-121920000D02*
X176110000Y-121920000D01*
X172590000Y-120800000D02*
X172590000Y-123040000D01*
X172710000Y-120800000D02*
X172710000Y-123040000D01*
X172470000Y-120800000D02*
X172470000Y-123040000D01*
X208340000Y-124400000D02*
X205680000Y-124400000D01*
X208340000Y-137160000D02*
X208340000Y-124400000D01*
X205680000Y-137160000D02*
X205680000Y-124400000D01*
X208340000Y-137160000D02*
X205680000Y-137160000D01*
X208340000Y-138430000D02*
X208340000Y-139760000D01*
X208340000Y-139760000D02*
X207010000Y-139760000D01*
D12*
X214885000Y-61580000D02*
X215695000Y-61580000D01*
X215695000Y-61580000D02*
X215695000Y-75580000D01*
X215695000Y-75580000D02*
X214885000Y-75580000D01*
X202865000Y-75580000D02*
X202865000Y-61580000D01*
X214885000Y-61580000D02*
X214885000Y-75580000D01*
X202865000Y-61580000D02*
X206885000Y-61580000D01*
X211865000Y-61580000D02*
X214885000Y-61580000D01*
X206885000Y-75580000D02*
X202865000Y-75580000D01*
X214885000Y-75580000D02*
X211865000Y-75580000D01*
D13*
X202395000Y-69950000D02*
G75*
G03X202395000Y-69950000I-200000J0D01*
G01*
D11*
X169475000Y-142220000D02*
X169475000Y-127680000D01*
X169475000Y-127680000D02*
X200445000Y-127680000D01*
X200445000Y-127680000D02*
X200445000Y-142220000D01*
X190250000Y-126785662D02*
X190750000Y-126785662D01*
X190750000Y-126785662D02*
X190500000Y-127218675D01*
X190500000Y-127218675D02*
X190250000Y-126785662D01*
D10*
X174291666Y-89622380D02*
X174291666Y-90336666D01*
X174244047Y-90479523D01*
X174148809Y-90574761D01*
X174005952Y-90622380D01*
X173910714Y-90622380D01*
X175291666Y-90622380D02*
X174720238Y-90622380D01*
X175005952Y-90622380D02*
X175005952Y-89622380D01*
X174910714Y-89765238D01*
X174815476Y-89860476D01*
X174720238Y-89908095D01*
X184127142Y-90622380D02*
X184127142Y-89622380D01*
X184460476Y-90336666D01*
X184793809Y-89622380D01*
X184793809Y-90622380D01*
X185270000Y-90622380D02*
X185270000Y-89622380D01*
X186317619Y-90527142D02*
X186270000Y-90574761D01*
X186127142Y-90622380D01*
X186031904Y-90622380D01*
X185889047Y-90574761D01*
X185793809Y-90479523D01*
X185746190Y-90384285D01*
X185698571Y-90193809D01*
X185698571Y-90050952D01*
X185746190Y-89860476D01*
X185793809Y-89765238D01*
X185889047Y-89670000D01*
X186031904Y-89622380D01*
X186127142Y-89622380D01*
X186270000Y-89670000D01*
X186317619Y-89717619D01*
X187317619Y-90622380D02*
X186984285Y-90146190D01*
X186746190Y-90622380D02*
X186746190Y-89622380D01*
X187127142Y-89622380D01*
X187222380Y-89670000D01*
X187270000Y-89717619D01*
X187317619Y-89812857D01*
X187317619Y-89955714D01*
X187270000Y-90050952D01*
X187222380Y-90098571D01*
X187127142Y-90146190D01*
X186746190Y-90146190D01*
X187936666Y-89622380D02*
X188127142Y-89622380D01*
X188222380Y-89670000D01*
X188317619Y-89765238D01*
X188365238Y-89955714D01*
X188365238Y-90289047D01*
X188317619Y-90479523D01*
X188222380Y-90574761D01*
X188127142Y-90622380D01*
X187936666Y-90622380D01*
X187841428Y-90574761D01*
X187746190Y-90479523D01*
X187698571Y-90289047D01*
X187698571Y-89955714D01*
X187746190Y-89765238D01*
X187841428Y-89670000D01*
X187936666Y-89622380D01*
X188555714Y-90717619D02*
X189317619Y-90717619D01*
X189508095Y-90574761D02*
X189650952Y-90622380D01*
X189889047Y-90622380D01*
X189984285Y-90574761D01*
X190031904Y-90527142D01*
X190079523Y-90431904D01*
X190079523Y-90336666D01*
X190031904Y-90241428D01*
X189984285Y-90193809D01*
X189889047Y-90146190D01*
X189698571Y-90098571D01*
X189603333Y-90050952D01*
X189555714Y-90003333D01*
X189508095Y-89908095D01*
X189508095Y-89812857D01*
X189555714Y-89717619D01*
X189603333Y-89670000D01*
X189698571Y-89622380D01*
X189936666Y-89622380D01*
X190079523Y-89670000D01*
X190508095Y-90622380D02*
X190508095Y-89622380D01*
X190746190Y-89622380D01*
X190889047Y-89670000D01*
X190984285Y-89765238D01*
X191031904Y-89860476D01*
X191079523Y-90050952D01*
X191079523Y-90193809D01*
X191031904Y-90384285D01*
X190984285Y-90479523D01*
X190889047Y-90574761D01*
X190746190Y-90622380D01*
X190508095Y-90622380D01*
X191270000Y-90717619D02*
X192031904Y-90717619D01*
X192603333Y-90098571D02*
X192746190Y-90146190D01*
X192793809Y-90193809D01*
X192841428Y-90289047D01*
X192841428Y-90431904D01*
X192793809Y-90527142D01*
X192746190Y-90574761D01*
X192650952Y-90622380D01*
X192270000Y-90622380D01*
X192270000Y-89622380D01*
X192603333Y-89622380D01*
X192698571Y-89670000D01*
X192746190Y-89717619D01*
X192793809Y-89812857D01*
X192793809Y-89908095D01*
X192746190Y-90003333D01*
X192698571Y-90050952D01*
X192603333Y-90098571D01*
X192270000Y-90098571D01*
X193841428Y-90622380D02*
X193508095Y-90146190D01*
X193270000Y-90622380D02*
X193270000Y-89622380D01*
X193650952Y-89622380D01*
X193746190Y-89670000D01*
X193793809Y-89717619D01*
X193841428Y-89812857D01*
X193841428Y-89955714D01*
X193793809Y-90050952D01*
X193746190Y-90098571D01*
X193650952Y-90146190D01*
X193270000Y-90146190D01*
X194270000Y-90098571D02*
X194603333Y-90098571D01*
X194746190Y-90622380D02*
X194270000Y-90622380D01*
X194270000Y-89622380D01*
X194746190Y-89622380D01*
X195127142Y-90336666D02*
X195603333Y-90336666D01*
X195031904Y-90622380D02*
X195365238Y-89622380D01*
X195698571Y-90622380D01*
X196031904Y-90622380D02*
X196031904Y-89622380D01*
X196603333Y-90622380D02*
X196174761Y-90050952D01*
X196603333Y-89622380D02*
X196031904Y-90193809D01*
X197222380Y-89622380D02*
X197412857Y-89622380D01*
X197508095Y-89670000D01*
X197603333Y-89765238D01*
X197650952Y-89955714D01*
X197650952Y-90289047D01*
X197603333Y-90479523D01*
X197508095Y-90574761D01*
X197412857Y-90622380D01*
X197222380Y-90622380D01*
X197127142Y-90574761D01*
X197031904Y-90479523D01*
X196984285Y-90289047D01*
X196984285Y-89955714D01*
X197031904Y-89765238D01*
X197127142Y-89670000D01*
X197222380Y-89622380D01*
X198079523Y-89622380D02*
X198079523Y-90431904D01*
X198127142Y-90527142D01*
X198174761Y-90574761D01*
X198270000Y-90622380D01*
X198460476Y-90622380D01*
X198555714Y-90574761D01*
X198603333Y-90527142D01*
X198650952Y-90431904D01*
X198650952Y-89622380D01*
X198984285Y-89622380D02*
X199555714Y-89622380D01*
X199270000Y-90622380D02*
X199270000Y-89622380D01*
X172021666Y-117879761D02*
X172164523Y-117927380D01*
X172402619Y-117927380D01*
X172497857Y-117879761D01*
X172545476Y-117832142D01*
X172593095Y-117736904D01*
X172593095Y-117641666D01*
X172545476Y-117546428D01*
X172497857Y-117498809D01*
X172402619Y-117451190D01*
X172212142Y-117403571D01*
X172116904Y-117355952D01*
X172069285Y-117308333D01*
X172021666Y-117213095D01*
X172021666Y-117117857D01*
X172069285Y-117022619D01*
X172116904Y-116975000D01*
X172212142Y-116927380D01*
X172450238Y-116927380D01*
X172593095Y-116975000D01*
X172926428Y-116927380D02*
X173164523Y-117927380D01*
X173355000Y-117213095D01*
X173545476Y-117927380D01*
X173783571Y-116927380D01*
X174688333Y-117927380D02*
X174116904Y-117927380D01*
X174402619Y-117927380D02*
X174402619Y-116927380D01*
X174307380Y-117070238D01*
X174212142Y-117165476D01*
X174116904Y-117213095D01*
X198421666Y-73747380D02*
X198421666Y-74461666D01*
X198374047Y-74604523D01*
X198278809Y-74699761D01*
X198135952Y-74747380D01*
X198040714Y-74747380D01*
X199326428Y-74080714D02*
X199326428Y-74747380D01*
X199088333Y-73699761D02*
X198850238Y-74414047D01*
X199469285Y-74414047D01*
X178499285Y-75065000D02*
X178404047Y-75017380D01*
X178261190Y-75017380D01*
X178118333Y-75065000D01*
X178023095Y-75160238D01*
X177975476Y-75255476D01*
X177927857Y-75445952D01*
X177927857Y-75588809D01*
X177975476Y-75779285D01*
X178023095Y-75874523D01*
X178118333Y-75969761D01*
X178261190Y-76017380D01*
X178356428Y-76017380D01*
X178499285Y-75969761D01*
X178546904Y-75922142D01*
X178546904Y-75588809D01*
X178356428Y-75588809D01*
X178927857Y-75731666D02*
X179404047Y-75731666D01*
X178832619Y-76017380D02*
X179165952Y-75017380D01*
X179499285Y-76017380D01*
X179832619Y-76017380D02*
X179832619Y-75017380D01*
X180165952Y-75731666D01*
X180499285Y-75017380D01*
X180499285Y-76017380D01*
X180975476Y-75493571D02*
X181308809Y-75493571D01*
X181451666Y-76017380D02*
X180975476Y-76017380D01*
X180975476Y-75017380D01*
X181451666Y-75017380D01*
X183213571Y-75922142D02*
X183165952Y-75969761D01*
X183023095Y-76017380D01*
X182927857Y-76017380D01*
X182785000Y-75969761D01*
X182689761Y-75874523D01*
X182642142Y-75779285D01*
X182594523Y-75588809D01*
X182594523Y-75445952D01*
X182642142Y-75255476D01*
X182689761Y-75160238D01*
X182785000Y-75065000D01*
X182927857Y-75017380D01*
X183023095Y-75017380D01*
X183165952Y-75065000D01*
X183213571Y-75112619D01*
X183832619Y-75017380D02*
X184023095Y-75017380D01*
X184118333Y-75065000D01*
X184213571Y-75160238D01*
X184261190Y-75350714D01*
X184261190Y-75684047D01*
X184213571Y-75874523D01*
X184118333Y-75969761D01*
X184023095Y-76017380D01*
X183832619Y-76017380D01*
X183737380Y-75969761D01*
X183642142Y-75874523D01*
X183594523Y-75684047D01*
X183594523Y-75350714D01*
X183642142Y-75160238D01*
X183737380Y-75065000D01*
X183832619Y-75017380D01*
X184689761Y-76017380D02*
X184689761Y-75017380D01*
X185261190Y-76017380D01*
X185261190Y-75017380D01*
X185594523Y-75017380D02*
X186165952Y-75017380D01*
X185880238Y-76017380D02*
X185880238Y-75017380D01*
X187070714Y-76017380D02*
X186737380Y-75541190D01*
X186499285Y-76017380D02*
X186499285Y-75017380D01*
X186880238Y-75017380D01*
X186975476Y-75065000D01*
X187023095Y-75112619D01*
X187070714Y-75207857D01*
X187070714Y-75350714D01*
X187023095Y-75445952D01*
X186975476Y-75493571D01*
X186880238Y-75541190D01*
X186499285Y-75541190D01*
X187689761Y-75017380D02*
X187880238Y-75017380D01*
X187975476Y-75065000D01*
X188070714Y-75160238D01*
X188118333Y-75350714D01*
X188118333Y-75684047D01*
X188070714Y-75874523D01*
X187975476Y-75969761D01*
X187880238Y-76017380D01*
X187689761Y-76017380D01*
X187594523Y-75969761D01*
X187499285Y-75874523D01*
X187451666Y-75684047D01*
X187451666Y-75350714D01*
X187499285Y-75160238D01*
X187594523Y-75065000D01*
X187689761Y-75017380D01*
X189023095Y-76017380D02*
X188546904Y-76017380D01*
X188546904Y-75017380D01*
X189832619Y-76017380D02*
X189356428Y-76017380D01*
X189356428Y-75017380D01*
X190165952Y-75493571D02*
X190499285Y-75493571D01*
X190642142Y-76017380D02*
X190165952Y-76017380D01*
X190165952Y-75017380D01*
X190642142Y-75017380D01*
X191642142Y-76017380D02*
X191308809Y-75541190D01*
X191070714Y-76017380D02*
X191070714Y-75017380D01*
X191451666Y-75017380D01*
X191546904Y-75065000D01*
X191594523Y-75112619D01*
X191642142Y-75207857D01*
X191642142Y-75350714D01*
X191594523Y-75445952D01*
X191546904Y-75493571D01*
X191451666Y-75541190D01*
X191070714Y-75541190D01*
D12*
X179935238Y-111688571D02*
X180078095Y-111736190D01*
X180125714Y-111783809D01*
X180173333Y-111879047D01*
X180173333Y-112021904D01*
X180125714Y-112117142D01*
X180078095Y-112164761D01*
X179982857Y-112212380D01*
X179601904Y-112212380D01*
X179601904Y-111212380D01*
X179935238Y-111212380D01*
X180030476Y-111260000D01*
X180078095Y-111307619D01*
X180125714Y-111402857D01*
X180125714Y-111498095D01*
X180078095Y-111593333D01*
X180030476Y-111640952D01*
X179935238Y-111688571D01*
X179601904Y-111688571D01*
X181125714Y-112212380D02*
X180554285Y-112212380D01*
X180840000Y-112212380D02*
X180840000Y-111212380D01*
X180744761Y-111355238D01*
X180649523Y-111450476D01*
X180554285Y-111498095D01*
X183460476Y-113434761D02*
X183603333Y-113482380D01*
X183841428Y-113482380D01*
X183936666Y-113434761D01*
X183984285Y-113387142D01*
X184031904Y-113291904D01*
X184031904Y-113196666D01*
X183984285Y-113101428D01*
X183936666Y-113053809D01*
X183841428Y-113006190D01*
X183650952Y-112958571D01*
X183555714Y-112910952D01*
X183508095Y-112863333D01*
X183460476Y-112768095D01*
X183460476Y-112672857D01*
X183508095Y-112577619D01*
X183555714Y-112530000D01*
X183650952Y-112482380D01*
X183889047Y-112482380D01*
X184031904Y-112530000D01*
X184460476Y-113482380D02*
X184460476Y-112482380D01*
X184841428Y-112482380D01*
X184936666Y-112530000D01*
X184984285Y-112577619D01*
X185031904Y-112672857D01*
X185031904Y-112815714D01*
X184984285Y-112910952D01*
X184936666Y-112958571D01*
X184841428Y-113006190D01*
X184460476Y-113006190D01*
X185412857Y-113196666D02*
X185889047Y-113196666D01*
X185317619Y-113482380D02*
X185650952Y-112482380D01*
X185984285Y-113482380D01*
X186889047Y-113482380D02*
X186555714Y-113006190D01*
X186317619Y-113482380D02*
X186317619Y-112482380D01*
X186698571Y-112482380D01*
X186793809Y-112530000D01*
X186841428Y-112577619D01*
X186889047Y-112672857D01*
X186889047Y-112815714D01*
X186841428Y-112910952D01*
X186793809Y-112958571D01*
X186698571Y-113006190D01*
X186317619Y-113006190D01*
X187317619Y-113482380D02*
X187317619Y-112482380D01*
X187889047Y-113482380D02*
X187460476Y-112910952D01*
X187889047Y-112482380D02*
X187317619Y-113053809D01*
X188650952Y-112958571D02*
X188317619Y-112958571D01*
X188317619Y-113482380D02*
X188317619Y-112482380D01*
X188793809Y-112482380D01*
X189174761Y-112482380D02*
X189174761Y-113291904D01*
X189222380Y-113387142D01*
X189270000Y-113434761D01*
X189365238Y-113482380D01*
X189555714Y-113482380D01*
X189650952Y-113434761D01*
X189698571Y-113387142D01*
X189746190Y-113291904D01*
X189746190Y-112482380D01*
X190222380Y-113482380D02*
X190222380Y-112482380D01*
X190793809Y-113482380D01*
X190793809Y-112482380D01*
X191031904Y-113577619D02*
X191793809Y-113577619D01*
X192031904Y-113482380D02*
X192031904Y-112482380D01*
X192412857Y-112482380D01*
X192508095Y-112530000D01*
X192555714Y-112577619D01*
X192603333Y-112672857D01*
X192603333Y-112815714D01*
X192555714Y-112910952D01*
X192508095Y-112958571D01*
X192412857Y-113006190D01*
X192031904Y-113006190D01*
X193603333Y-113482380D02*
X193270000Y-113006190D01*
X193031904Y-113482380D02*
X193031904Y-112482380D01*
X193412857Y-112482380D01*
X193508095Y-112530000D01*
X193555714Y-112577619D01*
X193603333Y-112672857D01*
X193603333Y-112815714D01*
X193555714Y-112910952D01*
X193508095Y-112958571D01*
X193412857Y-113006190D01*
X193031904Y-113006190D01*
X194222380Y-112482380D02*
X194412857Y-112482380D01*
X194508095Y-112530000D01*
X194603333Y-112625238D01*
X194650952Y-112815714D01*
X194650952Y-113149047D01*
X194603333Y-113339523D01*
X194508095Y-113434761D01*
X194412857Y-113482380D01*
X194222380Y-113482380D01*
X194127142Y-113434761D01*
X194031904Y-113339523D01*
X193984285Y-113149047D01*
X193984285Y-112815714D01*
X194031904Y-112625238D01*
X194127142Y-112530000D01*
X194222380Y-112482380D01*
X194841428Y-113577619D02*
X195603333Y-113577619D01*
X195841428Y-113482380D02*
X195841428Y-112482380D01*
X196174761Y-113196666D01*
X196508095Y-112482380D01*
X196508095Y-113482380D01*
X196984285Y-113482380D02*
X196984285Y-112482380D01*
X198031904Y-113387142D02*
X197984285Y-113434761D01*
X197841428Y-113482380D01*
X197746190Y-113482380D01*
X197603333Y-113434761D01*
X197508095Y-113339523D01*
X197460476Y-113244285D01*
X197412857Y-113053809D01*
X197412857Y-112910952D01*
X197460476Y-112720476D01*
X197508095Y-112625238D01*
X197603333Y-112530000D01*
X197746190Y-112482380D01*
X197841428Y-112482380D01*
X197984285Y-112530000D01*
X198031904Y-112577619D01*
X199031904Y-113482380D02*
X198698571Y-113006190D01*
X198460476Y-113482380D02*
X198460476Y-112482380D01*
X198841428Y-112482380D01*
X198936666Y-112530000D01*
X198984285Y-112577619D01*
X199031904Y-112672857D01*
X199031904Y-112815714D01*
X198984285Y-112910952D01*
X198936666Y-112958571D01*
X198841428Y-113006190D01*
X198460476Y-113006190D01*
X199650952Y-112482380D02*
X199841428Y-112482380D01*
X199936666Y-112530000D01*
X200031904Y-112625238D01*
X200079523Y-112815714D01*
X200079523Y-113149047D01*
X200031904Y-113339523D01*
X199936666Y-113434761D01*
X199841428Y-113482380D01*
X199650952Y-113482380D01*
X199555714Y-113434761D01*
X199460476Y-113339523D01*
X199412857Y-113149047D01*
X199412857Y-112815714D01*
X199460476Y-112625238D01*
X199555714Y-112530000D01*
X199650952Y-112482380D01*
D10*
X173251904Y-124912380D02*
X173251904Y-123912380D01*
X173490000Y-123912380D01*
X173632857Y-123960000D01*
X173728095Y-124055238D01*
X173775714Y-124150476D01*
X173823333Y-124340952D01*
X173823333Y-124483809D01*
X173775714Y-124674285D01*
X173728095Y-124769523D01*
X173632857Y-124864761D01*
X173490000Y-124912380D01*
X173251904Y-124912380D01*
X174775714Y-124912380D02*
X174204285Y-124912380D01*
X174490000Y-124912380D02*
X174490000Y-123912380D01*
X174394761Y-124055238D01*
X174299523Y-124150476D01*
X174204285Y-124198095D01*
X169918095Y-120572380D02*
X169918095Y-119572380D01*
X170489523Y-120572380D02*
X170060952Y-120000952D01*
X170489523Y-119572380D02*
X169918095Y-120143809D01*
X202866666Y-131532380D02*
X202866666Y-132246666D01*
X202819047Y-132389523D01*
X202723809Y-132484761D01*
X202580952Y-132532380D01*
X202485714Y-132532380D01*
X203819047Y-131532380D02*
X203342857Y-131532380D01*
X203295238Y-132008571D01*
X203342857Y-131960952D01*
X203438095Y-131913333D01*
X203676190Y-131913333D01*
X203771428Y-131960952D01*
X203819047Y-132008571D01*
X203866666Y-132103809D01*
X203866666Y-132341904D01*
X203819047Y-132437142D01*
X203771428Y-132484761D01*
X203676190Y-132532380D01*
X203438095Y-132532380D01*
X203342857Y-132484761D01*
X203295238Y-132437142D01*
D12*
X204771290Y-59776762D02*
X204771290Y-60491855D01*
X204723617Y-60634873D01*
X204628271Y-60730219D01*
X204485252Y-60777892D01*
X204389907Y-60777892D01*
X205200345Y-59872107D02*
X205248018Y-59824435D01*
X205343364Y-59776762D01*
X205581728Y-59776762D01*
X205677074Y-59824435D01*
X205724747Y-59872107D01*
X205772420Y-59967453D01*
X205772420Y-60062799D01*
X205724747Y-60205817D01*
X205152672Y-60777892D01*
X205772420Y-60777892D01*
D10*
X199056666Y-125817380D02*
X199056666Y-126531666D01*
X199009047Y-126674523D01*
X198913809Y-126769761D01*
X198770952Y-126817380D01*
X198675714Y-126817380D01*
X199437619Y-125817380D02*
X200056666Y-125817380D01*
X199723333Y-126198333D01*
X199866190Y-126198333D01*
X199961428Y-126245952D01*
X200009047Y-126293571D01*
X200056666Y-126388809D01*
X200056666Y-126626904D01*
X200009047Y-126722142D01*
X199961428Y-126769761D01*
X199866190Y-126817380D01*
X199580476Y-126817380D01*
X199485238Y-126769761D01*
X199437619Y-126722142D01*
X181951666Y-125230000D02*
X181856428Y-125182380D01*
X181713571Y-125182380D01*
X181570714Y-125230000D01*
X181475476Y-125325238D01*
X181427857Y-125420476D01*
X181380238Y-125610952D01*
X181380238Y-125753809D01*
X181427857Y-125944285D01*
X181475476Y-126039523D01*
X181570714Y-126134761D01*
X181713571Y-126182380D01*
X181808809Y-126182380D01*
X181951666Y-126134761D01*
X181999285Y-126087142D01*
X181999285Y-125753809D01*
X181808809Y-125753809D01*
X182427857Y-126182380D02*
X182427857Y-125182380D01*
X183427857Y-125230000D02*
X183332619Y-125182380D01*
X183189761Y-125182380D01*
X183046904Y-125230000D01*
X182951666Y-125325238D01*
X182904047Y-125420476D01*
X182856428Y-125610952D01*
X182856428Y-125753809D01*
X182904047Y-125944285D01*
X182951666Y-126039523D01*
X183046904Y-126134761D01*
X183189761Y-126182380D01*
X183285000Y-126182380D01*
X183427857Y-126134761D01*
X183475476Y-126087142D01*
X183475476Y-125753809D01*
X183285000Y-125753809D01*
X183856428Y-125896666D02*
X184332619Y-125896666D01*
X183761190Y-126182380D02*
X184094523Y-125182380D01*
X184427857Y-126182380D01*
X184618333Y-125182380D02*
X185189761Y-125182380D01*
X184904047Y-126182380D02*
X184904047Y-125182380D01*
X186094523Y-126182380D02*
X185761190Y-125706190D01*
X185523095Y-126182380D02*
X185523095Y-125182380D01*
X185904047Y-125182380D01*
X185999285Y-125230000D01*
X186046904Y-125277619D01*
X186094523Y-125372857D01*
X186094523Y-125515714D01*
X186046904Y-125610952D01*
X185999285Y-125658571D01*
X185904047Y-125706190D01*
X185523095Y-125706190D01*
X186713571Y-125182380D02*
X186904047Y-125182380D01*
X186999285Y-125230000D01*
X187094523Y-125325238D01*
X187142142Y-125515714D01*
X187142142Y-125849047D01*
X187094523Y-126039523D01*
X186999285Y-126134761D01*
X186904047Y-126182380D01*
X186713571Y-126182380D01*
X186618333Y-126134761D01*
X186523095Y-126039523D01*
X186475476Y-125849047D01*
X186475476Y-125515714D01*
X186523095Y-125325238D01*
X186618333Y-125230000D01*
X186713571Y-125182380D01*
X187570714Y-126182380D02*
X187570714Y-125182380D01*
X188142142Y-126182380D01*
X188142142Y-125182380D01*
M02*
