M48
; DRILL file {KiCad 5.1.4} date Mon 11 Nov 2019 07:49:59 PM CET
; FORMAT={-:-/ absolute / metric / decimal}
; #@! TF.CreationDate,2019-11-11T19:49:59+01:00
; #@! TF.GenerationSoftware,Kicad,Pcbnew,5.1.4
FMAT,2
METRIC
T1C0.500
T2C0.800
T3C0.890
T4C1.000
T5C1.016
T6C1.100
T7C2.290
T8C3.200
%
G90
G05
T1
X167.005Y-60.325
X169.545Y-84.455
X169.545Y-88.265
X169.545Y-137.795
X170.815Y-100.33
X172.085Y-135.255
X175.26Y-62.865
X175.26Y-67.31
X177.8Y-100.33
X178.435Y-131.445
X180.34Y-73.66
X180.34Y-83.185
X180.34Y-93.345
X183.515Y-73.66
X183.515Y-83.185
X183.515Y-93.345
X183.515Y-116.205
X184.785Y-123.19
X186.055Y-73.66
X186.055Y-83.185
X186.055Y-93.345
X186.69Y-109.22
X187.325Y-116.205
X189.865Y-73.66
X189.865Y-83.185
X189.865Y-93.345
X191.135Y-123.19
X194.31Y-67.945
X198.12Y-78.74
X198.12Y-86.36
X198.755Y-94.615
X200.66Y-132.08
X202.565Y-133.985
X204.47Y-78.74
X204.47Y-86.36
X204.47Y-94.615
X204.47Y-138.43
X205.105Y-60.325
X210.82Y-123.19
X211.455Y-140.335
T2
X170.18Y-121.92
X177.8Y-121.92
T3
X203.885Y-65.23
X203.885Y-71.93
X206.375Y-65.23
X206.375Y-67.28
X206.375Y-69.88
X206.375Y-71.93
T4
X179.42Y-71.12
X180.805Y-68.28
X182.19Y-71.12
X183.575Y-68.28
X184.96Y-71.12
X186.345Y-68.28
X187.73Y-71.12
X189.115Y-68.28
X190.5Y-71.12
X207.01Y-125.73
X207.01Y-128.27
X207.01Y-130.81
X207.01Y-133.35
X207.01Y-135.89
X207.01Y-138.43
X179.42Y-129.54
X180.805Y-132.38
X182.19Y-129.54
X183.575Y-132.38
X184.96Y-129.54
X186.345Y-132.38
X187.73Y-129.54
X189.115Y-132.38
X190.5Y-129.54
X177.8Y-83.82
X177.8Y-86.36
X177.8Y-88.9
X177.8Y-91.44
X177.8Y-93.98
X177.8Y-96.52
T5
X182.88Y-105.41
X182.88Y-120.65
X185.42Y-105.41
X185.42Y-120.65
X187.96Y-105.41
X187.96Y-120.65
X190.5Y-105.41
X190.5Y-120.65
X193.04Y-105.41
X193.04Y-120.65
X195.58Y-105.41
X195.58Y-120.65
X198.12Y-105.41
X198.12Y-120.65
X200.66Y-105.41
X200.66Y-120.65
X203.2Y-105.41
X203.2Y-120.65
X205.74Y-105.41
X205.74Y-120.65
X208.28Y-105.41
X208.28Y-120.65
X210.82Y-105.41
X210.82Y-120.65
T6
X171.395Y-108.585
X171.395Y-115.085
X175.895Y-108.585
X175.895Y-115.085
T7
X209.375Y-61.82
X209.375Y-75.34
X210.185Y-68.58
T8
X172.46Y-69.7
X197.46Y-69.7
X172.46Y-130.96
X197.46Y-130.96
T0
M30
