G04 #@! TF.GenerationSoftware,KiCad,Pcbnew,5.1.4*
G04 #@! TF.CreationDate,2019-11-11T19:51:53+01:00*
G04 #@! TF.ProjectId,PluggyReloaded,506c7567-6779-4526-956c-6f616465642e,rev?*
G04 #@! TF.SameCoordinates,Original*
G04 #@! TF.FileFunction,Copper,L1,Top*
G04 #@! TF.FilePolarity,Positive*
%FSLAX46Y46*%
G04 Gerber Fmt 4.6, Leading zero omitted, Abs format (unit mm)*
G04 Created by KiCad (PCBNEW 5.1.4) date 2019-11-11 19:51:53*
%MOMM*%
%LPD*%
G04 APERTURE LIST*
%ADD10R,1.700000X1.700000*%
%ADD11O,1.700000X1.700000*%
%ADD12C,2.000000*%
%ADD13R,1.600000X1.600000*%
%ADD14C,1.600000*%
%ADD15C,4.000000*%
%ADD16C,1.879600*%
%ADD17O,1.600000X1.600000*%
%ADD18C,3.306000*%
%ADD19R,1.398000X1.398000*%
%ADD20C,1.398000*%
%ADD21C,1.000000*%
%ADD22C,0.500000*%
%ADD23C,0.750000*%
%ADD24C,0.254000*%
G04 APERTURE END LIST*
D10*
X177800000Y-83820000D03*
D11*
X177800000Y-86360000D03*
X177800000Y-88900000D03*
X177800000Y-91440000D03*
X177800000Y-93980000D03*
X177800000Y-96520000D03*
D12*
X171395000Y-108585000D03*
X175895000Y-108585000D03*
X171395000Y-115085000D03*
X175895000Y-115085000D03*
D13*
X190500000Y-71120000D03*
D14*
X187730000Y-71120000D03*
X184960000Y-71120000D03*
X182190000Y-71120000D03*
X179420000Y-71120000D03*
X189115000Y-68280000D03*
X186345000Y-68280000D03*
X183575000Y-68280000D03*
X180805000Y-68280000D03*
D15*
X197460000Y-69700000D03*
X172460000Y-69700000D03*
D16*
X210820000Y-105410000D03*
X208280000Y-105410000D03*
X205740000Y-105410000D03*
X203200000Y-105410000D03*
X200660000Y-105410000D03*
X198120000Y-105410000D03*
X195580000Y-105410000D03*
X193040000Y-105410000D03*
X190500000Y-105410000D03*
X187960000Y-105410000D03*
X185420000Y-105410000D03*
X182880000Y-105410000D03*
X182880000Y-120650000D03*
X185420000Y-120650000D03*
X187960000Y-120650000D03*
X190500000Y-120650000D03*
X193040000Y-120650000D03*
X195580000Y-120650000D03*
X198120000Y-120650000D03*
X200660000Y-120650000D03*
X203200000Y-120650000D03*
X205740000Y-120650000D03*
X208280000Y-120650000D03*
X210820000Y-120650000D03*
D13*
X170180000Y-121920000D03*
D17*
X177800000Y-121920000D03*
D10*
X207010000Y-138430000D03*
D11*
X207010000Y-135890000D03*
X207010000Y-133350000D03*
X207010000Y-130810000D03*
X207010000Y-128270000D03*
X207010000Y-125730000D03*
D18*
X210185000Y-68580000D03*
X209375000Y-61820000D03*
X209375000Y-75340000D03*
D19*
X206375000Y-69880000D03*
D20*
X206375000Y-67280000D03*
X206375000Y-71930000D03*
X206375000Y-65230000D03*
X203885000Y-71930000D03*
X203885000Y-65230000D03*
D13*
X190500000Y-129540000D03*
D14*
X187730000Y-129540000D03*
X184960000Y-129540000D03*
X182190000Y-129540000D03*
X179420000Y-129540000D03*
X189115000Y-132380000D03*
X186345000Y-132380000D03*
X183575000Y-132380000D03*
X180805000Y-132380000D03*
D15*
X172460000Y-130960000D03*
X197460000Y-130960000D03*
D21*
X204470000Y-94615000D03*
X172085000Y-135255000D03*
X169545000Y-137795000D03*
X186690000Y-109220000D03*
X204470000Y-78740000D03*
X175260000Y-62865000D03*
X175260000Y-67310000D03*
X187325000Y-116205000D03*
X210820000Y-123190000D03*
X204470000Y-86360000D03*
X200660000Y-132080000D03*
X184785000Y-123190000D03*
X191135000Y-123190000D03*
X167005000Y-60325000D03*
X183515000Y-73660000D03*
X186055000Y-73660000D03*
X183515000Y-93345000D03*
X186055000Y-93345000D03*
X183515000Y-83185000D03*
X186055000Y-83185000D03*
X189865000Y-83185000D03*
X189865000Y-73660000D03*
X189865000Y-93345000D03*
X198120000Y-78740000D03*
X198120000Y-86360000D03*
X198755000Y-94615000D03*
X177800000Y-100330000D03*
X170815000Y-100330000D03*
X169545000Y-84455000D03*
X169545000Y-88265000D03*
X194310000Y-67945000D03*
X205105000Y-60325000D03*
X180340000Y-73660000D03*
X180340000Y-83185000D03*
X180340000Y-93345000D03*
X178435000Y-131445000D03*
X202565000Y-133985000D03*
X204470000Y-138430000D03*
X211455000Y-140335000D03*
X183515000Y-116205000D03*
D22*
X177800000Y-96520000D02*
X196850000Y-96520000D01*
X200660000Y-100330000D02*
X200660000Y-105410000D01*
X196850000Y-96520000D02*
X200660000Y-100330000D01*
X182190000Y-125785000D02*
X182880000Y-125095000D01*
X182190000Y-129540000D02*
X182190000Y-125785000D01*
X182880000Y-120650000D02*
X182880000Y-125095000D01*
X174444999Y-101419999D02*
X185420000Y-112395000D01*
X185420000Y-112395000D02*
X185420000Y-120650000D01*
X177800000Y-91440000D02*
X174444999Y-94795001D01*
X174444999Y-94795001D02*
X174444999Y-101419999D01*
X183515000Y-112788998D02*
X172720000Y-101993998D01*
X183515000Y-116205000D02*
X183515000Y-112788998D01*
X172720000Y-93980000D02*
X177800000Y-88900000D01*
X172720000Y-101993998D02*
X172720000Y-93980000D01*
X190500000Y-116205000D02*
X190500000Y-120650000D01*
X175895000Y-100965000D02*
X190500000Y-115570000D01*
X175895000Y-95885000D02*
X175895000Y-100965000D01*
X190500000Y-115570000D02*
X190500000Y-116205000D01*
X177800000Y-93980000D02*
X175895000Y-95885000D01*
D23*
X210820000Y-126160998D02*
X210820000Y-135890000D01*
X208964001Y-124304999D02*
X210820000Y-126160998D01*
X206854999Y-124304999D02*
X208964001Y-124304999D01*
X203200000Y-120650000D02*
X206854999Y-124304999D01*
X208280000Y-135890000D02*
X210820000Y-135890000D01*
X167640000Y-133350000D02*
X167640000Y-121920000D01*
X167640000Y-121920000D02*
X170180000Y-121920000D01*
X167640000Y-121920000D02*
X167640000Y-93980000D01*
X174625000Y-140335000D02*
X167640000Y-133350000D01*
X177800000Y-86360000D02*
X167640000Y-86360000D01*
X167640000Y-93980000D02*
X167640000Y-86360000D01*
X185799999Y-64964999D02*
X189115000Y-68280000D01*
X171255001Y-64964999D02*
X185799999Y-64964999D01*
X167640000Y-86360000D02*
X167640000Y-68580000D01*
X167640000Y-68580000D02*
X171255001Y-64964999D01*
X189914999Y-69079999D02*
X192269999Y-69079999D01*
X189115000Y-68280000D02*
X189914999Y-69079999D01*
X192269999Y-69079999D02*
X197485000Y-74295000D01*
X204010000Y-74295000D02*
X204240000Y-74065000D01*
X197485000Y-74295000D02*
X204010000Y-74295000D01*
X204240000Y-74065000D02*
X206375000Y-71930000D01*
X208280000Y-135890000D02*
X207010000Y-135890000D01*
X208915000Y-140335000D02*
X210820000Y-138430000D01*
X210820000Y-135890000D02*
X210820000Y-138430000D01*
X174625000Y-140335000D02*
X208915000Y-140335000D01*
X177800000Y-125095000D02*
X176530000Y-126365000D01*
X177800000Y-121920000D02*
X177800000Y-125095000D01*
X176530000Y-126365000D02*
X176530000Y-132080000D01*
X176530000Y-132080000D02*
X179070000Y-134620000D01*
X179070000Y-134620000D02*
X186875000Y-134620000D01*
X186875000Y-134620000D02*
X189115000Y-132380000D01*
D22*
X193040000Y-121979077D02*
X204410923Y-133350000D01*
X204410923Y-133350000D02*
X207077919Y-133350000D01*
X193040000Y-120650000D02*
X193040000Y-121979077D01*
X204410923Y-133350000D02*
X207010000Y-133350000D01*
X204410923Y-130810000D02*
X207077919Y-130810000D01*
X195580000Y-121979077D02*
X204410923Y-130810000D01*
X195580000Y-120650000D02*
X195580000Y-121979077D01*
X204410923Y-130810000D02*
X207010000Y-130810000D01*
X198120000Y-120650000D02*
X205740000Y-128270000D01*
X205740000Y-128270000D02*
X207010000Y-128270000D01*
X200660000Y-120650000D02*
X205740000Y-125730000D01*
X205740000Y-125730000D02*
X207010000Y-125730000D01*
D24*
G36*
X212700000Y-141580000D02*
G01*
X165760000Y-141580000D01*
X165760000Y-68580000D01*
X166625114Y-68580000D01*
X166630001Y-68629618D01*
X166630000Y-86310392D01*
X166625114Y-86360000D01*
X166630001Y-86409618D01*
X166630000Y-94029607D01*
X166630001Y-94029617D01*
X166630000Y-121870392D01*
X166625114Y-121920000D01*
X166630001Y-121969618D01*
X166630000Y-133300392D01*
X166625114Y-133350000D01*
X166644615Y-133547994D01*
X166665448Y-133616671D01*
X166702368Y-133738379D01*
X166796153Y-133913840D01*
X166922367Y-134067633D01*
X166960906Y-134099261D01*
X173875744Y-141014100D01*
X173907367Y-141052633D01*
X174061160Y-141178847D01*
X174236620Y-141272632D01*
X174427005Y-141330385D01*
X174625000Y-141349886D01*
X174674608Y-141345000D01*
X208865392Y-141345000D01*
X208915000Y-141349886D01*
X209112994Y-141330385D01*
X209303380Y-141272632D01*
X209478840Y-141178847D01*
X209632633Y-141052633D01*
X209664261Y-141014094D01*
X211499100Y-139179256D01*
X211537633Y-139147633D01*
X211663847Y-138993840D01*
X211757632Y-138818380D01*
X211815385Y-138627995D01*
X211834886Y-138430000D01*
X211830000Y-138380392D01*
X211830000Y-135939608D01*
X211834886Y-135890000D01*
X211830000Y-135840392D01*
X211830000Y-126210606D01*
X211834886Y-126160998D01*
X211815385Y-125963003D01*
X211757632Y-125772618D01*
X211696817Y-125658841D01*
X211663847Y-125597158D01*
X211537633Y-125443365D01*
X211499100Y-125411742D01*
X209713262Y-123625905D01*
X209681634Y-123587366D01*
X209527841Y-123461152D01*
X209352381Y-123367367D01*
X209161995Y-123309614D01*
X209013609Y-123294999D01*
X208964001Y-123290113D01*
X208914393Y-123294999D01*
X207273354Y-123294999D01*
X206152047Y-122173692D01*
X206199352Y-122164282D01*
X206485948Y-122045570D01*
X206743877Y-121873227D01*
X206874628Y-121742476D01*
X207367129Y-121742476D01*
X207455623Y-122000723D01*
X207734976Y-122135597D01*
X208035275Y-122213381D01*
X208344977Y-122231084D01*
X208652184Y-122188027D01*
X208945086Y-122085865D01*
X209104377Y-122000723D01*
X209192871Y-121742476D01*
X208280000Y-120829605D01*
X207367129Y-121742476D01*
X206874628Y-121742476D01*
X206963227Y-121653877D01*
X207054495Y-121517286D01*
X207187524Y-121562871D01*
X208100395Y-120650000D01*
X208459605Y-120650000D01*
X209372476Y-121562871D01*
X209505505Y-121517286D01*
X209596773Y-121653877D01*
X209816123Y-121873227D01*
X210074052Y-122045570D01*
X210360648Y-122164282D01*
X210664896Y-122224800D01*
X210975104Y-122224800D01*
X211279352Y-122164282D01*
X211565948Y-122045570D01*
X211823877Y-121873227D01*
X212043227Y-121653877D01*
X212215570Y-121395948D01*
X212334282Y-121109352D01*
X212394800Y-120805104D01*
X212394800Y-120494896D01*
X212334282Y-120190648D01*
X212215570Y-119904052D01*
X212043227Y-119646123D01*
X211823877Y-119426773D01*
X211565948Y-119254430D01*
X211279352Y-119135718D01*
X210975104Y-119075200D01*
X210664896Y-119075200D01*
X210360648Y-119135718D01*
X210074052Y-119254430D01*
X209816123Y-119426773D01*
X209596773Y-119646123D01*
X209505505Y-119782714D01*
X209372476Y-119737129D01*
X208459605Y-120650000D01*
X208100395Y-120650000D01*
X207187524Y-119737129D01*
X207054495Y-119782714D01*
X206963227Y-119646123D01*
X206874628Y-119557524D01*
X207367129Y-119557524D01*
X208280000Y-120470395D01*
X209192871Y-119557524D01*
X209104377Y-119299277D01*
X208825024Y-119164403D01*
X208524725Y-119086619D01*
X208215023Y-119068916D01*
X207907816Y-119111973D01*
X207614914Y-119214135D01*
X207455623Y-119299277D01*
X207367129Y-119557524D01*
X206874628Y-119557524D01*
X206743877Y-119426773D01*
X206485948Y-119254430D01*
X206199352Y-119135718D01*
X205895104Y-119075200D01*
X205584896Y-119075200D01*
X205280648Y-119135718D01*
X204994052Y-119254430D01*
X204736123Y-119426773D01*
X204516773Y-119646123D01*
X204470000Y-119716124D01*
X204423227Y-119646123D01*
X204203877Y-119426773D01*
X203945948Y-119254430D01*
X203659352Y-119135718D01*
X203355104Y-119075200D01*
X203044896Y-119075200D01*
X202740648Y-119135718D01*
X202454052Y-119254430D01*
X202196123Y-119426773D01*
X201976773Y-119646123D01*
X201930000Y-119716124D01*
X201883227Y-119646123D01*
X201663877Y-119426773D01*
X201405948Y-119254430D01*
X201119352Y-119135718D01*
X200815104Y-119075200D01*
X200504896Y-119075200D01*
X200200648Y-119135718D01*
X199914052Y-119254430D01*
X199656123Y-119426773D01*
X199436773Y-119646123D01*
X199390000Y-119716124D01*
X199343227Y-119646123D01*
X199123877Y-119426773D01*
X198865948Y-119254430D01*
X198579352Y-119135718D01*
X198275104Y-119075200D01*
X197964896Y-119075200D01*
X197660648Y-119135718D01*
X197374052Y-119254430D01*
X197116123Y-119426773D01*
X196896773Y-119646123D01*
X196850000Y-119716124D01*
X196803227Y-119646123D01*
X196583877Y-119426773D01*
X196325948Y-119254430D01*
X196039352Y-119135718D01*
X195735104Y-119075200D01*
X195424896Y-119075200D01*
X195120648Y-119135718D01*
X194834052Y-119254430D01*
X194576123Y-119426773D01*
X194356773Y-119646123D01*
X194310000Y-119716124D01*
X194263227Y-119646123D01*
X194043877Y-119426773D01*
X193785948Y-119254430D01*
X193499352Y-119135718D01*
X193195104Y-119075200D01*
X192884896Y-119075200D01*
X192580648Y-119135718D01*
X192294052Y-119254430D01*
X192036123Y-119426773D01*
X191816773Y-119646123D01*
X191770000Y-119716124D01*
X191723227Y-119646123D01*
X191503877Y-119426773D01*
X191385000Y-119347342D01*
X191385000Y-115613466D01*
X191389281Y-115569999D01*
X191385000Y-115526533D01*
X191385000Y-115526523D01*
X191372195Y-115396510D01*
X191321589Y-115229687D01*
X191239411Y-115075941D01*
X191128817Y-114941183D01*
X191095051Y-114913472D01*
X183144599Y-106963020D01*
X183339352Y-106924282D01*
X183625948Y-106805570D01*
X183883877Y-106633227D01*
X184103227Y-106413877D01*
X184150000Y-106343876D01*
X184196773Y-106413877D01*
X184416123Y-106633227D01*
X184674052Y-106805570D01*
X184960648Y-106924282D01*
X185264896Y-106984800D01*
X185575104Y-106984800D01*
X185879352Y-106924282D01*
X186165948Y-106805570D01*
X186423877Y-106633227D01*
X186643227Y-106413877D01*
X186690000Y-106343876D01*
X186736773Y-106413877D01*
X186956123Y-106633227D01*
X187214052Y-106805570D01*
X187500648Y-106924282D01*
X187804896Y-106984800D01*
X188115104Y-106984800D01*
X188419352Y-106924282D01*
X188705948Y-106805570D01*
X188963877Y-106633227D01*
X189183227Y-106413877D01*
X189230000Y-106343876D01*
X189276773Y-106413877D01*
X189496123Y-106633227D01*
X189754052Y-106805570D01*
X190040648Y-106924282D01*
X190344896Y-106984800D01*
X190655104Y-106984800D01*
X190959352Y-106924282D01*
X191245948Y-106805570D01*
X191503877Y-106633227D01*
X191723227Y-106413877D01*
X191770000Y-106343876D01*
X191816773Y-106413877D01*
X192036123Y-106633227D01*
X192294052Y-106805570D01*
X192580648Y-106924282D01*
X192884896Y-106984800D01*
X193195104Y-106984800D01*
X193499352Y-106924282D01*
X193785948Y-106805570D01*
X194043877Y-106633227D01*
X194263227Y-106413877D01*
X194310000Y-106343876D01*
X194356773Y-106413877D01*
X194576123Y-106633227D01*
X194834052Y-106805570D01*
X195120648Y-106924282D01*
X195424896Y-106984800D01*
X195735104Y-106984800D01*
X196039352Y-106924282D01*
X196325948Y-106805570D01*
X196583877Y-106633227D01*
X196803227Y-106413877D01*
X196850000Y-106343876D01*
X196896773Y-106413877D01*
X197116123Y-106633227D01*
X197374052Y-106805570D01*
X197660648Y-106924282D01*
X197964896Y-106984800D01*
X198275104Y-106984800D01*
X198579352Y-106924282D01*
X198865948Y-106805570D01*
X199123877Y-106633227D01*
X199343227Y-106413877D01*
X199390000Y-106343876D01*
X199436773Y-106413877D01*
X199656123Y-106633227D01*
X199914052Y-106805570D01*
X200200648Y-106924282D01*
X200504896Y-106984800D01*
X200815104Y-106984800D01*
X201119352Y-106924282D01*
X201405948Y-106805570D01*
X201663877Y-106633227D01*
X201794628Y-106502476D01*
X202287129Y-106502476D01*
X202375623Y-106760723D01*
X202654976Y-106895597D01*
X202955275Y-106973381D01*
X203264977Y-106991084D01*
X203572184Y-106948027D01*
X203865086Y-106845865D01*
X204024377Y-106760723D01*
X204112871Y-106502476D01*
X204827129Y-106502476D01*
X204915623Y-106760723D01*
X205194976Y-106895597D01*
X205495275Y-106973381D01*
X205804977Y-106991084D01*
X206112184Y-106948027D01*
X206405086Y-106845865D01*
X206564377Y-106760723D01*
X206652871Y-106502476D01*
X205740000Y-105589605D01*
X204827129Y-106502476D01*
X204112871Y-106502476D01*
X203200000Y-105589605D01*
X202287129Y-106502476D01*
X201794628Y-106502476D01*
X201883227Y-106413877D01*
X201974495Y-106277286D01*
X202107524Y-106322871D01*
X203020395Y-105410000D01*
X203379605Y-105410000D01*
X204292476Y-106322871D01*
X204470000Y-106262039D01*
X204647524Y-106322871D01*
X205560395Y-105410000D01*
X205919605Y-105410000D01*
X206832476Y-106322871D01*
X206965505Y-106277286D01*
X207056773Y-106413877D01*
X207276123Y-106633227D01*
X207534052Y-106805570D01*
X207820648Y-106924282D01*
X208124896Y-106984800D01*
X208435104Y-106984800D01*
X208739352Y-106924282D01*
X209025948Y-106805570D01*
X209283877Y-106633227D01*
X209503227Y-106413877D01*
X209550000Y-106343876D01*
X209596773Y-106413877D01*
X209816123Y-106633227D01*
X210074052Y-106805570D01*
X210360648Y-106924282D01*
X210664896Y-106984800D01*
X210975104Y-106984800D01*
X211279352Y-106924282D01*
X211565948Y-106805570D01*
X211823877Y-106633227D01*
X212043227Y-106413877D01*
X212215570Y-106155948D01*
X212334282Y-105869352D01*
X212394800Y-105565104D01*
X212394800Y-105254896D01*
X212334282Y-104950648D01*
X212215570Y-104664052D01*
X212043227Y-104406123D01*
X211823877Y-104186773D01*
X211565948Y-104014430D01*
X211279352Y-103895718D01*
X210975104Y-103835200D01*
X210664896Y-103835200D01*
X210360648Y-103895718D01*
X210074052Y-104014430D01*
X209816123Y-104186773D01*
X209596773Y-104406123D01*
X209550000Y-104476124D01*
X209503227Y-104406123D01*
X209283877Y-104186773D01*
X209025948Y-104014430D01*
X208739352Y-103895718D01*
X208435104Y-103835200D01*
X208124896Y-103835200D01*
X207820648Y-103895718D01*
X207534052Y-104014430D01*
X207276123Y-104186773D01*
X207056773Y-104406123D01*
X206965505Y-104542714D01*
X206832476Y-104497129D01*
X205919605Y-105410000D01*
X205560395Y-105410000D01*
X204647524Y-104497129D01*
X204470000Y-104557961D01*
X204292476Y-104497129D01*
X203379605Y-105410000D01*
X203020395Y-105410000D01*
X202107524Y-104497129D01*
X201974495Y-104542714D01*
X201883227Y-104406123D01*
X201794628Y-104317524D01*
X202287129Y-104317524D01*
X203200000Y-105230395D01*
X204112871Y-104317524D01*
X204827129Y-104317524D01*
X205740000Y-105230395D01*
X206652871Y-104317524D01*
X206564377Y-104059277D01*
X206285024Y-103924403D01*
X205984725Y-103846619D01*
X205675023Y-103828916D01*
X205367816Y-103871973D01*
X205074914Y-103974135D01*
X204915623Y-104059277D01*
X204827129Y-104317524D01*
X204112871Y-104317524D01*
X204024377Y-104059277D01*
X203745024Y-103924403D01*
X203444725Y-103846619D01*
X203135023Y-103828916D01*
X202827816Y-103871973D01*
X202534914Y-103974135D01*
X202375623Y-104059277D01*
X202287129Y-104317524D01*
X201794628Y-104317524D01*
X201663877Y-104186773D01*
X201545000Y-104107342D01*
X201545000Y-100373469D01*
X201549281Y-100330000D01*
X201545000Y-100286531D01*
X201545000Y-100286523D01*
X201532195Y-100156510D01*
X201507687Y-100075719D01*
X201481589Y-99989686D01*
X201399411Y-99835941D01*
X201316532Y-99734953D01*
X201316530Y-99734951D01*
X201288817Y-99701183D01*
X201255050Y-99673471D01*
X197506534Y-95924956D01*
X197478817Y-95891183D01*
X197344059Y-95780589D01*
X197190313Y-95698411D01*
X197023490Y-95647805D01*
X196893477Y-95635000D01*
X196893469Y-95635000D01*
X196850000Y-95630719D01*
X196806531Y-95635000D01*
X178994759Y-95635000D01*
X178855134Y-95464866D01*
X178629014Y-95279294D01*
X178574209Y-95250000D01*
X178629014Y-95220706D01*
X178855134Y-95035134D01*
X179040706Y-94809014D01*
X179178599Y-94551034D01*
X179263513Y-94271111D01*
X179292185Y-93980000D01*
X179263513Y-93688889D01*
X179178599Y-93408966D01*
X179040706Y-93150986D01*
X178855134Y-92924866D01*
X178629014Y-92739294D01*
X178574209Y-92710000D01*
X178629014Y-92680706D01*
X178855134Y-92495134D01*
X179040706Y-92269014D01*
X179178599Y-92011034D01*
X179263513Y-91731111D01*
X179292185Y-91440000D01*
X179263513Y-91148889D01*
X179178599Y-90868966D01*
X179040706Y-90610986D01*
X178855134Y-90384866D01*
X178629014Y-90199294D01*
X178574209Y-90170000D01*
X178629014Y-90140706D01*
X178855134Y-89955134D01*
X179040706Y-89729014D01*
X179178599Y-89471034D01*
X179263513Y-89191111D01*
X179292185Y-88900000D01*
X179263513Y-88608889D01*
X179178599Y-88328966D01*
X179040706Y-88070986D01*
X178855134Y-87844866D01*
X178629014Y-87659294D01*
X178574209Y-87630000D01*
X178629014Y-87600706D01*
X178855134Y-87415134D01*
X179040706Y-87189014D01*
X179178599Y-86931034D01*
X179263513Y-86651111D01*
X179292185Y-86360000D01*
X179263513Y-86068889D01*
X179178599Y-85788966D01*
X179040706Y-85530986D01*
X178855134Y-85304866D01*
X178825313Y-85280393D01*
X178894180Y-85259502D01*
X179004494Y-85200537D01*
X179101185Y-85121185D01*
X179180537Y-85024494D01*
X179239502Y-84914180D01*
X179275812Y-84794482D01*
X179288072Y-84670000D01*
X179285000Y-84105750D01*
X179126250Y-83947000D01*
X177927000Y-83947000D01*
X177927000Y-83967000D01*
X177673000Y-83967000D01*
X177673000Y-83947000D01*
X176473750Y-83947000D01*
X176315000Y-84105750D01*
X176311928Y-84670000D01*
X176324188Y-84794482D01*
X176360498Y-84914180D01*
X176419463Y-85024494D01*
X176498815Y-85121185D01*
X176595506Y-85200537D01*
X176705820Y-85259502D01*
X176774687Y-85280393D01*
X176744866Y-85304866D01*
X176707825Y-85350000D01*
X168650000Y-85350000D01*
X168650000Y-82970000D01*
X176311928Y-82970000D01*
X176315000Y-83534250D01*
X176473750Y-83693000D01*
X177673000Y-83693000D01*
X177673000Y-82493750D01*
X177927000Y-82493750D01*
X177927000Y-83693000D01*
X179126250Y-83693000D01*
X179285000Y-83534250D01*
X179288072Y-82970000D01*
X179275812Y-82845518D01*
X179239502Y-82725820D01*
X179180537Y-82615506D01*
X179101185Y-82518815D01*
X179004494Y-82439463D01*
X178894180Y-82380498D01*
X178774482Y-82344188D01*
X178650000Y-82331928D01*
X178085750Y-82335000D01*
X177927000Y-82493750D01*
X177673000Y-82493750D01*
X177514250Y-82335000D01*
X176950000Y-82331928D01*
X176825518Y-82344188D01*
X176705820Y-82380498D01*
X176595506Y-82439463D01*
X176498815Y-82518815D01*
X176419463Y-82615506D01*
X176360498Y-82725820D01*
X176324188Y-82845518D01*
X176311928Y-82970000D01*
X168650000Y-82970000D01*
X168650000Y-76940572D01*
X207954034Y-76940572D01*
X208128448Y-77271797D01*
X208529275Y-77477868D01*
X208962603Y-77601783D01*
X209411779Y-77638778D01*
X209859541Y-77587432D01*
X210288683Y-77449719D01*
X210621552Y-77271797D01*
X210795966Y-76940572D01*
X209375000Y-75519605D01*
X207954034Y-76940572D01*
X168650000Y-76940572D01*
X168650000Y-75376779D01*
X207076222Y-75376779D01*
X207127568Y-75824541D01*
X207265281Y-76253683D01*
X207443203Y-76586552D01*
X207774428Y-76760966D01*
X209195395Y-75340000D01*
X209554605Y-75340000D01*
X210975572Y-76760966D01*
X211306797Y-76586552D01*
X211512868Y-76185725D01*
X211636783Y-75752397D01*
X211673778Y-75303221D01*
X211622432Y-74855459D01*
X211484719Y-74426317D01*
X211306797Y-74093448D01*
X210975572Y-73919034D01*
X209554605Y-75340000D01*
X209195395Y-75340000D01*
X207774428Y-73919034D01*
X207443203Y-74093448D01*
X207237132Y-74494275D01*
X207113217Y-74927603D01*
X207076222Y-75376779D01*
X168650000Y-75376779D01*
X168650000Y-71547499D01*
X170792106Y-71547499D01*
X171008228Y-71914258D01*
X171468105Y-72154938D01*
X171966098Y-72301275D01*
X172483071Y-72347648D01*
X172999159Y-72292273D01*
X173494526Y-72137279D01*
X173911772Y-71914258D01*
X174127894Y-71547499D01*
X172460000Y-69879605D01*
X170792106Y-71547499D01*
X168650000Y-71547499D01*
X168650000Y-69723071D01*
X169812352Y-69723071D01*
X169867727Y-70239159D01*
X170022721Y-70734526D01*
X170245742Y-71151772D01*
X170612501Y-71367894D01*
X172280395Y-69700000D01*
X172639605Y-69700000D01*
X174307499Y-71367894D01*
X174674258Y-71151772D01*
X174914938Y-70691895D01*
X175061275Y-70193902D01*
X175107648Y-69676929D01*
X175052273Y-69160841D01*
X174897279Y-68665474D01*
X174674258Y-68248228D01*
X174488330Y-68138665D01*
X179370000Y-68138665D01*
X179370000Y-68421335D01*
X179425147Y-68698574D01*
X179533320Y-68959727D01*
X179690363Y-69194759D01*
X179890241Y-69394637D01*
X180125273Y-69551680D01*
X180386426Y-69659853D01*
X180663665Y-69715000D01*
X180946335Y-69715000D01*
X181223574Y-69659853D01*
X181484727Y-69551680D01*
X181719759Y-69394637D01*
X181841694Y-69272702D01*
X182761903Y-69272702D01*
X182833486Y-69516671D01*
X183088996Y-69637571D01*
X183363184Y-69706300D01*
X183645512Y-69720217D01*
X183925130Y-69678787D01*
X184191292Y-69583603D01*
X184316514Y-69516671D01*
X184388097Y-69272702D01*
X183575000Y-68459605D01*
X182761903Y-69272702D01*
X181841694Y-69272702D01*
X181919637Y-69194759D01*
X182076680Y-68959727D01*
X182184853Y-68698574D01*
X182190513Y-68670118D01*
X182271397Y-68896292D01*
X182338329Y-69021514D01*
X182582298Y-69093097D01*
X183395395Y-68280000D01*
X182582298Y-67466903D01*
X182338329Y-67538486D01*
X182217429Y-67793996D01*
X182191788Y-67896289D01*
X182184853Y-67861426D01*
X182076680Y-67600273D01*
X181919637Y-67365241D01*
X181841694Y-67287298D01*
X182761903Y-67287298D01*
X183575000Y-68100395D01*
X184388097Y-67287298D01*
X184316514Y-67043329D01*
X184061004Y-66922429D01*
X183786816Y-66853700D01*
X183504488Y-66839783D01*
X183224870Y-66881213D01*
X182958708Y-66976397D01*
X182833486Y-67043329D01*
X182761903Y-67287298D01*
X181841694Y-67287298D01*
X181719759Y-67165363D01*
X181484727Y-67008320D01*
X181223574Y-66900147D01*
X180946335Y-66845000D01*
X180663665Y-66845000D01*
X180386426Y-66900147D01*
X180125273Y-67008320D01*
X179890241Y-67165363D01*
X179690363Y-67365241D01*
X179533320Y-67600273D01*
X179425147Y-67861426D01*
X179370000Y-68138665D01*
X174488330Y-68138665D01*
X174307499Y-68032106D01*
X172639605Y-69700000D01*
X172280395Y-69700000D01*
X170612501Y-68032106D01*
X170245742Y-68248228D01*
X170005062Y-68708105D01*
X169858725Y-69206098D01*
X169812352Y-69723071D01*
X168650000Y-69723071D01*
X168650000Y-68998355D01*
X169795854Y-67852501D01*
X170792106Y-67852501D01*
X172460000Y-69520395D01*
X174127894Y-67852501D01*
X173911772Y-67485742D01*
X173451895Y-67245062D01*
X172953902Y-67098725D01*
X172436929Y-67052352D01*
X171920841Y-67107727D01*
X171425474Y-67262721D01*
X171008228Y-67485742D01*
X170792106Y-67852501D01*
X169795854Y-67852501D01*
X171673357Y-65974999D01*
X185381644Y-65974999D01*
X186251645Y-66845000D01*
X186203665Y-66845000D01*
X185926426Y-66900147D01*
X185665273Y-67008320D01*
X185430241Y-67165363D01*
X185230363Y-67365241D01*
X185073320Y-67600273D01*
X184965147Y-67861426D01*
X184959487Y-67889882D01*
X184878603Y-67663708D01*
X184811671Y-67538486D01*
X184567702Y-67466903D01*
X183754605Y-68280000D01*
X184567702Y-69093097D01*
X184811671Y-69021514D01*
X184932571Y-68766004D01*
X184958212Y-68663711D01*
X184965147Y-68698574D01*
X185073320Y-68959727D01*
X185230363Y-69194759D01*
X185430241Y-69394637D01*
X185665273Y-69551680D01*
X185926426Y-69659853D01*
X186203665Y-69715000D01*
X186486335Y-69715000D01*
X186763574Y-69659853D01*
X187024727Y-69551680D01*
X187259759Y-69394637D01*
X187459637Y-69194759D01*
X187616680Y-68959727D01*
X187724853Y-68698574D01*
X187730000Y-68672699D01*
X187735147Y-68698574D01*
X187843320Y-68959727D01*
X188000363Y-69194759D01*
X188200241Y-69394637D01*
X188435273Y-69551680D01*
X188696426Y-69659853D01*
X188973665Y-69715000D01*
X189121644Y-69715000D01*
X189165742Y-69759098D01*
X189197366Y-69797632D01*
X189266459Y-69854335D01*
X189248815Y-69868815D01*
X189169463Y-69965506D01*
X189110498Y-70075820D01*
X189074188Y-70195518D01*
X189061928Y-70320000D01*
X189061928Y-70585725D01*
X189001680Y-70440273D01*
X188844637Y-70205241D01*
X188644759Y-70005363D01*
X188409727Y-69848320D01*
X188148574Y-69740147D01*
X187871335Y-69685000D01*
X187588665Y-69685000D01*
X187311426Y-69740147D01*
X187050273Y-69848320D01*
X186815241Y-70005363D01*
X186615363Y-70205241D01*
X186458320Y-70440273D01*
X186350147Y-70701426D01*
X186345000Y-70727301D01*
X186339853Y-70701426D01*
X186231680Y-70440273D01*
X186074637Y-70205241D01*
X185874759Y-70005363D01*
X185639727Y-69848320D01*
X185378574Y-69740147D01*
X185101335Y-69685000D01*
X184818665Y-69685000D01*
X184541426Y-69740147D01*
X184280273Y-69848320D01*
X184045241Y-70005363D01*
X183845363Y-70205241D01*
X183688320Y-70440273D01*
X183580147Y-70701426D01*
X183575000Y-70727301D01*
X183569853Y-70701426D01*
X183461680Y-70440273D01*
X183304637Y-70205241D01*
X183104759Y-70005363D01*
X182869727Y-69848320D01*
X182608574Y-69740147D01*
X182331335Y-69685000D01*
X182048665Y-69685000D01*
X181771426Y-69740147D01*
X181510273Y-69848320D01*
X181275241Y-70005363D01*
X181075363Y-70205241D01*
X180918320Y-70440273D01*
X180810147Y-70701426D01*
X180805000Y-70727301D01*
X180799853Y-70701426D01*
X180691680Y-70440273D01*
X180534637Y-70205241D01*
X180334759Y-70005363D01*
X180099727Y-69848320D01*
X179838574Y-69740147D01*
X179561335Y-69685000D01*
X179278665Y-69685000D01*
X179001426Y-69740147D01*
X178740273Y-69848320D01*
X178505241Y-70005363D01*
X178305363Y-70205241D01*
X178148320Y-70440273D01*
X178040147Y-70701426D01*
X177985000Y-70978665D01*
X177985000Y-71261335D01*
X178040147Y-71538574D01*
X178148320Y-71799727D01*
X178305363Y-72034759D01*
X178505241Y-72234637D01*
X178740273Y-72391680D01*
X179001426Y-72499853D01*
X179278665Y-72555000D01*
X179561335Y-72555000D01*
X179838574Y-72499853D01*
X180099727Y-72391680D01*
X180334759Y-72234637D01*
X180534637Y-72034759D01*
X180691680Y-71799727D01*
X180799853Y-71538574D01*
X180805000Y-71512699D01*
X180810147Y-71538574D01*
X180918320Y-71799727D01*
X181075363Y-72034759D01*
X181275241Y-72234637D01*
X181510273Y-72391680D01*
X181771426Y-72499853D01*
X182048665Y-72555000D01*
X182331335Y-72555000D01*
X182608574Y-72499853D01*
X182869727Y-72391680D01*
X183104759Y-72234637D01*
X183304637Y-72034759D01*
X183461680Y-71799727D01*
X183569853Y-71538574D01*
X183575000Y-71512699D01*
X183580147Y-71538574D01*
X183688320Y-71799727D01*
X183845363Y-72034759D01*
X184045241Y-72234637D01*
X184280273Y-72391680D01*
X184541426Y-72499853D01*
X184818665Y-72555000D01*
X185101335Y-72555000D01*
X185378574Y-72499853D01*
X185639727Y-72391680D01*
X185874759Y-72234637D01*
X186074637Y-72034759D01*
X186231680Y-71799727D01*
X186339853Y-71538574D01*
X186345000Y-71512699D01*
X186350147Y-71538574D01*
X186458320Y-71799727D01*
X186615363Y-72034759D01*
X186815241Y-72234637D01*
X187050273Y-72391680D01*
X187311426Y-72499853D01*
X187588665Y-72555000D01*
X187871335Y-72555000D01*
X188148574Y-72499853D01*
X188409727Y-72391680D01*
X188644759Y-72234637D01*
X188844637Y-72034759D01*
X189001680Y-71799727D01*
X189061928Y-71654275D01*
X189061928Y-71920000D01*
X189074188Y-72044482D01*
X189110498Y-72164180D01*
X189169463Y-72274494D01*
X189248815Y-72371185D01*
X189345506Y-72450537D01*
X189455820Y-72509502D01*
X189575518Y-72545812D01*
X189700000Y-72558072D01*
X191300000Y-72558072D01*
X191424482Y-72545812D01*
X191544180Y-72509502D01*
X191654494Y-72450537D01*
X191751185Y-72371185D01*
X191830537Y-72274494D01*
X191889502Y-72164180D01*
X191925812Y-72044482D01*
X191938072Y-71920000D01*
X191938072Y-70320000D01*
X191925812Y-70195518D01*
X191912161Y-70150516D01*
X196735739Y-74974094D01*
X196767367Y-75012633D01*
X196921160Y-75138847D01*
X197096620Y-75232632D01*
X197287006Y-75290385D01*
X197435392Y-75305000D01*
X197435394Y-75305000D01*
X197484999Y-75309886D01*
X197534604Y-75305000D01*
X203960392Y-75305000D01*
X204010000Y-75309886D01*
X204207994Y-75290385D01*
X204207997Y-75290384D01*
X204398380Y-75232632D01*
X204573840Y-75138847D01*
X204727633Y-75012633D01*
X204759262Y-74974093D01*
X204919099Y-74814256D01*
X205993927Y-73739428D01*
X207954034Y-73739428D01*
X209375000Y-75160395D01*
X210795966Y-73739428D01*
X210621552Y-73408203D01*
X210220725Y-73202132D01*
X209787397Y-73078217D01*
X209338221Y-73041222D01*
X208890459Y-73092568D01*
X208461317Y-73230281D01*
X208128448Y-73408203D01*
X207954034Y-73739428D01*
X205993927Y-73739428D01*
X206469356Y-73264000D01*
X206506388Y-73264000D01*
X206764114Y-73212735D01*
X207006886Y-73112176D01*
X207225376Y-72966186D01*
X207411186Y-72780376D01*
X207557176Y-72561886D01*
X207657735Y-72319114D01*
X207709000Y-72061388D01*
X207709000Y-71798612D01*
X207657735Y-71540886D01*
X207557176Y-71298114D01*
X207430224Y-71108117D01*
X207525185Y-71030185D01*
X207604537Y-70933494D01*
X207663502Y-70823180D01*
X207699812Y-70703482D01*
X207712072Y-70579000D01*
X207712072Y-70180572D01*
X208764034Y-70180572D01*
X208938448Y-70511797D01*
X209339275Y-70717868D01*
X209772603Y-70841783D01*
X210221779Y-70878778D01*
X210669541Y-70827432D01*
X211098683Y-70689719D01*
X211431552Y-70511797D01*
X211605966Y-70180572D01*
X210185000Y-68759605D01*
X208764034Y-70180572D01*
X207712072Y-70180572D01*
X207712072Y-69181000D01*
X207699812Y-69056518D01*
X207663502Y-68936820D01*
X207604537Y-68826506D01*
X207525185Y-68729815D01*
X207428494Y-68650463D01*
X207365477Y-68616779D01*
X207886222Y-68616779D01*
X207937568Y-69064541D01*
X208075281Y-69493683D01*
X208253203Y-69826552D01*
X208584428Y-70000966D01*
X210005395Y-68580000D01*
X210364605Y-68580000D01*
X211785572Y-70000966D01*
X212116797Y-69826552D01*
X212322868Y-69425725D01*
X212446783Y-68992397D01*
X212483778Y-68543221D01*
X212432432Y-68095459D01*
X212294719Y-67666317D01*
X212116797Y-67333448D01*
X211785572Y-67159034D01*
X210364605Y-68580000D01*
X210005395Y-68580000D01*
X208584428Y-67159034D01*
X208253203Y-67333448D01*
X208047132Y-67734275D01*
X207923217Y-68167603D01*
X207886222Y-68616779D01*
X207365477Y-68616779D01*
X207318180Y-68591498D01*
X207198482Y-68555188D01*
X207074000Y-68542928D01*
X206811933Y-68542928D01*
X207006886Y-68462176D01*
X207225376Y-68316186D01*
X207411186Y-68130376D01*
X207557176Y-67911886D01*
X207657735Y-67669114D01*
X207709000Y-67411388D01*
X207709000Y-67148612D01*
X207675348Y-66979428D01*
X208764034Y-66979428D01*
X210185000Y-68400395D01*
X211605966Y-66979428D01*
X211431552Y-66648203D01*
X211030725Y-66442132D01*
X210597397Y-66318217D01*
X210148221Y-66281222D01*
X209700459Y-66332568D01*
X209271317Y-66470281D01*
X208938448Y-66648203D01*
X208764034Y-66979428D01*
X207675348Y-66979428D01*
X207657735Y-66890886D01*
X207557176Y-66648114D01*
X207411186Y-66429624D01*
X207225376Y-66243814D01*
X207111577Y-66167776D01*
X207115950Y-66150555D01*
X206375000Y-65409605D01*
X205634050Y-66150555D01*
X205638423Y-66167776D01*
X205524624Y-66243814D01*
X205338814Y-66429624D01*
X205192824Y-66648114D01*
X205092265Y-66890886D01*
X205041000Y-67148612D01*
X205041000Y-67411388D01*
X205092265Y-67669114D01*
X205192824Y-67911886D01*
X205338814Y-68130376D01*
X205524624Y-68316186D01*
X205743114Y-68462176D01*
X205938067Y-68542928D01*
X205676000Y-68542928D01*
X205551518Y-68555188D01*
X205431820Y-68591498D01*
X205321506Y-68650463D01*
X205224815Y-68729815D01*
X205145463Y-68826506D01*
X205086498Y-68936820D01*
X205050188Y-69056518D01*
X205037928Y-69181000D01*
X205037928Y-70579000D01*
X205050188Y-70703482D01*
X205086498Y-70823180D01*
X205145463Y-70933494D01*
X205224815Y-71030185D01*
X205319776Y-71108117D01*
X205192824Y-71298114D01*
X205130000Y-71449785D01*
X205067176Y-71298114D01*
X204921186Y-71079624D01*
X204735376Y-70893814D01*
X204516886Y-70747824D01*
X204274114Y-70647265D01*
X204016388Y-70596000D01*
X203753612Y-70596000D01*
X203495886Y-70647265D01*
X203253114Y-70747824D01*
X203034624Y-70893814D01*
X202848814Y-71079624D01*
X202702824Y-71298114D01*
X202602265Y-71540886D01*
X202551000Y-71798612D01*
X202551000Y-72061388D01*
X202602265Y-72319114D01*
X202702824Y-72561886D01*
X202848814Y-72780376D01*
X203034624Y-72966186D01*
X203253114Y-73112176D01*
X203495886Y-73212735D01*
X203636033Y-73240612D01*
X203591645Y-73285000D01*
X197903355Y-73285000D01*
X196900293Y-72281938D01*
X196966098Y-72301275D01*
X197483071Y-72347648D01*
X197999159Y-72292273D01*
X198494526Y-72137279D01*
X198911772Y-71914258D01*
X199127894Y-71547499D01*
X197460000Y-69879605D01*
X197445858Y-69893748D01*
X197266253Y-69714143D01*
X197280395Y-69700000D01*
X197639605Y-69700000D01*
X199307499Y-71367894D01*
X199674258Y-71151772D01*
X199914938Y-70691895D01*
X200061275Y-70193902D01*
X200107648Y-69676929D01*
X200052273Y-69160841D01*
X199897279Y-68665474D01*
X199674258Y-68248228D01*
X199307499Y-68032106D01*
X197639605Y-69700000D01*
X197280395Y-69700000D01*
X195612501Y-68032106D01*
X195245742Y-68248228D01*
X195005062Y-68708105D01*
X194858725Y-69206098D01*
X194812352Y-69723071D01*
X194867727Y-70239159D01*
X194872378Y-70254023D01*
X193019260Y-68400905D01*
X192987632Y-68362366D01*
X192833839Y-68236152D01*
X192658379Y-68142367D01*
X192467993Y-68084614D01*
X192319607Y-68069999D01*
X192269999Y-68065113D01*
X192220391Y-68069999D01*
X190536341Y-68069999D01*
X190494853Y-67861426D01*
X190491157Y-67852501D01*
X195792106Y-67852501D01*
X197460000Y-69520395D01*
X199127894Y-67852501D01*
X198911772Y-67485742D01*
X198451895Y-67245062D01*
X197953902Y-67098725D01*
X197436929Y-67052352D01*
X196920841Y-67107727D01*
X196425474Y-67262721D01*
X196008228Y-67485742D01*
X195792106Y-67852501D01*
X190491157Y-67852501D01*
X190386680Y-67600273D01*
X190229637Y-67365241D01*
X190029759Y-67165363D01*
X189794727Y-67008320D01*
X189533574Y-66900147D01*
X189256335Y-66845000D01*
X189108355Y-66845000D01*
X187361967Y-65098612D01*
X202551000Y-65098612D01*
X202551000Y-65361388D01*
X202602265Y-65619114D01*
X202702824Y-65861886D01*
X202848814Y-66080376D01*
X203034624Y-66266186D01*
X203253114Y-66412176D01*
X203495886Y-66512735D01*
X203753612Y-66564000D01*
X204016388Y-66564000D01*
X204274114Y-66512735D01*
X204516886Y-66412176D01*
X204735376Y-66266186D01*
X204921186Y-66080376D01*
X205067176Y-65861886D01*
X205130106Y-65709960D01*
X205167010Y-65811017D01*
X205220779Y-65911611D01*
X205454445Y-65970950D01*
X206195395Y-65230000D01*
X206554605Y-65230000D01*
X207295555Y-65970950D01*
X207529221Y-65911611D01*
X207640018Y-65673336D01*
X207702202Y-65418025D01*
X207713382Y-65155488D01*
X207673129Y-64895814D01*
X207582990Y-64648983D01*
X207529221Y-64548389D01*
X207295555Y-64489050D01*
X206554605Y-65230000D01*
X206195395Y-65230000D01*
X205454445Y-64489050D01*
X205220779Y-64548389D01*
X205128648Y-64746521D01*
X205067176Y-64598114D01*
X204921186Y-64379624D01*
X204851007Y-64309445D01*
X205634050Y-64309445D01*
X206375000Y-65050395D01*
X207115950Y-64309445D01*
X207056611Y-64075779D01*
X206818336Y-63964982D01*
X206563025Y-63902798D01*
X206300488Y-63891618D01*
X206040814Y-63931871D01*
X205793983Y-64022010D01*
X205693389Y-64075779D01*
X205634050Y-64309445D01*
X204851007Y-64309445D01*
X204735376Y-64193814D01*
X204516886Y-64047824D01*
X204274114Y-63947265D01*
X204016388Y-63896000D01*
X203753612Y-63896000D01*
X203495886Y-63947265D01*
X203253114Y-64047824D01*
X203034624Y-64193814D01*
X202848814Y-64379624D01*
X202702824Y-64598114D01*
X202602265Y-64840886D01*
X202551000Y-65098612D01*
X187361967Y-65098612D01*
X186549260Y-64285905D01*
X186517632Y-64247366D01*
X186363839Y-64121152D01*
X186188379Y-64027367D01*
X185997993Y-63969614D01*
X185849607Y-63954999D01*
X185799999Y-63950113D01*
X185750391Y-63954999D01*
X171304605Y-63954999D01*
X171255000Y-63950113D01*
X171205395Y-63954999D01*
X171205393Y-63954999D01*
X171057007Y-63969614D01*
X170866621Y-64027367D01*
X170691161Y-64121152D01*
X170537368Y-64247366D01*
X170505745Y-64285899D01*
X166960901Y-67830744D01*
X166922368Y-67862367D01*
X166890745Y-67900900D01*
X166890744Y-67900901D01*
X166796154Y-68016160D01*
X166702368Y-68191621D01*
X166644615Y-68382006D01*
X166625114Y-68580000D01*
X165760000Y-68580000D01*
X165760000Y-63420572D01*
X207954034Y-63420572D01*
X208128448Y-63751797D01*
X208529275Y-63957868D01*
X208962603Y-64081783D01*
X209411779Y-64118778D01*
X209859541Y-64067432D01*
X210288683Y-63929719D01*
X210621552Y-63751797D01*
X210795966Y-63420572D01*
X209375000Y-61999605D01*
X207954034Y-63420572D01*
X165760000Y-63420572D01*
X165760000Y-61856779D01*
X207076222Y-61856779D01*
X207127568Y-62304541D01*
X207265281Y-62733683D01*
X207443203Y-63066552D01*
X207774428Y-63240966D01*
X209195395Y-61820000D01*
X209554605Y-61820000D01*
X210975572Y-63240966D01*
X211306797Y-63066552D01*
X211512868Y-62665725D01*
X211636783Y-62232397D01*
X211673778Y-61783221D01*
X211622432Y-61335459D01*
X211484719Y-60906317D01*
X211306797Y-60573448D01*
X210975572Y-60399034D01*
X209554605Y-61820000D01*
X209195395Y-61820000D01*
X207774428Y-60399034D01*
X207443203Y-60573448D01*
X207237132Y-60974275D01*
X207113217Y-61407603D01*
X207076222Y-61856779D01*
X165760000Y-61856779D01*
X165760000Y-60219428D01*
X207954034Y-60219428D01*
X209375000Y-61640395D01*
X210795966Y-60219428D01*
X210621552Y-59888203D01*
X210220725Y-59682132D01*
X209787397Y-59558217D01*
X209338221Y-59521222D01*
X208890459Y-59572568D01*
X208461317Y-59710281D01*
X208128448Y-59888203D01*
X207954034Y-60219428D01*
X165760000Y-60219428D01*
X165760000Y-59080000D01*
X212700001Y-59080000D01*
X212700000Y-141580000D01*
X212700000Y-141580000D01*
G37*
X212700000Y-141580000D02*
X165760000Y-141580000D01*
X165760000Y-68580000D01*
X166625114Y-68580000D01*
X166630001Y-68629618D01*
X166630000Y-86310392D01*
X166625114Y-86360000D01*
X166630001Y-86409618D01*
X166630000Y-94029607D01*
X166630001Y-94029617D01*
X166630000Y-121870392D01*
X166625114Y-121920000D01*
X166630001Y-121969618D01*
X166630000Y-133300392D01*
X166625114Y-133350000D01*
X166644615Y-133547994D01*
X166665448Y-133616671D01*
X166702368Y-133738379D01*
X166796153Y-133913840D01*
X166922367Y-134067633D01*
X166960906Y-134099261D01*
X173875744Y-141014100D01*
X173907367Y-141052633D01*
X174061160Y-141178847D01*
X174236620Y-141272632D01*
X174427005Y-141330385D01*
X174625000Y-141349886D01*
X174674608Y-141345000D01*
X208865392Y-141345000D01*
X208915000Y-141349886D01*
X209112994Y-141330385D01*
X209303380Y-141272632D01*
X209478840Y-141178847D01*
X209632633Y-141052633D01*
X209664261Y-141014094D01*
X211499100Y-139179256D01*
X211537633Y-139147633D01*
X211663847Y-138993840D01*
X211757632Y-138818380D01*
X211815385Y-138627995D01*
X211834886Y-138430000D01*
X211830000Y-138380392D01*
X211830000Y-135939608D01*
X211834886Y-135890000D01*
X211830000Y-135840392D01*
X211830000Y-126210606D01*
X211834886Y-126160998D01*
X211815385Y-125963003D01*
X211757632Y-125772618D01*
X211696817Y-125658841D01*
X211663847Y-125597158D01*
X211537633Y-125443365D01*
X211499100Y-125411742D01*
X209713262Y-123625905D01*
X209681634Y-123587366D01*
X209527841Y-123461152D01*
X209352381Y-123367367D01*
X209161995Y-123309614D01*
X209013609Y-123294999D01*
X208964001Y-123290113D01*
X208914393Y-123294999D01*
X207273354Y-123294999D01*
X206152047Y-122173692D01*
X206199352Y-122164282D01*
X206485948Y-122045570D01*
X206743877Y-121873227D01*
X206874628Y-121742476D01*
X207367129Y-121742476D01*
X207455623Y-122000723D01*
X207734976Y-122135597D01*
X208035275Y-122213381D01*
X208344977Y-122231084D01*
X208652184Y-122188027D01*
X208945086Y-122085865D01*
X209104377Y-122000723D01*
X209192871Y-121742476D01*
X208280000Y-120829605D01*
X207367129Y-121742476D01*
X206874628Y-121742476D01*
X206963227Y-121653877D01*
X207054495Y-121517286D01*
X207187524Y-121562871D01*
X208100395Y-120650000D01*
X208459605Y-120650000D01*
X209372476Y-121562871D01*
X209505505Y-121517286D01*
X209596773Y-121653877D01*
X209816123Y-121873227D01*
X210074052Y-122045570D01*
X210360648Y-122164282D01*
X210664896Y-122224800D01*
X210975104Y-122224800D01*
X211279352Y-122164282D01*
X211565948Y-122045570D01*
X211823877Y-121873227D01*
X212043227Y-121653877D01*
X212215570Y-121395948D01*
X212334282Y-121109352D01*
X212394800Y-120805104D01*
X212394800Y-120494896D01*
X212334282Y-120190648D01*
X212215570Y-119904052D01*
X212043227Y-119646123D01*
X211823877Y-119426773D01*
X211565948Y-119254430D01*
X211279352Y-119135718D01*
X210975104Y-119075200D01*
X210664896Y-119075200D01*
X210360648Y-119135718D01*
X210074052Y-119254430D01*
X209816123Y-119426773D01*
X209596773Y-119646123D01*
X209505505Y-119782714D01*
X209372476Y-119737129D01*
X208459605Y-120650000D01*
X208100395Y-120650000D01*
X207187524Y-119737129D01*
X207054495Y-119782714D01*
X206963227Y-119646123D01*
X206874628Y-119557524D01*
X207367129Y-119557524D01*
X208280000Y-120470395D01*
X209192871Y-119557524D01*
X209104377Y-119299277D01*
X208825024Y-119164403D01*
X208524725Y-119086619D01*
X208215023Y-119068916D01*
X207907816Y-119111973D01*
X207614914Y-119214135D01*
X207455623Y-119299277D01*
X207367129Y-119557524D01*
X206874628Y-119557524D01*
X206743877Y-119426773D01*
X206485948Y-119254430D01*
X206199352Y-119135718D01*
X205895104Y-119075200D01*
X205584896Y-119075200D01*
X205280648Y-119135718D01*
X204994052Y-119254430D01*
X204736123Y-119426773D01*
X204516773Y-119646123D01*
X204470000Y-119716124D01*
X204423227Y-119646123D01*
X204203877Y-119426773D01*
X203945948Y-119254430D01*
X203659352Y-119135718D01*
X203355104Y-119075200D01*
X203044896Y-119075200D01*
X202740648Y-119135718D01*
X202454052Y-119254430D01*
X202196123Y-119426773D01*
X201976773Y-119646123D01*
X201930000Y-119716124D01*
X201883227Y-119646123D01*
X201663877Y-119426773D01*
X201405948Y-119254430D01*
X201119352Y-119135718D01*
X200815104Y-119075200D01*
X200504896Y-119075200D01*
X200200648Y-119135718D01*
X199914052Y-119254430D01*
X199656123Y-119426773D01*
X199436773Y-119646123D01*
X199390000Y-119716124D01*
X199343227Y-119646123D01*
X199123877Y-119426773D01*
X198865948Y-119254430D01*
X198579352Y-119135718D01*
X198275104Y-119075200D01*
X197964896Y-119075200D01*
X197660648Y-119135718D01*
X197374052Y-119254430D01*
X197116123Y-119426773D01*
X196896773Y-119646123D01*
X196850000Y-119716124D01*
X196803227Y-119646123D01*
X196583877Y-119426773D01*
X196325948Y-119254430D01*
X196039352Y-119135718D01*
X195735104Y-119075200D01*
X195424896Y-119075200D01*
X195120648Y-119135718D01*
X194834052Y-119254430D01*
X194576123Y-119426773D01*
X194356773Y-119646123D01*
X194310000Y-119716124D01*
X194263227Y-119646123D01*
X194043877Y-119426773D01*
X193785948Y-119254430D01*
X193499352Y-119135718D01*
X193195104Y-119075200D01*
X192884896Y-119075200D01*
X192580648Y-119135718D01*
X192294052Y-119254430D01*
X192036123Y-119426773D01*
X191816773Y-119646123D01*
X191770000Y-119716124D01*
X191723227Y-119646123D01*
X191503877Y-119426773D01*
X191385000Y-119347342D01*
X191385000Y-115613466D01*
X191389281Y-115569999D01*
X191385000Y-115526533D01*
X191385000Y-115526523D01*
X191372195Y-115396510D01*
X191321589Y-115229687D01*
X191239411Y-115075941D01*
X191128817Y-114941183D01*
X191095051Y-114913472D01*
X183144599Y-106963020D01*
X183339352Y-106924282D01*
X183625948Y-106805570D01*
X183883877Y-106633227D01*
X184103227Y-106413877D01*
X184150000Y-106343876D01*
X184196773Y-106413877D01*
X184416123Y-106633227D01*
X184674052Y-106805570D01*
X184960648Y-106924282D01*
X185264896Y-106984800D01*
X185575104Y-106984800D01*
X185879352Y-106924282D01*
X186165948Y-106805570D01*
X186423877Y-106633227D01*
X186643227Y-106413877D01*
X186690000Y-106343876D01*
X186736773Y-106413877D01*
X186956123Y-106633227D01*
X187214052Y-106805570D01*
X187500648Y-106924282D01*
X187804896Y-106984800D01*
X188115104Y-106984800D01*
X188419352Y-106924282D01*
X188705948Y-106805570D01*
X188963877Y-106633227D01*
X189183227Y-106413877D01*
X189230000Y-106343876D01*
X189276773Y-106413877D01*
X189496123Y-106633227D01*
X189754052Y-106805570D01*
X190040648Y-106924282D01*
X190344896Y-106984800D01*
X190655104Y-106984800D01*
X190959352Y-106924282D01*
X191245948Y-106805570D01*
X191503877Y-106633227D01*
X191723227Y-106413877D01*
X191770000Y-106343876D01*
X191816773Y-106413877D01*
X192036123Y-106633227D01*
X192294052Y-106805570D01*
X192580648Y-106924282D01*
X192884896Y-106984800D01*
X193195104Y-106984800D01*
X193499352Y-106924282D01*
X193785948Y-106805570D01*
X194043877Y-106633227D01*
X194263227Y-106413877D01*
X194310000Y-106343876D01*
X194356773Y-106413877D01*
X194576123Y-106633227D01*
X194834052Y-106805570D01*
X195120648Y-106924282D01*
X195424896Y-106984800D01*
X195735104Y-106984800D01*
X196039352Y-106924282D01*
X196325948Y-106805570D01*
X196583877Y-106633227D01*
X196803227Y-106413877D01*
X196850000Y-106343876D01*
X196896773Y-106413877D01*
X197116123Y-106633227D01*
X197374052Y-106805570D01*
X197660648Y-106924282D01*
X197964896Y-106984800D01*
X198275104Y-106984800D01*
X198579352Y-106924282D01*
X198865948Y-106805570D01*
X199123877Y-106633227D01*
X199343227Y-106413877D01*
X199390000Y-106343876D01*
X199436773Y-106413877D01*
X199656123Y-106633227D01*
X199914052Y-106805570D01*
X200200648Y-106924282D01*
X200504896Y-106984800D01*
X200815104Y-106984800D01*
X201119352Y-106924282D01*
X201405948Y-106805570D01*
X201663877Y-106633227D01*
X201794628Y-106502476D01*
X202287129Y-106502476D01*
X202375623Y-106760723D01*
X202654976Y-106895597D01*
X202955275Y-106973381D01*
X203264977Y-106991084D01*
X203572184Y-106948027D01*
X203865086Y-106845865D01*
X204024377Y-106760723D01*
X204112871Y-106502476D01*
X204827129Y-106502476D01*
X204915623Y-106760723D01*
X205194976Y-106895597D01*
X205495275Y-106973381D01*
X205804977Y-106991084D01*
X206112184Y-106948027D01*
X206405086Y-106845865D01*
X206564377Y-106760723D01*
X206652871Y-106502476D01*
X205740000Y-105589605D01*
X204827129Y-106502476D01*
X204112871Y-106502476D01*
X203200000Y-105589605D01*
X202287129Y-106502476D01*
X201794628Y-106502476D01*
X201883227Y-106413877D01*
X201974495Y-106277286D01*
X202107524Y-106322871D01*
X203020395Y-105410000D01*
X203379605Y-105410000D01*
X204292476Y-106322871D01*
X204470000Y-106262039D01*
X204647524Y-106322871D01*
X205560395Y-105410000D01*
X205919605Y-105410000D01*
X206832476Y-106322871D01*
X206965505Y-106277286D01*
X207056773Y-106413877D01*
X207276123Y-106633227D01*
X207534052Y-106805570D01*
X207820648Y-106924282D01*
X208124896Y-106984800D01*
X208435104Y-106984800D01*
X208739352Y-106924282D01*
X209025948Y-106805570D01*
X209283877Y-106633227D01*
X209503227Y-106413877D01*
X209550000Y-106343876D01*
X209596773Y-106413877D01*
X209816123Y-106633227D01*
X210074052Y-106805570D01*
X210360648Y-106924282D01*
X210664896Y-106984800D01*
X210975104Y-106984800D01*
X211279352Y-106924282D01*
X211565948Y-106805570D01*
X211823877Y-106633227D01*
X212043227Y-106413877D01*
X212215570Y-106155948D01*
X212334282Y-105869352D01*
X212394800Y-105565104D01*
X212394800Y-105254896D01*
X212334282Y-104950648D01*
X212215570Y-104664052D01*
X212043227Y-104406123D01*
X211823877Y-104186773D01*
X211565948Y-104014430D01*
X211279352Y-103895718D01*
X210975104Y-103835200D01*
X210664896Y-103835200D01*
X210360648Y-103895718D01*
X210074052Y-104014430D01*
X209816123Y-104186773D01*
X209596773Y-104406123D01*
X209550000Y-104476124D01*
X209503227Y-104406123D01*
X209283877Y-104186773D01*
X209025948Y-104014430D01*
X208739352Y-103895718D01*
X208435104Y-103835200D01*
X208124896Y-103835200D01*
X207820648Y-103895718D01*
X207534052Y-104014430D01*
X207276123Y-104186773D01*
X207056773Y-104406123D01*
X206965505Y-104542714D01*
X206832476Y-104497129D01*
X205919605Y-105410000D01*
X205560395Y-105410000D01*
X204647524Y-104497129D01*
X204470000Y-104557961D01*
X204292476Y-104497129D01*
X203379605Y-105410000D01*
X203020395Y-105410000D01*
X202107524Y-104497129D01*
X201974495Y-104542714D01*
X201883227Y-104406123D01*
X201794628Y-104317524D01*
X202287129Y-104317524D01*
X203200000Y-105230395D01*
X204112871Y-104317524D01*
X204827129Y-104317524D01*
X205740000Y-105230395D01*
X206652871Y-104317524D01*
X206564377Y-104059277D01*
X206285024Y-103924403D01*
X205984725Y-103846619D01*
X205675023Y-103828916D01*
X205367816Y-103871973D01*
X205074914Y-103974135D01*
X204915623Y-104059277D01*
X204827129Y-104317524D01*
X204112871Y-104317524D01*
X204024377Y-104059277D01*
X203745024Y-103924403D01*
X203444725Y-103846619D01*
X203135023Y-103828916D01*
X202827816Y-103871973D01*
X202534914Y-103974135D01*
X202375623Y-104059277D01*
X202287129Y-104317524D01*
X201794628Y-104317524D01*
X201663877Y-104186773D01*
X201545000Y-104107342D01*
X201545000Y-100373469D01*
X201549281Y-100330000D01*
X201545000Y-100286531D01*
X201545000Y-100286523D01*
X201532195Y-100156510D01*
X201507687Y-100075719D01*
X201481589Y-99989686D01*
X201399411Y-99835941D01*
X201316532Y-99734953D01*
X201316530Y-99734951D01*
X201288817Y-99701183D01*
X201255050Y-99673471D01*
X197506534Y-95924956D01*
X197478817Y-95891183D01*
X197344059Y-95780589D01*
X197190313Y-95698411D01*
X197023490Y-95647805D01*
X196893477Y-95635000D01*
X196893469Y-95635000D01*
X196850000Y-95630719D01*
X196806531Y-95635000D01*
X178994759Y-95635000D01*
X178855134Y-95464866D01*
X178629014Y-95279294D01*
X178574209Y-95250000D01*
X178629014Y-95220706D01*
X178855134Y-95035134D01*
X179040706Y-94809014D01*
X179178599Y-94551034D01*
X179263513Y-94271111D01*
X179292185Y-93980000D01*
X179263513Y-93688889D01*
X179178599Y-93408966D01*
X179040706Y-93150986D01*
X178855134Y-92924866D01*
X178629014Y-92739294D01*
X178574209Y-92710000D01*
X178629014Y-92680706D01*
X178855134Y-92495134D01*
X179040706Y-92269014D01*
X179178599Y-92011034D01*
X179263513Y-91731111D01*
X179292185Y-91440000D01*
X179263513Y-91148889D01*
X179178599Y-90868966D01*
X179040706Y-90610986D01*
X178855134Y-90384866D01*
X178629014Y-90199294D01*
X178574209Y-90170000D01*
X178629014Y-90140706D01*
X178855134Y-89955134D01*
X179040706Y-89729014D01*
X179178599Y-89471034D01*
X179263513Y-89191111D01*
X179292185Y-88900000D01*
X179263513Y-88608889D01*
X179178599Y-88328966D01*
X179040706Y-88070986D01*
X178855134Y-87844866D01*
X178629014Y-87659294D01*
X178574209Y-87630000D01*
X178629014Y-87600706D01*
X178855134Y-87415134D01*
X179040706Y-87189014D01*
X179178599Y-86931034D01*
X179263513Y-86651111D01*
X179292185Y-86360000D01*
X179263513Y-86068889D01*
X179178599Y-85788966D01*
X179040706Y-85530986D01*
X178855134Y-85304866D01*
X178825313Y-85280393D01*
X178894180Y-85259502D01*
X179004494Y-85200537D01*
X179101185Y-85121185D01*
X179180537Y-85024494D01*
X179239502Y-84914180D01*
X179275812Y-84794482D01*
X179288072Y-84670000D01*
X179285000Y-84105750D01*
X179126250Y-83947000D01*
X177927000Y-83947000D01*
X177927000Y-83967000D01*
X177673000Y-83967000D01*
X177673000Y-83947000D01*
X176473750Y-83947000D01*
X176315000Y-84105750D01*
X176311928Y-84670000D01*
X176324188Y-84794482D01*
X176360498Y-84914180D01*
X176419463Y-85024494D01*
X176498815Y-85121185D01*
X176595506Y-85200537D01*
X176705820Y-85259502D01*
X176774687Y-85280393D01*
X176744866Y-85304866D01*
X176707825Y-85350000D01*
X168650000Y-85350000D01*
X168650000Y-82970000D01*
X176311928Y-82970000D01*
X176315000Y-83534250D01*
X176473750Y-83693000D01*
X177673000Y-83693000D01*
X177673000Y-82493750D01*
X177927000Y-82493750D01*
X177927000Y-83693000D01*
X179126250Y-83693000D01*
X179285000Y-83534250D01*
X179288072Y-82970000D01*
X179275812Y-82845518D01*
X179239502Y-82725820D01*
X179180537Y-82615506D01*
X179101185Y-82518815D01*
X179004494Y-82439463D01*
X178894180Y-82380498D01*
X178774482Y-82344188D01*
X178650000Y-82331928D01*
X178085750Y-82335000D01*
X177927000Y-82493750D01*
X177673000Y-82493750D01*
X177514250Y-82335000D01*
X176950000Y-82331928D01*
X176825518Y-82344188D01*
X176705820Y-82380498D01*
X176595506Y-82439463D01*
X176498815Y-82518815D01*
X176419463Y-82615506D01*
X176360498Y-82725820D01*
X176324188Y-82845518D01*
X176311928Y-82970000D01*
X168650000Y-82970000D01*
X168650000Y-76940572D01*
X207954034Y-76940572D01*
X208128448Y-77271797D01*
X208529275Y-77477868D01*
X208962603Y-77601783D01*
X209411779Y-77638778D01*
X209859541Y-77587432D01*
X210288683Y-77449719D01*
X210621552Y-77271797D01*
X210795966Y-76940572D01*
X209375000Y-75519605D01*
X207954034Y-76940572D01*
X168650000Y-76940572D01*
X168650000Y-75376779D01*
X207076222Y-75376779D01*
X207127568Y-75824541D01*
X207265281Y-76253683D01*
X207443203Y-76586552D01*
X207774428Y-76760966D01*
X209195395Y-75340000D01*
X209554605Y-75340000D01*
X210975572Y-76760966D01*
X211306797Y-76586552D01*
X211512868Y-76185725D01*
X211636783Y-75752397D01*
X211673778Y-75303221D01*
X211622432Y-74855459D01*
X211484719Y-74426317D01*
X211306797Y-74093448D01*
X210975572Y-73919034D01*
X209554605Y-75340000D01*
X209195395Y-75340000D01*
X207774428Y-73919034D01*
X207443203Y-74093448D01*
X207237132Y-74494275D01*
X207113217Y-74927603D01*
X207076222Y-75376779D01*
X168650000Y-75376779D01*
X168650000Y-71547499D01*
X170792106Y-71547499D01*
X171008228Y-71914258D01*
X171468105Y-72154938D01*
X171966098Y-72301275D01*
X172483071Y-72347648D01*
X172999159Y-72292273D01*
X173494526Y-72137279D01*
X173911772Y-71914258D01*
X174127894Y-71547499D01*
X172460000Y-69879605D01*
X170792106Y-71547499D01*
X168650000Y-71547499D01*
X168650000Y-69723071D01*
X169812352Y-69723071D01*
X169867727Y-70239159D01*
X170022721Y-70734526D01*
X170245742Y-71151772D01*
X170612501Y-71367894D01*
X172280395Y-69700000D01*
X172639605Y-69700000D01*
X174307499Y-71367894D01*
X174674258Y-71151772D01*
X174914938Y-70691895D01*
X175061275Y-70193902D01*
X175107648Y-69676929D01*
X175052273Y-69160841D01*
X174897279Y-68665474D01*
X174674258Y-68248228D01*
X174488330Y-68138665D01*
X179370000Y-68138665D01*
X179370000Y-68421335D01*
X179425147Y-68698574D01*
X179533320Y-68959727D01*
X179690363Y-69194759D01*
X179890241Y-69394637D01*
X180125273Y-69551680D01*
X180386426Y-69659853D01*
X180663665Y-69715000D01*
X180946335Y-69715000D01*
X181223574Y-69659853D01*
X181484727Y-69551680D01*
X181719759Y-69394637D01*
X181841694Y-69272702D01*
X182761903Y-69272702D01*
X182833486Y-69516671D01*
X183088996Y-69637571D01*
X183363184Y-69706300D01*
X183645512Y-69720217D01*
X183925130Y-69678787D01*
X184191292Y-69583603D01*
X184316514Y-69516671D01*
X184388097Y-69272702D01*
X183575000Y-68459605D01*
X182761903Y-69272702D01*
X181841694Y-69272702D01*
X181919637Y-69194759D01*
X182076680Y-68959727D01*
X182184853Y-68698574D01*
X182190513Y-68670118D01*
X182271397Y-68896292D01*
X182338329Y-69021514D01*
X182582298Y-69093097D01*
X183395395Y-68280000D01*
X182582298Y-67466903D01*
X182338329Y-67538486D01*
X182217429Y-67793996D01*
X182191788Y-67896289D01*
X182184853Y-67861426D01*
X182076680Y-67600273D01*
X181919637Y-67365241D01*
X181841694Y-67287298D01*
X182761903Y-67287298D01*
X183575000Y-68100395D01*
X184388097Y-67287298D01*
X184316514Y-67043329D01*
X184061004Y-66922429D01*
X183786816Y-66853700D01*
X183504488Y-66839783D01*
X183224870Y-66881213D01*
X182958708Y-66976397D01*
X182833486Y-67043329D01*
X182761903Y-67287298D01*
X181841694Y-67287298D01*
X181719759Y-67165363D01*
X181484727Y-67008320D01*
X181223574Y-66900147D01*
X180946335Y-66845000D01*
X180663665Y-66845000D01*
X180386426Y-66900147D01*
X180125273Y-67008320D01*
X179890241Y-67165363D01*
X179690363Y-67365241D01*
X179533320Y-67600273D01*
X179425147Y-67861426D01*
X179370000Y-68138665D01*
X174488330Y-68138665D01*
X174307499Y-68032106D01*
X172639605Y-69700000D01*
X172280395Y-69700000D01*
X170612501Y-68032106D01*
X170245742Y-68248228D01*
X170005062Y-68708105D01*
X169858725Y-69206098D01*
X169812352Y-69723071D01*
X168650000Y-69723071D01*
X168650000Y-68998355D01*
X169795854Y-67852501D01*
X170792106Y-67852501D01*
X172460000Y-69520395D01*
X174127894Y-67852501D01*
X173911772Y-67485742D01*
X173451895Y-67245062D01*
X172953902Y-67098725D01*
X172436929Y-67052352D01*
X171920841Y-67107727D01*
X171425474Y-67262721D01*
X171008228Y-67485742D01*
X170792106Y-67852501D01*
X169795854Y-67852501D01*
X171673357Y-65974999D01*
X185381644Y-65974999D01*
X186251645Y-66845000D01*
X186203665Y-66845000D01*
X185926426Y-66900147D01*
X185665273Y-67008320D01*
X185430241Y-67165363D01*
X185230363Y-67365241D01*
X185073320Y-67600273D01*
X184965147Y-67861426D01*
X184959487Y-67889882D01*
X184878603Y-67663708D01*
X184811671Y-67538486D01*
X184567702Y-67466903D01*
X183754605Y-68280000D01*
X184567702Y-69093097D01*
X184811671Y-69021514D01*
X184932571Y-68766004D01*
X184958212Y-68663711D01*
X184965147Y-68698574D01*
X185073320Y-68959727D01*
X185230363Y-69194759D01*
X185430241Y-69394637D01*
X185665273Y-69551680D01*
X185926426Y-69659853D01*
X186203665Y-69715000D01*
X186486335Y-69715000D01*
X186763574Y-69659853D01*
X187024727Y-69551680D01*
X187259759Y-69394637D01*
X187459637Y-69194759D01*
X187616680Y-68959727D01*
X187724853Y-68698574D01*
X187730000Y-68672699D01*
X187735147Y-68698574D01*
X187843320Y-68959727D01*
X188000363Y-69194759D01*
X188200241Y-69394637D01*
X188435273Y-69551680D01*
X188696426Y-69659853D01*
X188973665Y-69715000D01*
X189121644Y-69715000D01*
X189165742Y-69759098D01*
X189197366Y-69797632D01*
X189266459Y-69854335D01*
X189248815Y-69868815D01*
X189169463Y-69965506D01*
X189110498Y-70075820D01*
X189074188Y-70195518D01*
X189061928Y-70320000D01*
X189061928Y-70585725D01*
X189001680Y-70440273D01*
X188844637Y-70205241D01*
X188644759Y-70005363D01*
X188409727Y-69848320D01*
X188148574Y-69740147D01*
X187871335Y-69685000D01*
X187588665Y-69685000D01*
X187311426Y-69740147D01*
X187050273Y-69848320D01*
X186815241Y-70005363D01*
X186615363Y-70205241D01*
X186458320Y-70440273D01*
X186350147Y-70701426D01*
X186345000Y-70727301D01*
X186339853Y-70701426D01*
X186231680Y-70440273D01*
X186074637Y-70205241D01*
X185874759Y-70005363D01*
X185639727Y-69848320D01*
X185378574Y-69740147D01*
X185101335Y-69685000D01*
X184818665Y-69685000D01*
X184541426Y-69740147D01*
X184280273Y-69848320D01*
X184045241Y-70005363D01*
X183845363Y-70205241D01*
X183688320Y-70440273D01*
X183580147Y-70701426D01*
X183575000Y-70727301D01*
X183569853Y-70701426D01*
X183461680Y-70440273D01*
X183304637Y-70205241D01*
X183104759Y-70005363D01*
X182869727Y-69848320D01*
X182608574Y-69740147D01*
X182331335Y-69685000D01*
X182048665Y-69685000D01*
X181771426Y-69740147D01*
X181510273Y-69848320D01*
X181275241Y-70005363D01*
X181075363Y-70205241D01*
X180918320Y-70440273D01*
X180810147Y-70701426D01*
X180805000Y-70727301D01*
X180799853Y-70701426D01*
X180691680Y-70440273D01*
X180534637Y-70205241D01*
X180334759Y-70005363D01*
X180099727Y-69848320D01*
X179838574Y-69740147D01*
X179561335Y-69685000D01*
X179278665Y-69685000D01*
X179001426Y-69740147D01*
X178740273Y-69848320D01*
X178505241Y-70005363D01*
X178305363Y-70205241D01*
X178148320Y-70440273D01*
X178040147Y-70701426D01*
X177985000Y-70978665D01*
X177985000Y-71261335D01*
X178040147Y-71538574D01*
X178148320Y-71799727D01*
X178305363Y-72034759D01*
X178505241Y-72234637D01*
X178740273Y-72391680D01*
X179001426Y-72499853D01*
X179278665Y-72555000D01*
X179561335Y-72555000D01*
X179838574Y-72499853D01*
X180099727Y-72391680D01*
X180334759Y-72234637D01*
X180534637Y-72034759D01*
X180691680Y-71799727D01*
X180799853Y-71538574D01*
X180805000Y-71512699D01*
X180810147Y-71538574D01*
X180918320Y-71799727D01*
X181075363Y-72034759D01*
X181275241Y-72234637D01*
X181510273Y-72391680D01*
X181771426Y-72499853D01*
X182048665Y-72555000D01*
X182331335Y-72555000D01*
X182608574Y-72499853D01*
X182869727Y-72391680D01*
X183104759Y-72234637D01*
X183304637Y-72034759D01*
X183461680Y-71799727D01*
X183569853Y-71538574D01*
X183575000Y-71512699D01*
X183580147Y-71538574D01*
X183688320Y-71799727D01*
X183845363Y-72034759D01*
X184045241Y-72234637D01*
X184280273Y-72391680D01*
X184541426Y-72499853D01*
X184818665Y-72555000D01*
X185101335Y-72555000D01*
X185378574Y-72499853D01*
X185639727Y-72391680D01*
X185874759Y-72234637D01*
X186074637Y-72034759D01*
X186231680Y-71799727D01*
X186339853Y-71538574D01*
X186345000Y-71512699D01*
X186350147Y-71538574D01*
X186458320Y-71799727D01*
X186615363Y-72034759D01*
X186815241Y-72234637D01*
X187050273Y-72391680D01*
X187311426Y-72499853D01*
X187588665Y-72555000D01*
X187871335Y-72555000D01*
X188148574Y-72499853D01*
X188409727Y-72391680D01*
X188644759Y-72234637D01*
X188844637Y-72034759D01*
X189001680Y-71799727D01*
X189061928Y-71654275D01*
X189061928Y-71920000D01*
X189074188Y-72044482D01*
X189110498Y-72164180D01*
X189169463Y-72274494D01*
X189248815Y-72371185D01*
X189345506Y-72450537D01*
X189455820Y-72509502D01*
X189575518Y-72545812D01*
X189700000Y-72558072D01*
X191300000Y-72558072D01*
X191424482Y-72545812D01*
X191544180Y-72509502D01*
X191654494Y-72450537D01*
X191751185Y-72371185D01*
X191830537Y-72274494D01*
X191889502Y-72164180D01*
X191925812Y-72044482D01*
X191938072Y-71920000D01*
X191938072Y-70320000D01*
X191925812Y-70195518D01*
X191912161Y-70150516D01*
X196735739Y-74974094D01*
X196767367Y-75012633D01*
X196921160Y-75138847D01*
X197096620Y-75232632D01*
X197287006Y-75290385D01*
X197435392Y-75305000D01*
X197435394Y-75305000D01*
X197484999Y-75309886D01*
X197534604Y-75305000D01*
X203960392Y-75305000D01*
X204010000Y-75309886D01*
X204207994Y-75290385D01*
X204207997Y-75290384D01*
X204398380Y-75232632D01*
X204573840Y-75138847D01*
X204727633Y-75012633D01*
X204759262Y-74974093D01*
X204919099Y-74814256D01*
X205993927Y-73739428D01*
X207954034Y-73739428D01*
X209375000Y-75160395D01*
X210795966Y-73739428D01*
X210621552Y-73408203D01*
X210220725Y-73202132D01*
X209787397Y-73078217D01*
X209338221Y-73041222D01*
X208890459Y-73092568D01*
X208461317Y-73230281D01*
X208128448Y-73408203D01*
X207954034Y-73739428D01*
X205993927Y-73739428D01*
X206469356Y-73264000D01*
X206506388Y-73264000D01*
X206764114Y-73212735D01*
X207006886Y-73112176D01*
X207225376Y-72966186D01*
X207411186Y-72780376D01*
X207557176Y-72561886D01*
X207657735Y-72319114D01*
X207709000Y-72061388D01*
X207709000Y-71798612D01*
X207657735Y-71540886D01*
X207557176Y-71298114D01*
X207430224Y-71108117D01*
X207525185Y-71030185D01*
X207604537Y-70933494D01*
X207663502Y-70823180D01*
X207699812Y-70703482D01*
X207712072Y-70579000D01*
X207712072Y-70180572D01*
X208764034Y-70180572D01*
X208938448Y-70511797D01*
X209339275Y-70717868D01*
X209772603Y-70841783D01*
X210221779Y-70878778D01*
X210669541Y-70827432D01*
X211098683Y-70689719D01*
X211431552Y-70511797D01*
X211605966Y-70180572D01*
X210185000Y-68759605D01*
X208764034Y-70180572D01*
X207712072Y-70180572D01*
X207712072Y-69181000D01*
X207699812Y-69056518D01*
X207663502Y-68936820D01*
X207604537Y-68826506D01*
X207525185Y-68729815D01*
X207428494Y-68650463D01*
X207365477Y-68616779D01*
X207886222Y-68616779D01*
X207937568Y-69064541D01*
X208075281Y-69493683D01*
X208253203Y-69826552D01*
X208584428Y-70000966D01*
X210005395Y-68580000D01*
X210364605Y-68580000D01*
X211785572Y-70000966D01*
X212116797Y-69826552D01*
X212322868Y-69425725D01*
X212446783Y-68992397D01*
X212483778Y-68543221D01*
X212432432Y-68095459D01*
X212294719Y-67666317D01*
X212116797Y-67333448D01*
X211785572Y-67159034D01*
X210364605Y-68580000D01*
X210005395Y-68580000D01*
X208584428Y-67159034D01*
X208253203Y-67333448D01*
X208047132Y-67734275D01*
X207923217Y-68167603D01*
X207886222Y-68616779D01*
X207365477Y-68616779D01*
X207318180Y-68591498D01*
X207198482Y-68555188D01*
X207074000Y-68542928D01*
X206811933Y-68542928D01*
X207006886Y-68462176D01*
X207225376Y-68316186D01*
X207411186Y-68130376D01*
X207557176Y-67911886D01*
X207657735Y-67669114D01*
X207709000Y-67411388D01*
X207709000Y-67148612D01*
X207675348Y-66979428D01*
X208764034Y-66979428D01*
X210185000Y-68400395D01*
X211605966Y-66979428D01*
X211431552Y-66648203D01*
X211030725Y-66442132D01*
X210597397Y-66318217D01*
X210148221Y-66281222D01*
X209700459Y-66332568D01*
X209271317Y-66470281D01*
X208938448Y-66648203D01*
X208764034Y-66979428D01*
X207675348Y-66979428D01*
X207657735Y-66890886D01*
X207557176Y-66648114D01*
X207411186Y-66429624D01*
X207225376Y-66243814D01*
X207111577Y-66167776D01*
X207115950Y-66150555D01*
X206375000Y-65409605D01*
X205634050Y-66150555D01*
X205638423Y-66167776D01*
X205524624Y-66243814D01*
X205338814Y-66429624D01*
X205192824Y-66648114D01*
X205092265Y-66890886D01*
X205041000Y-67148612D01*
X205041000Y-67411388D01*
X205092265Y-67669114D01*
X205192824Y-67911886D01*
X205338814Y-68130376D01*
X205524624Y-68316186D01*
X205743114Y-68462176D01*
X205938067Y-68542928D01*
X205676000Y-68542928D01*
X205551518Y-68555188D01*
X205431820Y-68591498D01*
X205321506Y-68650463D01*
X205224815Y-68729815D01*
X205145463Y-68826506D01*
X205086498Y-68936820D01*
X205050188Y-69056518D01*
X205037928Y-69181000D01*
X205037928Y-70579000D01*
X205050188Y-70703482D01*
X205086498Y-70823180D01*
X205145463Y-70933494D01*
X205224815Y-71030185D01*
X205319776Y-71108117D01*
X205192824Y-71298114D01*
X205130000Y-71449785D01*
X205067176Y-71298114D01*
X204921186Y-71079624D01*
X204735376Y-70893814D01*
X204516886Y-70747824D01*
X204274114Y-70647265D01*
X204016388Y-70596000D01*
X203753612Y-70596000D01*
X203495886Y-70647265D01*
X203253114Y-70747824D01*
X203034624Y-70893814D01*
X202848814Y-71079624D01*
X202702824Y-71298114D01*
X202602265Y-71540886D01*
X202551000Y-71798612D01*
X202551000Y-72061388D01*
X202602265Y-72319114D01*
X202702824Y-72561886D01*
X202848814Y-72780376D01*
X203034624Y-72966186D01*
X203253114Y-73112176D01*
X203495886Y-73212735D01*
X203636033Y-73240612D01*
X203591645Y-73285000D01*
X197903355Y-73285000D01*
X196900293Y-72281938D01*
X196966098Y-72301275D01*
X197483071Y-72347648D01*
X197999159Y-72292273D01*
X198494526Y-72137279D01*
X198911772Y-71914258D01*
X199127894Y-71547499D01*
X197460000Y-69879605D01*
X197445858Y-69893748D01*
X197266253Y-69714143D01*
X197280395Y-69700000D01*
X197639605Y-69700000D01*
X199307499Y-71367894D01*
X199674258Y-71151772D01*
X199914938Y-70691895D01*
X200061275Y-70193902D01*
X200107648Y-69676929D01*
X200052273Y-69160841D01*
X199897279Y-68665474D01*
X199674258Y-68248228D01*
X199307499Y-68032106D01*
X197639605Y-69700000D01*
X197280395Y-69700000D01*
X195612501Y-68032106D01*
X195245742Y-68248228D01*
X195005062Y-68708105D01*
X194858725Y-69206098D01*
X194812352Y-69723071D01*
X194867727Y-70239159D01*
X194872378Y-70254023D01*
X193019260Y-68400905D01*
X192987632Y-68362366D01*
X192833839Y-68236152D01*
X192658379Y-68142367D01*
X192467993Y-68084614D01*
X192319607Y-68069999D01*
X192269999Y-68065113D01*
X192220391Y-68069999D01*
X190536341Y-68069999D01*
X190494853Y-67861426D01*
X190491157Y-67852501D01*
X195792106Y-67852501D01*
X197460000Y-69520395D01*
X199127894Y-67852501D01*
X198911772Y-67485742D01*
X198451895Y-67245062D01*
X197953902Y-67098725D01*
X197436929Y-67052352D01*
X196920841Y-67107727D01*
X196425474Y-67262721D01*
X196008228Y-67485742D01*
X195792106Y-67852501D01*
X190491157Y-67852501D01*
X190386680Y-67600273D01*
X190229637Y-67365241D01*
X190029759Y-67165363D01*
X189794727Y-67008320D01*
X189533574Y-66900147D01*
X189256335Y-66845000D01*
X189108355Y-66845000D01*
X187361967Y-65098612D01*
X202551000Y-65098612D01*
X202551000Y-65361388D01*
X202602265Y-65619114D01*
X202702824Y-65861886D01*
X202848814Y-66080376D01*
X203034624Y-66266186D01*
X203253114Y-66412176D01*
X203495886Y-66512735D01*
X203753612Y-66564000D01*
X204016388Y-66564000D01*
X204274114Y-66512735D01*
X204516886Y-66412176D01*
X204735376Y-66266186D01*
X204921186Y-66080376D01*
X205067176Y-65861886D01*
X205130106Y-65709960D01*
X205167010Y-65811017D01*
X205220779Y-65911611D01*
X205454445Y-65970950D01*
X206195395Y-65230000D01*
X206554605Y-65230000D01*
X207295555Y-65970950D01*
X207529221Y-65911611D01*
X207640018Y-65673336D01*
X207702202Y-65418025D01*
X207713382Y-65155488D01*
X207673129Y-64895814D01*
X207582990Y-64648983D01*
X207529221Y-64548389D01*
X207295555Y-64489050D01*
X206554605Y-65230000D01*
X206195395Y-65230000D01*
X205454445Y-64489050D01*
X205220779Y-64548389D01*
X205128648Y-64746521D01*
X205067176Y-64598114D01*
X204921186Y-64379624D01*
X204851007Y-64309445D01*
X205634050Y-64309445D01*
X206375000Y-65050395D01*
X207115950Y-64309445D01*
X207056611Y-64075779D01*
X206818336Y-63964982D01*
X206563025Y-63902798D01*
X206300488Y-63891618D01*
X206040814Y-63931871D01*
X205793983Y-64022010D01*
X205693389Y-64075779D01*
X205634050Y-64309445D01*
X204851007Y-64309445D01*
X204735376Y-64193814D01*
X204516886Y-64047824D01*
X204274114Y-63947265D01*
X204016388Y-63896000D01*
X203753612Y-63896000D01*
X203495886Y-63947265D01*
X203253114Y-64047824D01*
X203034624Y-64193814D01*
X202848814Y-64379624D01*
X202702824Y-64598114D01*
X202602265Y-64840886D01*
X202551000Y-65098612D01*
X187361967Y-65098612D01*
X186549260Y-64285905D01*
X186517632Y-64247366D01*
X186363839Y-64121152D01*
X186188379Y-64027367D01*
X185997993Y-63969614D01*
X185849607Y-63954999D01*
X185799999Y-63950113D01*
X185750391Y-63954999D01*
X171304605Y-63954999D01*
X171255000Y-63950113D01*
X171205395Y-63954999D01*
X171205393Y-63954999D01*
X171057007Y-63969614D01*
X170866621Y-64027367D01*
X170691161Y-64121152D01*
X170537368Y-64247366D01*
X170505745Y-64285899D01*
X166960901Y-67830744D01*
X166922368Y-67862367D01*
X166890745Y-67900900D01*
X166890744Y-67900901D01*
X166796154Y-68016160D01*
X166702368Y-68191621D01*
X166644615Y-68382006D01*
X166625114Y-68580000D01*
X165760000Y-68580000D01*
X165760000Y-63420572D01*
X207954034Y-63420572D01*
X208128448Y-63751797D01*
X208529275Y-63957868D01*
X208962603Y-64081783D01*
X209411779Y-64118778D01*
X209859541Y-64067432D01*
X210288683Y-63929719D01*
X210621552Y-63751797D01*
X210795966Y-63420572D01*
X209375000Y-61999605D01*
X207954034Y-63420572D01*
X165760000Y-63420572D01*
X165760000Y-61856779D01*
X207076222Y-61856779D01*
X207127568Y-62304541D01*
X207265281Y-62733683D01*
X207443203Y-63066552D01*
X207774428Y-63240966D01*
X209195395Y-61820000D01*
X209554605Y-61820000D01*
X210975572Y-63240966D01*
X211306797Y-63066552D01*
X211512868Y-62665725D01*
X211636783Y-62232397D01*
X211673778Y-61783221D01*
X211622432Y-61335459D01*
X211484719Y-60906317D01*
X211306797Y-60573448D01*
X210975572Y-60399034D01*
X209554605Y-61820000D01*
X209195395Y-61820000D01*
X207774428Y-60399034D01*
X207443203Y-60573448D01*
X207237132Y-60974275D01*
X207113217Y-61407603D01*
X207076222Y-61856779D01*
X165760000Y-61856779D01*
X165760000Y-60219428D01*
X207954034Y-60219428D01*
X209375000Y-61640395D01*
X210795966Y-60219428D01*
X210621552Y-59888203D01*
X210220725Y-59682132D01*
X209787397Y-59558217D01*
X209338221Y-59521222D01*
X208890459Y-59572568D01*
X208461317Y-59710281D01*
X208128448Y-59888203D01*
X207954034Y-60219428D01*
X165760000Y-60219428D01*
X165760000Y-59080000D01*
X212700001Y-59080000D01*
X212700000Y-141580000D01*
G36*
X176744866Y-87415134D02*
G01*
X176970986Y-87600706D01*
X177025791Y-87630000D01*
X176970986Y-87659294D01*
X176744866Y-87844866D01*
X176559294Y-88070986D01*
X176421401Y-88328966D01*
X176336487Y-88608889D01*
X176307815Y-88900000D01*
X176329388Y-89119033D01*
X172124952Y-93323470D01*
X172091184Y-93351183D01*
X172063471Y-93384951D01*
X172063468Y-93384954D01*
X171980590Y-93485941D01*
X171898412Y-93639687D01*
X171847805Y-93806510D01*
X171830719Y-93980000D01*
X171835001Y-94023479D01*
X171835000Y-101950529D01*
X171830719Y-101993998D01*
X171835000Y-102037467D01*
X171835000Y-102037474D01*
X171847805Y-102167487D01*
X171898411Y-102334310D01*
X171980589Y-102488056D01*
X172091183Y-102622815D01*
X172124956Y-102650532D01*
X176569203Y-107094779D01*
X176465429Y-107044296D01*
X176153892Y-106962616D01*
X175832405Y-106943282D01*
X175513325Y-106987039D01*
X175208912Y-107092205D01*
X175034956Y-107185186D01*
X174939192Y-107449587D01*
X175895000Y-108405395D01*
X175909143Y-108391253D01*
X176088748Y-108570858D01*
X176074605Y-108585000D01*
X177030413Y-109540808D01*
X177294814Y-109445044D01*
X177435704Y-109155429D01*
X177517384Y-108843892D01*
X177536718Y-108522405D01*
X177492961Y-108203325D01*
X177395427Y-107921003D01*
X182630001Y-113155578D01*
X182630000Y-115486550D01*
X182509176Y-115667376D01*
X182423617Y-115873933D01*
X182380000Y-116093212D01*
X182380000Y-116316788D01*
X182423617Y-116536067D01*
X182509176Y-116742624D01*
X182633388Y-116928520D01*
X182791480Y-117086612D01*
X182977376Y-117210824D01*
X183183933Y-117296383D01*
X183403212Y-117340000D01*
X183626788Y-117340000D01*
X183846067Y-117296383D01*
X184052624Y-117210824D01*
X184238520Y-117086612D01*
X184396612Y-116928520D01*
X184520824Y-116742624D01*
X184535001Y-116708399D01*
X184535001Y-119347341D01*
X184416123Y-119426773D01*
X184196773Y-119646123D01*
X184150000Y-119716124D01*
X184103227Y-119646123D01*
X183883877Y-119426773D01*
X183625948Y-119254430D01*
X183339352Y-119135718D01*
X183035104Y-119075200D01*
X182724896Y-119075200D01*
X182420648Y-119135718D01*
X182134052Y-119254430D01*
X181876123Y-119426773D01*
X181656773Y-119646123D01*
X181484430Y-119904052D01*
X181365718Y-120190648D01*
X181305200Y-120494896D01*
X181305200Y-120805104D01*
X181365718Y-121109352D01*
X181484430Y-121395948D01*
X181656773Y-121653877D01*
X181876123Y-121873227D01*
X181995000Y-121952658D01*
X181995001Y-124728420D01*
X181594951Y-125128471D01*
X181561184Y-125156183D01*
X181533471Y-125189951D01*
X181533468Y-125189954D01*
X181450590Y-125290941D01*
X181368412Y-125444687D01*
X181317805Y-125611510D01*
X181300719Y-125785000D01*
X181305001Y-125828479D01*
X181305000Y-128405479D01*
X181275241Y-128425363D01*
X181075363Y-128625241D01*
X180918320Y-128860273D01*
X180810147Y-129121426D01*
X180805000Y-129147301D01*
X180799853Y-129121426D01*
X180691680Y-128860273D01*
X180534637Y-128625241D01*
X180334759Y-128425363D01*
X180099727Y-128268320D01*
X179838574Y-128160147D01*
X179561335Y-128105000D01*
X179278665Y-128105000D01*
X179001426Y-128160147D01*
X178740273Y-128268320D01*
X178505241Y-128425363D01*
X178305363Y-128625241D01*
X178148320Y-128860273D01*
X178040147Y-129121426D01*
X177985000Y-129398665D01*
X177985000Y-129681335D01*
X178040147Y-129958574D01*
X178148320Y-130219727D01*
X178305363Y-130454759D01*
X178505241Y-130654637D01*
X178740273Y-130811680D01*
X179001426Y-130919853D01*
X179278665Y-130975000D01*
X179561335Y-130975000D01*
X179838574Y-130919853D01*
X180099727Y-130811680D01*
X180334759Y-130654637D01*
X180534637Y-130454759D01*
X180691680Y-130219727D01*
X180799853Y-129958574D01*
X180805000Y-129932699D01*
X180810147Y-129958574D01*
X180918320Y-130219727D01*
X181075363Y-130454759D01*
X181275241Y-130654637D01*
X181510273Y-130811680D01*
X181771426Y-130919853D01*
X182048665Y-130975000D01*
X182331335Y-130975000D01*
X182608574Y-130919853D01*
X182869727Y-130811680D01*
X183104759Y-130654637D01*
X183304637Y-130454759D01*
X183461680Y-130219727D01*
X183569853Y-129958574D01*
X183575000Y-129932699D01*
X183580147Y-129958574D01*
X183688320Y-130219727D01*
X183845363Y-130454759D01*
X184045241Y-130654637D01*
X184280273Y-130811680D01*
X184541426Y-130919853D01*
X184818665Y-130975000D01*
X185101335Y-130975000D01*
X185378574Y-130919853D01*
X185639727Y-130811680D01*
X185874759Y-130654637D01*
X186074637Y-130454759D01*
X186231680Y-130219727D01*
X186339853Y-129958574D01*
X186345000Y-129932699D01*
X186350147Y-129958574D01*
X186458320Y-130219727D01*
X186615363Y-130454759D01*
X186815241Y-130654637D01*
X187050273Y-130811680D01*
X187311426Y-130919853D01*
X187588665Y-130975000D01*
X187871335Y-130975000D01*
X188148574Y-130919853D01*
X188409727Y-130811680D01*
X188644759Y-130654637D01*
X188844637Y-130454759D01*
X189001680Y-130219727D01*
X189061928Y-130074275D01*
X189061928Y-130340000D01*
X189074188Y-130464482D01*
X189110498Y-130584180D01*
X189169463Y-130694494D01*
X189248815Y-130791185D01*
X189345506Y-130870537D01*
X189455820Y-130929502D01*
X189575518Y-130965812D01*
X189700000Y-130978072D01*
X191300000Y-130978072D01*
X191424482Y-130965812D01*
X191544180Y-130929502D01*
X191654494Y-130870537D01*
X191751185Y-130791185D01*
X191830537Y-130694494D01*
X191889502Y-130584180D01*
X191925812Y-130464482D01*
X191938072Y-130340000D01*
X191938072Y-128740000D01*
X191925812Y-128615518D01*
X191889502Y-128495820D01*
X191830537Y-128385506D01*
X191751185Y-128288815D01*
X191654494Y-128209463D01*
X191544180Y-128150498D01*
X191424482Y-128114188D01*
X191300000Y-128101928D01*
X189700000Y-128101928D01*
X189575518Y-128114188D01*
X189455820Y-128150498D01*
X189345506Y-128209463D01*
X189248815Y-128288815D01*
X189169463Y-128385506D01*
X189110498Y-128495820D01*
X189074188Y-128615518D01*
X189061928Y-128740000D01*
X189061928Y-129005725D01*
X189001680Y-128860273D01*
X188844637Y-128625241D01*
X188644759Y-128425363D01*
X188409727Y-128268320D01*
X188148574Y-128160147D01*
X187871335Y-128105000D01*
X187588665Y-128105000D01*
X187311426Y-128160147D01*
X187050273Y-128268320D01*
X186815241Y-128425363D01*
X186615363Y-128625241D01*
X186458320Y-128860273D01*
X186350147Y-129121426D01*
X186345000Y-129147301D01*
X186339853Y-129121426D01*
X186231680Y-128860273D01*
X186074637Y-128625241D01*
X185874759Y-128425363D01*
X185639727Y-128268320D01*
X185378574Y-128160147D01*
X185101335Y-128105000D01*
X184818665Y-128105000D01*
X184541426Y-128160147D01*
X184280273Y-128268320D01*
X184045241Y-128425363D01*
X183845363Y-128625241D01*
X183688320Y-128860273D01*
X183580147Y-129121426D01*
X183575000Y-129147301D01*
X183569853Y-129121426D01*
X183461680Y-128860273D01*
X183304637Y-128625241D01*
X183104759Y-128425363D01*
X183075000Y-128405479D01*
X183075000Y-126151578D01*
X183475049Y-125751530D01*
X183508817Y-125723817D01*
X183539935Y-125685901D01*
X183619410Y-125589060D01*
X183619411Y-125589059D01*
X183701589Y-125435313D01*
X183752195Y-125268490D01*
X183765000Y-125138477D01*
X183765000Y-125138467D01*
X183769281Y-125095001D01*
X183765000Y-125051535D01*
X183765000Y-121952658D01*
X183883877Y-121873227D01*
X184103227Y-121653877D01*
X184150000Y-121583876D01*
X184196773Y-121653877D01*
X184416123Y-121873227D01*
X184674052Y-122045570D01*
X184960648Y-122164282D01*
X185264896Y-122224800D01*
X185575104Y-122224800D01*
X185879352Y-122164282D01*
X186165948Y-122045570D01*
X186423877Y-121873227D01*
X186643227Y-121653877D01*
X186690000Y-121583876D01*
X186736773Y-121653877D01*
X186956123Y-121873227D01*
X187214052Y-122045570D01*
X187500648Y-122164282D01*
X187804896Y-122224800D01*
X188115104Y-122224800D01*
X188419352Y-122164282D01*
X188705948Y-122045570D01*
X188963877Y-121873227D01*
X189183227Y-121653877D01*
X189230000Y-121583876D01*
X189276773Y-121653877D01*
X189496123Y-121873227D01*
X189754052Y-122045570D01*
X190040648Y-122164282D01*
X190344896Y-122224800D01*
X190655104Y-122224800D01*
X190959352Y-122164282D01*
X191245948Y-122045570D01*
X191503877Y-121873227D01*
X191723227Y-121653877D01*
X191770000Y-121583876D01*
X191816773Y-121653877D01*
X192036123Y-121873227D01*
X192153425Y-121951606D01*
X192150719Y-121979077D01*
X192167805Y-122152567D01*
X192218412Y-122319390D01*
X192300590Y-122473136D01*
X192383468Y-122574123D01*
X192383471Y-122574126D01*
X192411184Y-122607894D01*
X192444952Y-122635607D01*
X198257192Y-128447848D01*
X197953902Y-128358725D01*
X197436929Y-128312352D01*
X196920841Y-128367727D01*
X196425474Y-128522721D01*
X196008228Y-128745742D01*
X195792106Y-129112501D01*
X197460000Y-130780395D01*
X197474143Y-130766253D01*
X197653748Y-130945858D01*
X197639605Y-130960000D01*
X199307499Y-132627894D01*
X199674258Y-132411772D01*
X199914938Y-131951895D01*
X200061275Y-131453902D01*
X200107648Y-130936929D01*
X200052273Y-130420841D01*
X199971258Y-130161914D01*
X203754393Y-133945049D01*
X203782106Y-133978817D01*
X203815874Y-134006530D01*
X203815876Y-134006532D01*
X203916864Y-134089411D01*
X204070609Y-134171589D01*
X204237433Y-134222195D01*
X204367446Y-134235000D01*
X204367454Y-134235000D01*
X204410923Y-134239281D01*
X204454392Y-134235000D01*
X205815241Y-134235000D01*
X205954866Y-134405134D01*
X206180986Y-134590706D01*
X206235791Y-134620000D01*
X206180986Y-134649294D01*
X205954866Y-134834866D01*
X205769294Y-135060986D01*
X205631401Y-135318966D01*
X205546487Y-135598889D01*
X205517815Y-135890000D01*
X205546487Y-136181111D01*
X205631401Y-136461034D01*
X205769294Y-136719014D01*
X205954866Y-136945134D01*
X205984687Y-136969607D01*
X205915820Y-136990498D01*
X205805506Y-137049463D01*
X205708815Y-137128815D01*
X205629463Y-137225506D01*
X205570498Y-137335820D01*
X205534188Y-137455518D01*
X205521928Y-137580000D01*
X205525000Y-138144250D01*
X205683750Y-138303000D01*
X206883000Y-138303000D01*
X206883000Y-138283000D01*
X207137000Y-138283000D01*
X207137000Y-138303000D01*
X208336250Y-138303000D01*
X208495000Y-138144250D01*
X208498072Y-137580000D01*
X208485812Y-137455518D01*
X208449502Y-137335820D01*
X208390537Y-137225506D01*
X208311185Y-137128815D01*
X208214494Y-137049463D01*
X208104180Y-136990498D01*
X208035313Y-136969607D01*
X208065134Y-136945134D01*
X208102175Y-136900000D01*
X209810000Y-136900000D01*
X209810001Y-138011643D01*
X208496645Y-139325000D01*
X208493640Y-139325000D01*
X208498072Y-139280000D01*
X208495000Y-138715750D01*
X208336250Y-138557000D01*
X207137000Y-138557000D01*
X207137000Y-138577000D01*
X206883000Y-138577000D01*
X206883000Y-138557000D01*
X205683750Y-138557000D01*
X205525000Y-138715750D01*
X205521928Y-139280000D01*
X205526360Y-139325000D01*
X175043356Y-139325000D01*
X168650000Y-132931645D01*
X168650000Y-132807499D01*
X170792106Y-132807499D01*
X171008228Y-133174258D01*
X171468105Y-133414938D01*
X171966098Y-133561275D01*
X172483071Y-133607648D01*
X172999159Y-133552273D01*
X173494526Y-133397279D01*
X173911772Y-133174258D01*
X174127894Y-132807499D01*
X172460000Y-131139605D01*
X170792106Y-132807499D01*
X168650000Y-132807499D01*
X168650000Y-130983071D01*
X169812352Y-130983071D01*
X169867727Y-131499159D01*
X170022721Y-131994526D01*
X170245742Y-132411772D01*
X170612501Y-132627894D01*
X172280395Y-130960000D01*
X172639605Y-130960000D01*
X174307499Y-132627894D01*
X174674258Y-132411772D01*
X174914938Y-131951895D01*
X175061275Y-131453902D01*
X175107648Y-130936929D01*
X175052273Y-130420841D01*
X174897279Y-129925474D01*
X174674258Y-129508228D01*
X174307499Y-129292106D01*
X172639605Y-130960000D01*
X172280395Y-130960000D01*
X170612501Y-129292106D01*
X170245742Y-129508228D01*
X170005062Y-129968105D01*
X169858725Y-130466098D01*
X169812352Y-130983071D01*
X168650000Y-130983071D01*
X168650000Y-129112501D01*
X170792106Y-129112501D01*
X172460000Y-130780395D01*
X174127894Y-129112501D01*
X173911772Y-128745742D01*
X173451895Y-128505062D01*
X172953902Y-128358725D01*
X172436929Y-128312352D01*
X171920841Y-128367727D01*
X171425474Y-128522721D01*
X171008228Y-128745742D01*
X170792106Y-129112501D01*
X168650000Y-129112501D01*
X168650000Y-126365000D01*
X175515114Y-126365000D01*
X175520000Y-126414608D01*
X175520001Y-132030382D01*
X175515114Y-132080000D01*
X175534615Y-132277994D01*
X175592368Y-132468379D01*
X175686154Y-132643840D01*
X175777342Y-132754953D01*
X175812368Y-132797633D01*
X175850901Y-132829256D01*
X178320744Y-135299100D01*
X178352367Y-135337633D01*
X178506160Y-135463847D01*
X178681620Y-135557632D01*
X178872006Y-135615385D01*
X179020392Y-135630000D01*
X179020394Y-135630000D01*
X179069999Y-135634886D01*
X179119604Y-135630000D01*
X186825392Y-135630000D01*
X186875000Y-135634886D01*
X187072994Y-135615385D01*
X187127374Y-135598889D01*
X187263380Y-135557632D01*
X187438840Y-135463847D01*
X187592633Y-135337633D01*
X187624261Y-135299094D01*
X189108355Y-133815000D01*
X189256335Y-133815000D01*
X189533574Y-133759853D01*
X189794727Y-133651680D01*
X190029759Y-133494637D01*
X190229637Y-133294759D01*
X190386680Y-133059727D01*
X190491156Y-132807499D01*
X195792106Y-132807499D01*
X196008228Y-133174258D01*
X196468105Y-133414938D01*
X196966098Y-133561275D01*
X197483071Y-133607648D01*
X197999159Y-133552273D01*
X198494526Y-133397279D01*
X198911772Y-133174258D01*
X199127894Y-132807499D01*
X197460000Y-131139605D01*
X195792106Y-132807499D01*
X190491156Y-132807499D01*
X190494853Y-132798574D01*
X190550000Y-132521335D01*
X190550000Y-132238665D01*
X190494853Y-131961426D01*
X190386680Y-131700273D01*
X190229637Y-131465241D01*
X190029759Y-131265363D01*
X189794727Y-131108320D01*
X189533574Y-131000147D01*
X189447729Y-130983071D01*
X194812352Y-130983071D01*
X194867727Y-131499159D01*
X195022721Y-131994526D01*
X195245742Y-132411772D01*
X195612501Y-132627894D01*
X197280395Y-130960000D01*
X195612501Y-129292106D01*
X195245742Y-129508228D01*
X195005062Y-129968105D01*
X194858725Y-130466098D01*
X194812352Y-130983071D01*
X189447729Y-130983071D01*
X189256335Y-130945000D01*
X188973665Y-130945000D01*
X188696426Y-131000147D01*
X188435273Y-131108320D01*
X188200241Y-131265363D01*
X188000363Y-131465241D01*
X187843320Y-131700273D01*
X187735147Y-131961426D01*
X187730000Y-131987301D01*
X187724853Y-131961426D01*
X187616680Y-131700273D01*
X187459637Y-131465241D01*
X187259759Y-131265363D01*
X187024727Y-131108320D01*
X186763574Y-131000147D01*
X186486335Y-130945000D01*
X186203665Y-130945000D01*
X185926426Y-131000147D01*
X185665273Y-131108320D01*
X185430241Y-131265363D01*
X185230363Y-131465241D01*
X185073320Y-131700273D01*
X184965147Y-131961426D01*
X184959487Y-131989882D01*
X184878603Y-131763708D01*
X184811671Y-131638486D01*
X184567702Y-131566903D01*
X183754605Y-132380000D01*
X184567702Y-133193097D01*
X184811671Y-133121514D01*
X184932571Y-132866004D01*
X184958212Y-132763711D01*
X184965147Y-132798574D01*
X185073320Y-133059727D01*
X185230363Y-133294759D01*
X185430241Y-133494637D01*
X185602894Y-133610000D01*
X184318471Y-133610000D01*
X184388097Y-133372702D01*
X183575000Y-132559605D01*
X182761903Y-133372702D01*
X182831529Y-133610000D01*
X181547106Y-133610000D01*
X181719759Y-133494637D01*
X181919637Y-133294759D01*
X182076680Y-133059727D01*
X182184853Y-132798574D01*
X182190513Y-132770118D01*
X182271397Y-132996292D01*
X182338329Y-133121514D01*
X182582298Y-133193097D01*
X183395395Y-132380000D01*
X182582298Y-131566903D01*
X182338329Y-131638486D01*
X182217429Y-131893996D01*
X182191788Y-131996289D01*
X182184853Y-131961426D01*
X182076680Y-131700273D01*
X181919637Y-131465241D01*
X181841694Y-131387298D01*
X182761903Y-131387298D01*
X183575000Y-132200395D01*
X184388097Y-131387298D01*
X184316514Y-131143329D01*
X184061004Y-131022429D01*
X183786816Y-130953700D01*
X183504488Y-130939783D01*
X183224870Y-130981213D01*
X182958708Y-131076397D01*
X182833486Y-131143329D01*
X182761903Y-131387298D01*
X181841694Y-131387298D01*
X181719759Y-131265363D01*
X181484727Y-131108320D01*
X181223574Y-131000147D01*
X180946335Y-130945000D01*
X180663665Y-130945000D01*
X180386426Y-131000147D01*
X180125273Y-131108320D01*
X179890241Y-131265363D01*
X179690363Y-131465241D01*
X179533320Y-131700273D01*
X179425147Y-131961426D01*
X179370000Y-132238665D01*
X179370000Y-132521335D01*
X179425147Y-132798574D01*
X179533320Y-133059727D01*
X179690363Y-133294759D01*
X179890241Y-133494637D01*
X180062894Y-133610000D01*
X179488356Y-133610000D01*
X177540000Y-131661645D01*
X177540000Y-126783355D01*
X178479094Y-125844261D01*
X178517633Y-125812633D01*
X178643847Y-125658840D01*
X178737632Y-125483380D01*
X178795385Y-125292994D01*
X178810000Y-125144608D01*
X178810000Y-125144606D01*
X178814886Y-125095001D01*
X178810000Y-125045396D01*
X178810000Y-122947493D01*
X178819608Y-122939608D01*
X178998932Y-122721101D01*
X179132182Y-122471808D01*
X179214236Y-122201309D01*
X179241943Y-121920000D01*
X179214236Y-121638691D01*
X179132182Y-121368192D01*
X178998932Y-121118899D01*
X178819608Y-120900392D01*
X178601101Y-120721068D01*
X178351808Y-120587818D01*
X178081309Y-120505764D01*
X177870492Y-120485000D01*
X177729508Y-120485000D01*
X177518691Y-120505764D01*
X177248192Y-120587818D01*
X176998899Y-120721068D01*
X176780392Y-120900392D01*
X176601068Y-121118899D01*
X176467818Y-121368192D01*
X176385764Y-121638691D01*
X176358057Y-121920000D01*
X176385764Y-122201309D01*
X176467818Y-122471808D01*
X176601068Y-122721101D01*
X176780392Y-122939608D01*
X176790000Y-122947493D01*
X176790001Y-124676644D01*
X175850906Y-125615739D01*
X175812367Y-125647367D01*
X175686153Y-125801160D01*
X175602059Y-125958490D01*
X175592368Y-125976621D01*
X175534615Y-126167006D01*
X175515114Y-126365000D01*
X168650000Y-126365000D01*
X168650000Y-122930000D01*
X168780130Y-122930000D01*
X168790498Y-122964180D01*
X168849463Y-123074494D01*
X168928815Y-123171185D01*
X169025506Y-123250537D01*
X169135820Y-123309502D01*
X169255518Y-123345812D01*
X169380000Y-123358072D01*
X170980000Y-123358072D01*
X171104482Y-123345812D01*
X171224180Y-123309502D01*
X171334494Y-123250537D01*
X171431185Y-123171185D01*
X171510537Y-123074494D01*
X171569502Y-122964180D01*
X171605812Y-122844482D01*
X171618072Y-122720000D01*
X171618072Y-121120000D01*
X171605812Y-120995518D01*
X171569502Y-120875820D01*
X171510537Y-120765506D01*
X171431185Y-120668815D01*
X171334494Y-120589463D01*
X171224180Y-120530498D01*
X171104482Y-120494188D01*
X170980000Y-120481928D01*
X169380000Y-120481928D01*
X169255518Y-120494188D01*
X169135820Y-120530498D01*
X169025506Y-120589463D01*
X168928815Y-120668815D01*
X168849463Y-120765506D01*
X168790498Y-120875820D01*
X168780130Y-120910000D01*
X168650000Y-120910000D01*
X168650000Y-114923967D01*
X169760000Y-114923967D01*
X169760000Y-115246033D01*
X169822832Y-115561912D01*
X169946082Y-115859463D01*
X170125013Y-116127252D01*
X170352748Y-116354987D01*
X170620537Y-116533918D01*
X170918088Y-116657168D01*
X171233967Y-116720000D01*
X171556033Y-116720000D01*
X171871912Y-116657168D01*
X172169463Y-116533918D01*
X172437252Y-116354987D01*
X172571826Y-116220413D01*
X174939192Y-116220413D01*
X175034956Y-116484814D01*
X175324571Y-116625704D01*
X175636108Y-116707384D01*
X175957595Y-116726718D01*
X176276675Y-116682961D01*
X176581088Y-116577795D01*
X176755044Y-116484814D01*
X176850808Y-116220413D01*
X175895000Y-115264605D01*
X174939192Y-116220413D01*
X172571826Y-116220413D01*
X172664987Y-116127252D01*
X172843918Y-115859463D01*
X172967168Y-115561912D01*
X173030000Y-115246033D01*
X173030000Y-115147595D01*
X174253282Y-115147595D01*
X174297039Y-115466675D01*
X174402205Y-115771088D01*
X174495186Y-115945044D01*
X174759587Y-116040808D01*
X175715395Y-115085000D01*
X176074605Y-115085000D01*
X177030413Y-116040808D01*
X177294814Y-115945044D01*
X177435704Y-115655429D01*
X177517384Y-115343892D01*
X177536718Y-115022405D01*
X177492961Y-114703325D01*
X177387795Y-114398912D01*
X177294814Y-114224956D01*
X177030413Y-114129192D01*
X176074605Y-115085000D01*
X175715395Y-115085000D01*
X174759587Y-114129192D01*
X174495186Y-114224956D01*
X174354296Y-114514571D01*
X174272616Y-114826108D01*
X174253282Y-115147595D01*
X173030000Y-115147595D01*
X173030000Y-114923967D01*
X172967168Y-114608088D01*
X172843918Y-114310537D01*
X172664987Y-114042748D01*
X172571826Y-113949587D01*
X174939192Y-113949587D01*
X175895000Y-114905395D01*
X176850808Y-113949587D01*
X176755044Y-113685186D01*
X176465429Y-113544296D01*
X176153892Y-113462616D01*
X175832405Y-113443282D01*
X175513325Y-113487039D01*
X175208912Y-113592205D01*
X175034956Y-113685186D01*
X174939192Y-113949587D01*
X172571826Y-113949587D01*
X172437252Y-113815013D01*
X172169463Y-113636082D01*
X171871912Y-113512832D01*
X171556033Y-113450000D01*
X171233967Y-113450000D01*
X170918088Y-113512832D01*
X170620537Y-113636082D01*
X170352748Y-113815013D01*
X170125013Y-114042748D01*
X169946082Y-114310537D01*
X169822832Y-114608088D01*
X169760000Y-114923967D01*
X168650000Y-114923967D01*
X168650000Y-108423967D01*
X169760000Y-108423967D01*
X169760000Y-108746033D01*
X169822832Y-109061912D01*
X169946082Y-109359463D01*
X170125013Y-109627252D01*
X170352748Y-109854987D01*
X170620537Y-110033918D01*
X170918088Y-110157168D01*
X171233967Y-110220000D01*
X171556033Y-110220000D01*
X171871912Y-110157168D01*
X172169463Y-110033918D01*
X172437252Y-109854987D01*
X172571826Y-109720413D01*
X174939192Y-109720413D01*
X175034956Y-109984814D01*
X175324571Y-110125704D01*
X175636108Y-110207384D01*
X175957595Y-110226718D01*
X176276675Y-110182961D01*
X176581088Y-110077795D01*
X176755044Y-109984814D01*
X176850808Y-109720413D01*
X175895000Y-108764605D01*
X174939192Y-109720413D01*
X172571826Y-109720413D01*
X172664987Y-109627252D01*
X172843918Y-109359463D01*
X172967168Y-109061912D01*
X173030000Y-108746033D01*
X173030000Y-108647595D01*
X174253282Y-108647595D01*
X174297039Y-108966675D01*
X174402205Y-109271088D01*
X174495186Y-109445044D01*
X174759587Y-109540808D01*
X175715395Y-108585000D01*
X174759587Y-107629192D01*
X174495186Y-107724956D01*
X174354296Y-108014571D01*
X174272616Y-108326108D01*
X174253282Y-108647595D01*
X173030000Y-108647595D01*
X173030000Y-108423967D01*
X172967168Y-108108088D01*
X172843918Y-107810537D01*
X172664987Y-107542748D01*
X172437252Y-107315013D01*
X172169463Y-107136082D01*
X171871912Y-107012832D01*
X171556033Y-106950000D01*
X171233967Y-106950000D01*
X170918088Y-107012832D01*
X170620537Y-107136082D01*
X170352748Y-107315013D01*
X170125013Y-107542748D01*
X169946082Y-107810537D01*
X169822832Y-108108088D01*
X169760000Y-108423967D01*
X168650000Y-108423967D01*
X168650000Y-87370000D01*
X176707825Y-87370000D01*
X176744866Y-87415134D01*
X176744866Y-87415134D01*
G37*
X176744866Y-87415134D02*
X176970986Y-87600706D01*
X177025791Y-87630000D01*
X176970986Y-87659294D01*
X176744866Y-87844866D01*
X176559294Y-88070986D01*
X176421401Y-88328966D01*
X176336487Y-88608889D01*
X176307815Y-88900000D01*
X176329388Y-89119033D01*
X172124952Y-93323470D01*
X172091184Y-93351183D01*
X172063471Y-93384951D01*
X172063468Y-93384954D01*
X171980590Y-93485941D01*
X171898412Y-93639687D01*
X171847805Y-93806510D01*
X171830719Y-93980000D01*
X171835001Y-94023479D01*
X171835000Y-101950529D01*
X171830719Y-101993998D01*
X171835000Y-102037467D01*
X171835000Y-102037474D01*
X171847805Y-102167487D01*
X171898411Y-102334310D01*
X171980589Y-102488056D01*
X172091183Y-102622815D01*
X172124956Y-102650532D01*
X176569203Y-107094779D01*
X176465429Y-107044296D01*
X176153892Y-106962616D01*
X175832405Y-106943282D01*
X175513325Y-106987039D01*
X175208912Y-107092205D01*
X175034956Y-107185186D01*
X174939192Y-107449587D01*
X175895000Y-108405395D01*
X175909143Y-108391253D01*
X176088748Y-108570858D01*
X176074605Y-108585000D01*
X177030413Y-109540808D01*
X177294814Y-109445044D01*
X177435704Y-109155429D01*
X177517384Y-108843892D01*
X177536718Y-108522405D01*
X177492961Y-108203325D01*
X177395427Y-107921003D01*
X182630001Y-113155578D01*
X182630000Y-115486550D01*
X182509176Y-115667376D01*
X182423617Y-115873933D01*
X182380000Y-116093212D01*
X182380000Y-116316788D01*
X182423617Y-116536067D01*
X182509176Y-116742624D01*
X182633388Y-116928520D01*
X182791480Y-117086612D01*
X182977376Y-117210824D01*
X183183933Y-117296383D01*
X183403212Y-117340000D01*
X183626788Y-117340000D01*
X183846067Y-117296383D01*
X184052624Y-117210824D01*
X184238520Y-117086612D01*
X184396612Y-116928520D01*
X184520824Y-116742624D01*
X184535001Y-116708399D01*
X184535001Y-119347341D01*
X184416123Y-119426773D01*
X184196773Y-119646123D01*
X184150000Y-119716124D01*
X184103227Y-119646123D01*
X183883877Y-119426773D01*
X183625948Y-119254430D01*
X183339352Y-119135718D01*
X183035104Y-119075200D01*
X182724896Y-119075200D01*
X182420648Y-119135718D01*
X182134052Y-119254430D01*
X181876123Y-119426773D01*
X181656773Y-119646123D01*
X181484430Y-119904052D01*
X181365718Y-120190648D01*
X181305200Y-120494896D01*
X181305200Y-120805104D01*
X181365718Y-121109352D01*
X181484430Y-121395948D01*
X181656773Y-121653877D01*
X181876123Y-121873227D01*
X181995000Y-121952658D01*
X181995001Y-124728420D01*
X181594951Y-125128471D01*
X181561184Y-125156183D01*
X181533471Y-125189951D01*
X181533468Y-125189954D01*
X181450590Y-125290941D01*
X181368412Y-125444687D01*
X181317805Y-125611510D01*
X181300719Y-125785000D01*
X181305001Y-125828479D01*
X181305000Y-128405479D01*
X181275241Y-128425363D01*
X181075363Y-128625241D01*
X180918320Y-128860273D01*
X180810147Y-129121426D01*
X180805000Y-129147301D01*
X180799853Y-129121426D01*
X180691680Y-128860273D01*
X180534637Y-128625241D01*
X180334759Y-128425363D01*
X180099727Y-128268320D01*
X179838574Y-128160147D01*
X179561335Y-128105000D01*
X179278665Y-128105000D01*
X179001426Y-128160147D01*
X178740273Y-128268320D01*
X178505241Y-128425363D01*
X178305363Y-128625241D01*
X178148320Y-128860273D01*
X178040147Y-129121426D01*
X177985000Y-129398665D01*
X177985000Y-129681335D01*
X178040147Y-129958574D01*
X178148320Y-130219727D01*
X178305363Y-130454759D01*
X178505241Y-130654637D01*
X178740273Y-130811680D01*
X179001426Y-130919853D01*
X179278665Y-130975000D01*
X179561335Y-130975000D01*
X179838574Y-130919853D01*
X180099727Y-130811680D01*
X180334759Y-130654637D01*
X180534637Y-130454759D01*
X180691680Y-130219727D01*
X180799853Y-129958574D01*
X180805000Y-129932699D01*
X180810147Y-129958574D01*
X180918320Y-130219727D01*
X181075363Y-130454759D01*
X181275241Y-130654637D01*
X181510273Y-130811680D01*
X181771426Y-130919853D01*
X182048665Y-130975000D01*
X182331335Y-130975000D01*
X182608574Y-130919853D01*
X182869727Y-130811680D01*
X183104759Y-130654637D01*
X183304637Y-130454759D01*
X183461680Y-130219727D01*
X183569853Y-129958574D01*
X183575000Y-129932699D01*
X183580147Y-129958574D01*
X183688320Y-130219727D01*
X183845363Y-130454759D01*
X184045241Y-130654637D01*
X184280273Y-130811680D01*
X184541426Y-130919853D01*
X184818665Y-130975000D01*
X185101335Y-130975000D01*
X185378574Y-130919853D01*
X185639727Y-130811680D01*
X185874759Y-130654637D01*
X186074637Y-130454759D01*
X186231680Y-130219727D01*
X186339853Y-129958574D01*
X186345000Y-129932699D01*
X186350147Y-129958574D01*
X186458320Y-130219727D01*
X186615363Y-130454759D01*
X186815241Y-130654637D01*
X187050273Y-130811680D01*
X187311426Y-130919853D01*
X187588665Y-130975000D01*
X187871335Y-130975000D01*
X188148574Y-130919853D01*
X188409727Y-130811680D01*
X188644759Y-130654637D01*
X188844637Y-130454759D01*
X189001680Y-130219727D01*
X189061928Y-130074275D01*
X189061928Y-130340000D01*
X189074188Y-130464482D01*
X189110498Y-130584180D01*
X189169463Y-130694494D01*
X189248815Y-130791185D01*
X189345506Y-130870537D01*
X189455820Y-130929502D01*
X189575518Y-130965812D01*
X189700000Y-130978072D01*
X191300000Y-130978072D01*
X191424482Y-130965812D01*
X191544180Y-130929502D01*
X191654494Y-130870537D01*
X191751185Y-130791185D01*
X191830537Y-130694494D01*
X191889502Y-130584180D01*
X191925812Y-130464482D01*
X191938072Y-130340000D01*
X191938072Y-128740000D01*
X191925812Y-128615518D01*
X191889502Y-128495820D01*
X191830537Y-128385506D01*
X191751185Y-128288815D01*
X191654494Y-128209463D01*
X191544180Y-128150498D01*
X191424482Y-128114188D01*
X191300000Y-128101928D01*
X189700000Y-128101928D01*
X189575518Y-128114188D01*
X189455820Y-128150498D01*
X189345506Y-128209463D01*
X189248815Y-128288815D01*
X189169463Y-128385506D01*
X189110498Y-128495820D01*
X189074188Y-128615518D01*
X189061928Y-128740000D01*
X189061928Y-129005725D01*
X189001680Y-128860273D01*
X188844637Y-128625241D01*
X188644759Y-128425363D01*
X188409727Y-128268320D01*
X188148574Y-128160147D01*
X187871335Y-128105000D01*
X187588665Y-128105000D01*
X187311426Y-128160147D01*
X187050273Y-128268320D01*
X186815241Y-128425363D01*
X186615363Y-128625241D01*
X186458320Y-128860273D01*
X186350147Y-129121426D01*
X186345000Y-129147301D01*
X186339853Y-129121426D01*
X186231680Y-128860273D01*
X186074637Y-128625241D01*
X185874759Y-128425363D01*
X185639727Y-128268320D01*
X185378574Y-128160147D01*
X185101335Y-128105000D01*
X184818665Y-128105000D01*
X184541426Y-128160147D01*
X184280273Y-128268320D01*
X184045241Y-128425363D01*
X183845363Y-128625241D01*
X183688320Y-128860273D01*
X183580147Y-129121426D01*
X183575000Y-129147301D01*
X183569853Y-129121426D01*
X183461680Y-128860273D01*
X183304637Y-128625241D01*
X183104759Y-128425363D01*
X183075000Y-128405479D01*
X183075000Y-126151578D01*
X183475049Y-125751530D01*
X183508817Y-125723817D01*
X183539935Y-125685901D01*
X183619410Y-125589060D01*
X183619411Y-125589059D01*
X183701589Y-125435313D01*
X183752195Y-125268490D01*
X183765000Y-125138477D01*
X183765000Y-125138467D01*
X183769281Y-125095001D01*
X183765000Y-125051535D01*
X183765000Y-121952658D01*
X183883877Y-121873227D01*
X184103227Y-121653877D01*
X184150000Y-121583876D01*
X184196773Y-121653877D01*
X184416123Y-121873227D01*
X184674052Y-122045570D01*
X184960648Y-122164282D01*
X185264896Y-122224800D01*
X185575104Y-122224800D01*
X185879352Y-122164282D01*
X186165948Y-122045570D01*
X186423877Y-121873227D01*
X186643227Y-121653877D01*
X186690000Y-121583876D01*
X186736773Y-121653877D01*
X186956123Y-121873227D01*
X187214052Y-122045570D01*
X187500648Y-122164282D01*
X187804896Y-122224800D01*
X188115104Y-122224800D01*
X188419352Y-122164282D01*
X188705948Y-122045570D01*
X188963877Y-121873227D01*
X189183227Y-121653877D01*
X189230000Y-121583876D01*
X189276773Y-121653877D01*
X189496123Y-121873227D01*
X189754052Y-122045570D01*
X190040648Y-122164282D01*
X190344896Y-122224800D01*
X190655104Y-122224800D01*
X190959352Y-122164282D01*
X191245948Y-122045570D01*
X191503877Y-121873227D01*
X191723227Y-121653877D01*
X191770000Y-121583876D01*
X191816773Y-121653877D01*
X192036123Y-121873227D01*
X192153425Y-121951606D01*
X192150719Y-121979077D01*
X192167805Y-122152567D01*
X192218412Y-122319390D01*
X192300590Y-122473136D01*
X192383468Y-122574123D01*
X192383471Y-122574126D01*
X192411184Y-122607894D01*
X192444952Y-122635607D01*
X198257192Y-128447848D01*
X197953902Y-128358725D01*
X197436929Y-128312352D01*
X196920841Y-128367727D01*
X196425474Y-128522721D01*
X196008228Y-128745742D01*
X195792106Y-129112501D01*
X197460000Y-130780395D01*
X197474143Y-130766253D01*
X197653748Y-130945858D01*
X197639605Y-130960000D01*
X199307499Y-132627894D01*
X199674258Y-132411772D01*
X199914938Y-131951895D01*
X200061275Y-131453902D01*
X200107648Y-130936929D01*
X200052273Y-130420841D01*
X199971258Y-130161914D01*
X203754393Y-133945049D01*
X203782106Y-133978817D01*
X203815874Y-134006530D01*
X203815876Y-134006532D01*
X203916864Y-134089411D01*
X204070609Y-134171589D01*
X204237433Y-134222195D01*
X204367446Y-134235000D01*
X204367454Y-134235000D01*
X204410923Y-134239281D01*
X204454392Y-134235000D01*
X205815241Y-134235000D01*
X205954866Y-134405134D01*
X206180986Y-134590706D01*
X206235791Y-134620000D01*
X206180986Y-134649294D01*
X205954866Y-134834866D01*
X205769294Y-135060986D01*
X205631401Y-135318966D01*
X205546487Y-135598889D01*
X205517815Y-135890000D01*
X205546487Y-136181111D01*
X205631401Y-136461034D01*
X205769294Y-136719014D01*
X205954866Y-136945134D01*
X205984687Y-136969607D01*
X205915820Y-136990498D01*
X205805506Y-137049463D01*
X205708815Y-137128815D01*
X205629463Y-137225506D01*
X205570498Y-137335820D01*
X205534188Y-137455518D01*
X205521928Y-137580000D01*
X205525000Y-138144250D01*
X205683750Y-138303000D01*
X206883000Y-138303000D01*
X206883000Y-138283000D01*
X207137000Y-138283000D01*
X207137000Y-138303000D01*
X208336250Y-138303000D01*
X208495000Y-138144250D01*
X208498072Y-137580000D01*
X208485812Y-137455518D01*
X208449502Y-137335820D01*
X208390537Y-137225506D01*
X208311185Y-137128815D01*
X208214494Y-137049463D01*
X208104180Y-136990498D01*
X208035313Y-136969607D01*
X208065134Y-136945134D01*
X208102175Y-136900000D01*
X209810000Y-136900000D01*
X209810001Y-138011643D01*
X208496645Y-139325000D01*
X208493640Y-139325000D01*
X208498072Y-139280000D01*
X208495000Y-138715750D01*
X208336250Y-138557000D01*
X207137000Y-138557000D01*
X207137000Y-138577000D01*
X206883000Y-138577000D01*
X206883000Y-138557000D01*
X205683750Y-138557000D01*
X205525000Y-138715750D01*
X205521928Y-139280000D01*
X205526360Y-139325000D01*
X175043356Y-139325000D01*
X168650000Y-132931645D01*
X168650000Y-132807499D01*
X170792106Y-132807499D01*
X171008228Y-133174258D01*
X171468105Y-133414938D01*
X171966098Y-133561275D01*
X172483071Y-133607648D01*
X172999159Y-133552273D01*
X173494526Y-133397279D01*
X173911772Y-133174258D01*
X174127894Y-132807499D01*
X172460000Y-131139605D01*
X170792106Y-132807499D01*
X168650000Y-132807499D01*
X168650000Y-130983071D01*
X169812352Y-130983071D01*
X169867727Y-131499159D01*
X170022721Y-131994526D01*
X170245742Y-132411772D01*
X170612501Y-132627894D01*
X172280395Y-130960000D01*
X172639605Y-130960000D01*
X174307499Y-132627894D01*
X174674258Y-132411772D01*
X174914938Y-131951895D01*
X175061275Y-131453902D01*
X175107648Y-130936929D01*
X175052273Y-130420841D01*
X174897279Y-129925474D01*
X174674258Y-129508228D01*
X174307499Y-129292106D01*
X172639605Y-130960000D01*
X172280395Y-130960000D01*
X170612501Y-129292106D01*
X170245742Y-129508228D01*
X170005062Y-129968105D01*
X169858725Y-130466098D01*
X169812352Y-130983071D01*
X168650000Y-130983071D01*
X168650000Y-129112501D01*
X170792106Y-129112501D01*
X172460000Y-130780395D01*
X174127894Y-129112501D01*
X173911772Y-128745742D01*
X173451895Y-128505062D01*
X172953902Y-128358725D01*
X172436929Y-128312352D01*
X171920841Y-128367727D01*
X171425474Y-128522721D01*
X171008228Y-128745742D01*
X170792106Y-129112501D01*
X168650000Y-129112501D01*
X168650000Y-126365000D01*
X175515114Y-126365000D01*
X175520000Y-126414608D01*
X175520001Y-132030382D01*
X175515114Y-132080000D01*
X175534615Y-132277994D01*
X175592368Y-132468379D01*
X175686154Y-132643840D01*
X175777342Y-132754953D01*
X175812368Y-132797633D01*
X175850901Y-132829256D01*
X178320744Y-135299100D01*
X178352367Y-135337633D01*
X178506160Y-135463847D01*
X178681620Y-135557632D01*
X178872006Y-135615385D01*
X179020392Y-135630000D01*
X179020394Y-135630000D01*
X179069999Y-135634886D01*
X179119604Y-135630000D01*
X186825392Y-135630000D01*
X186875000Y-135634886D01*
X187072994Y-135615385D01*
X187127374Y-135598889D01*
X187263380Y-135557632D01*
X187438840Y-135463847D01*
X187592633Y-135337633D01*
X187624261Y-135299094D01*
X189108355Y-133815000D01*
X189256335Y-133815000D01*
X189533574Y-133759853D01*
X189794727Y-133651680D01*
X190029759Y-133494637D01*
X190229637Y-133294759D01*
X190386680Y-133059727D01*
X190491156Y-132807499D01*
X195792106Y-132807499D01*
X196008228Y-133174258D01*
X196468105Y-133414938D01*
X196966098Y-133561275D01*
X197483071Y-133607648D01*
X197999159Y-133552273D01*
X198494526Y-133397279D01*
X198911772Y-133174258D01*
X199127894Y-132807499D01*
X197460000Y-131139605D01*
X195792106Y-132807499D01*
X190491156Y-132807499D01*
X190494853Y-132798574D01*
X190550000Y-132521335D01*
X190550000Y-132238665D01*
X190494853Y-131961426D01*
X190386680Y-131700273D01*
X190229637Y-131465241D01*
X190029759Y-131265363D01*
X189794727Y-131108320D01*
X189533574Y-131000147D01*
X189447729Y-130983071D01*
X194812352Y-130983071D01*
X194867727Y-131499159D01*
X195022721Y-131994526D01*
X195245742Y-132411772D01*
X195612501Y-132627894D01*
X197280395Y-130960000D01*
X195612501Y-129292106D01*
X195245742Y-129508228D01*
X195005062Y-129968105D01*
X194858725Y-130466098D01*
X194812352Y-130983071D01*
X189447729Y-130983071D01*
X189256335Y-130945000D01*
X188973665Y-130945000D01*
X188696426Y-131000147D01*
X188435273Y-131108320D01*
X188200241Y-131265363D01*
X188000363Y-131465241D01*
X187843320Y-131700273D01*
X187735147Y-131961426D01*
X187730000Y-131987301D01*
X187724853Y-131961426D01*
X187616680Y-131700273D01*
X187459637Y-131465241D01*
X187259759Y-131265363D01*
X187024727Y-131108320D01*
X186763574Y-131000147D01*
X186486335Y-130945000D01*
X186203665Y-130945000D01*
X185926426Y-131000147D01*
X185665273Y-131108320D01*
X185430241Y-131265363D01*
X185230363Y-131465241D01*
X185073320Y-131700273D01*
X184965147Y-131961426D01*
X184959487Y-131989882D01*
X184878603Y-131763708D01*
X184811671Y-131638486D01*
X184567702Y-131566903D01*
X183754605Y-132380000D01*
X184567702Y-133193097D01*
X184811671Y-133121514D01*
X184932571Y-132866004D01*
X184958212Y-132763711D01*
X184965147Y-132798574D01*
X185073320Y-133059727D01*
X185230363Y-133294759D01*
X185430241Y-133494637D01*
X185602894Y-133610000D01*
X184318471Y-133610000D01*
X184388097Y-133372702D01*
X183575000Y-132559605D01*
X182761903Y-133372702D01*
X182831529Y-133610000D01*
X181547106Y-133610000D01*
X181719759Y-133494637D01*
X181919637Y-133294759D01*
X182076680Y-133059727D01*
X182184853Y-132798574D01*
X182190513Y-132770118D01*
X182271397Y-132996292D01*
X182338329Y-133121514D01*
X182582298Y-133193097D01*
X183395395Y-132380000D01*
X182582298Y-131566903D01*
X182338329Y-131638486D01*
X182217429Y-131893996D01*
X182191788Y-131996289D01*
X182184853Y-131961426D01*
X182076680Y-131700273D01*
X181919637Y-131465241D01*
X181841694Y-131387298D01*
X182761903Y-131387298D01*
X183575000Y-132200395D01*
X184388097Y-131387298D01*
X184316514Y-131143329D01*
X184061004Y-131022429D01*
X183786816Y-130953700D01*
X183504488Y-130939783D01*
X183224870Y-130981213D01*
X182958708Y-131076397D01*
X182833486Y-131143329D01*
X182761903Y-131387298D01*
X181841694Y-131387298D01*
X181719759Y-131265363D01*
X181484727Y-131108320D01*
X181223574Y-131000147D01*
X180946335Y-130945000D01*
X180663665Y-130945000D01*
X180386426Y-131000147D01*
X180125273Y-131108320D01*
X179890241Y-131265363D01*
X179690363Y-131465241D01*
X179533320Y-131700273D01*
X179425147Y-131961426D01*
X179370000Y-132238665D01*
X179370000Y-132521335D01*
X179425147Y-132798574D01*
X179533320Y-133059727D01*
X179690363Y-133294759D01*
X179890241Y-133494637D01*
X180062894Y-133610000D01*
X179488356Y-133610000D01*
X177540000Y-131661645D01*
X177540000Y-126783355D01*
X178479094Y-125844261D01*
X178517633Y-125812633D01*
X178643847Y-125658840D01*
X178737632Y-125483380D01*
X178795385Y-125292994D01*
X178810000Y-125144608D01*
X178810000Y-125144606D01*
X178814886Y-125095001D01*
X178810000Y-125045396D01*
X178810000Y-122947493D01*
X178819608Y-122939608D01*
X178998932Y-122721101D01*
X179132182Y-122471808D01*
X179214236Y-122201309D01*
X179241943Y-121920000D01*
X179214236Y-121638691D01*
X179132182Y-121368192D01*
X178998932Y-121118899D01*
X178819608Y-120900392D01*
X178601101Y-120721068D01*
X178351808Y-120587818D01*
X178081309Y-120505764D01*
X177870492Y-120485000D01*
X177729508Y-120485000D01*
X177518691Y-120505764D01*
X177248192Y-120587818D01*
X176998899Y-120721068D01*
X176780392Y-120900392D01*
X176601068Y-121118899D01*
X176467818Y-121368192D01*
X176385764Y-121638691D01*
X176358057Y-121920000D01*
X176385764Y-122201309D01*
X176467818Y-122471808D01*
X176601068Y-122721101D01*
X176780392Y-122939608D01*
X176790000Y-122947493D01*
X176790001Y-124676644D01*
X175850906Y-125615739D01*
X175812367Y-125647367D01*
X175686153Y-125801160D01*
X175602059Y-125958490D01*
X175592368Y-125976621D01*
X175534615Y-126167006D01*
X175515114Y-126365000D01*
X168650000Y-126365000D01*
X168650000Y-122930000D01*
X168780130Y-122930000D01*
X168790498Y-122964180D01*
X168849463Y-123074494D01*
X168928815Y-123171185D01*
X169025506Y-123250537D01*
X169135820Y-123309502D01*
X169255518Y-123345812D01*
X169380000Y-123358072D01*
X170980000Y-123358072D01*
X171104482Y-123345812D01*
X171224180Y-123309502D01*
X171334494Y-123250537D01*
X171431185Y-123171185D01*
X171510537Y-123074494D01*
X171569502Y-122964180D01*
X171605812Y-122844482D01*
X171618072Y-122720000D01*
X171618072Y-121120000D01*
X171605812Y-120995518D01*
X171569502Y-120875820D01*
X171510537Y-120765506D01*
X171431185Y-120668815D01*
X171334494Y-120589463D01*
X171224180Y-120530498D01*
X171104482Y-120494188D01*
X170980000Y-120481928D01*
X169380000Y-120481928D01*
X169255518Y-120494188D01*
X169135820Y-120530498D01*
X169025506Y-120589463D01*
X168928815Y-120668815D01*
X168849463Y-120765506D01*
X168790498Y-120875820D01*
X168780130Y-120910000D01*
X168650000Y-120910000D01*
X168650000Y-114923967D01*
X169760000Y-114923967D01*
X169760000Y-115246033D01*
X169822832Y-115561912D01*
X169946082Y-115859463D01*
X170125013Y-116127252D01*
X170352748Y-116354987D01*
X170620537Y-116533918D01*
X170918088Y-116657168D01*
X171233967Y-116720000D01*
X171556033Y-116720000D01*
X171871912Y-116657168D01*
X172169463Y-116533918D01*
X172437252Y-116354987D01*
X172571826Y-116220413D01*
X174939192Y-116220413D01*
X175034956Y-116484814D01*
X175324571Y-116625704D01*
X175636108Y-116707384D01*
X175957595Y-116726718D01*
X176276675Y-116682961D01*
X176581088Y-116577795D01*
X176755044Y-116484814D01*
X176850808Y-116220413D01*
X175895000Y-115264605D01*
X174939192Y-116220413D01*
X172571826Y-116220413D01*
X172664987Y-116127252D01*
X172843918Y-115859463D01*
X172967168Y-115561912D01*
X173030000Y-115246033D01*
X173030000Y-115147595D01*
X174253282Y-115147595D01*
X174297039Y-115466675D01*
X174402205Y-115771088D01*
X174495186Y-115945044D01*
X174759587Y-116040808D01*
X175715395Y-115085000D01*
X176074605Y-115085000D01*
X177030413Y-116040808D01*
X177294814Y-115945044D01*
X177435704Y-115655429D01*
X177517384Y-115343892D01*
X177536718Y-115022405D01*
X177492961Y-114703325D01*
X177387795Y-114398912D01*
X177294814Y-114224956D01*
X177030413Y-114129192D01*
X176074605Y-115085000D01*
X175715395Y-115085000D01*
X174759587Y-114129192D01*
X174495186Y-114224956D01*
X174354296Y-114514571D01*
X174272616Y-114826108D01*
X174253282Y-115147595D01*
X173030000Y-115147595D01*
X173030000Y-114923967D01*
X172967168Y-114608088D01*
X172843918Y-114310537D01*
X172664987Y-114042748D01*
X172571826Y-113949587D01*
X174939192Y-113949587D01*
X175895000Y-114905395D01*
X176850808Y-113949587D01*
X176755044Y-113685186D01*
X176465429Y-113544296D01*
X176153892Y-113462616D01*
X175832405Y-113443282D01*
X175513325Y-113487039D01*
X175208912Y-113592205D01*
X175034956Y-113685186D01*
X174939192Y-113949587D01*
X172571826Y-113949587D01*
X172437252Y-113815013D01*
X172169463Y-113636082D01*
X171871912Y-113512832D01*
X171556033Y-113450000D01*
X171233967Y-113450000D01*
X170918088Y-113512832D01*
X170620537Y-113636082D01*
X170352748Y-113815013D01*
X170125013Y-114042748D01*
X169946082Y-114310537D01*
X169822832Y-114608088D01*
X169760000Y-114923967D01*
X168650000Y-114923967D01*
X168650000Y-108423967D01*
X169760000Y-108423967D01*
X169760000Y-108746033D01*
X169822832Y-109061912D01*
X169946082Y-109359463D01*
X170125013Y-109627252D01*
X170352748Y-109854987D01*
X170620537Y-110033918D01*
X170918088Y-110157168D01*
X171233967Y-110220000D01*
X171556033Y-110220000D01*
X171871912Y-110157168D01*
X172169463Y-110033918D01*
X172437252Y-109854987D01*
X172571826Y-109720413D01*
X174939192Y-109720413D01*
X175034956Y-109984814D01*
X175324571Y-110125704D01*
X175636108Y-110207384D01*
X175957595Y-110226718D01*
X176276675Y-110182961D01*
X176581088Y-110077795D01*
X176755044Y-109984814D01*
X176850808Y-109720413D01*
X175895000Y-108764605D01*
X174939192Y-109720413D01*
X172571826Y-109720413D01*
X172664987Y-109627252D01*
X172843918Y-109359463D01*
X172967168Y-109061912D01*
X173030000Y-108746033D01*
X173030000Y-108647595D01*
X174253282Y-108647595D01*
X174297039Y-108966675D01*
X174402205Y-109271088D01*
X174495186Y-109445044D01*
X174759587Y-109540808D01*
X175715395Y-108585000D01*
X174759587Y-107629192D01*
X174495186Y-107724956D01*
X174354296Y-108014571D01*
X174272616Y-108326108D01*
X174253282Y-108647595D01*
X173030000Y-108647595D01*
X173030000Y-108423967D01*
X172967168Y-108108088D01*
X172843918Y-107810537D01*
X172664987Y-107542748D01*
X172437252Y-107315013D01*
X172169463Y-107136082D01*
X171871912Y-107012832D01*
X171556033Y-106950000D01*
X171233967Y-106950000D01*
X170918088Y-107012832D01*
X170620537Y-107136082D01*
X170352748Y-107315013D01*
X170125013Y-107542748D01*
X169946082Y-107810537D01*
X169822832Y-108108088D01*
X169760000Y-108423967D01*
X168650000Y-108423967D01*
X168650000Y-87370000D01*
X176707825Y-87370000D01*
X176744866Y-87415134D01*
G36*
X189615000Y-115936579D02*
G01*
X189615000Y-116161524D01*
X189615001Y-119347341D01*
X189496123Y-119426773D01*
X189276773Y-119646123D01*
X189230000Y-119716124D01*
X189183227Y-119646123D01*
X188963877Y-119426773D01*
X188705948Y-119254430D01*
X188419352Y-119135718D01*
X188115104Y-119075200D01*
X187804896Y-119075200D01*
X187500648Y-119135718D01*
X187214052Y-119254430D01*
X186956123Y-119426773D01*
X186736773Y-119646123D01*
X186690000Y-119716124D01*
X186643227Y-119646123D01*
X186423877Y-119426773D01*
X186305000Y-119347342D01*
X186305000Y-112626579D01*
X189615000Y-115936579D01*
X189615000Y-115936579D01*
G37*
X189615000Y-115936579D02*
X189615000Y-116161524D01*
X189615001Y-119347341D01*
X189496123Y-119426773D01*
X189276773Y-119646123D01*
X189230000Y-119716124D01*
X189183227Y-119646123D01*
X188963877Y-119426773D01*
X188705948Y-119254430D01*
X188419352Y-119135718D01*
X188115104Y-119075200D01*
X187804896Y-119075200D01*
X187500648Y-119135718D01*
X187214052Y-119254430D01*
X186956123Y-119426773D01*
X186736773Y-119646123D01*
X186690000Y-119716124D01*
X186643227Y-119646123D01*
X186423877Y-119426773D01*
X186305000Y-119347342D01*
X186305000Y-112626579D01*
X189615000Y-115936579D01*
G36*
X199775000Y-100696579D02*
G01*
X199775001Y-104107341D01*
X199656123Y-104186773D01*
X199436773Y-104406123D01*
X199390000Y-104476124D01*
X199343227Y-104406123D01*
X199123877Y-104186773D01*
X198865948Y-104014430D01*
X198579352Y-103895718D01*
X198275104Y-103835200D01*
X197964896Y-103835200D01*
X197660648Y-103895718D01*
X197374052Y-104014430D01*
X197116123Y-104186773D01*
X196896773Y-104406123D01*
X196850000Y-104476124D01*
X196803227Y-104406123D01*
X196583877Y-104186773D01*
X196325948Y-104014430D01*
X196039352Y-103895718D01*
X195735104Y-103835200D01*
X195424896Y-103835200D01*
X195120648Y-103895718D01*
X194834052Y-104014430D01*
X194576123Y-104186773D01*
X194356773Y-104406123D01*
X194310000Y-104476124D01*
X194263227Y-104406123D01*
X194043877Y-104186773D01*
X193785948Y-104014430D01*
X193499352Y-103895718D01*
X193195104Y-103835200D01*
X192884896Y-103835200D01*
X192580648Y-103895718D01*
X192294052Y-104014430D01*
X192036123Y-104186773D01*
X191816773Y-104406123D01*
X191770000Y-104476124D01*
X191723227Y-104406123D01*
X191503877Y-104186773D01*
X191245948Y-104014430D01*
X190959352Y-103895718D01*
X190655104Y-103835200D01*
X190344896Y-103835200D01*
X190040648Y-103895718D01*
X189754052Y-104014430D01*
X189496123Y-104186773D01*
X189276773Y-104406123D01*
X189230000Y-104476124D01*
X189183227Y-104406123D01*
X188963877Y-104186773D01*
X188705948Y-104014430D01*
X188419352Y-103895718D01*
X188115104Y-103835200D01*
X187804896Y-103835200D01*
X187500648Y-103895718D01*
X187214052Y-104014430D01*
X186956123Y-104186773D01*
X186736773Y-104406123D01*
X186690000Y-104476124D01*
X186643227Y-104406123D01*
X186423877Y-104186773D01*
X186165948Y-104014430D01*
X185879352Y-103895718D01*
X185575104Y-103835200D01*
X185264896Y-103835200D01*
X184960648Y-103895718D01*
X184674052Y-104014430D01*
X184416123Y-104186773D01*
X184196773Y-104406123D01*
X184150000Y-104476124D01*
X184103227Y-104406123D01*
X183883877Y-104186773D01*
X183625948Y-104014430D01*
X183339352Y-103895718D01*
X183035104Y-103835200D01*
X182724896Y-103835200D01*
X182420648Y-103895718D01*
X182134052Y-104014430D01*
X181876123Y-104186773D01*
X181656773Y-104406123D01*
X181484430Y-104664052D01*
X181365718Y-104950648D01*
X181326980Y-105145401D01*
X176780000Y-100598422D01*
X176780000Y-97603968D01*
X176970986Y-97760706D01*
X177228966Y-97898599D01*
X177508889Y-97983513D01*
X177727050Y-98005000D01*
X177872950Y-98005000D01*
X178091111Y-97983513D01*
X178371034Y-97898599D01*
X178629014Y-97760706D01*
X178855134Y-97575134D01*
X178994759Y-97405000D01*
X196483422Y-97405000D01*
X199775000Y-100696579D01*
X199775000Y-100696579D01*
G37*
X199775000Y-100696579D02*
X199775001Y-104107341D01*
X199656123Y-104186773D01*
X199436773Y-104406123D01*
X199390000Y-104476124D01*
X199343227Y-104406123D01*
X199123877Y-104186773D01*
X198865948Y-104014430D01*
X198579352Y-103895718D01*
X198275104Y-103835200D01*
X197964896Y-103835200D01*
X197660648Y-103895718D01*
X197374052Y-104014430D01*
X197116123Y-104186773D01*
X196896773Y-104406123D01*
X196850000Y-104476124D01*
X196803227Y-104406123D01*
X196583877Y-104186773D01*
X196325948Y-104014430D01*
X196039352Y-103895718D01*
X195735104Y-103835200D01*
X195424896Y-103835200D01*
X195120648Y-103895718D01*
X194834052Y-104014430D01*
X194576123Y-104186773D01*
X194356773Y-104406123D01*
X194310000Y-104476124D01*
X194263227Y-104406123D01*
X194043877Y-104186773D01*
X193785948Y-104014430D01*
X193499352Y-103895718D01*
X193195104Y-103835200D01*
X192884896Y-103835200D01*
X192580648Y-103895718D01*
X192294052Y-104014430D01*
X192036123Y-104186773D01*
X191816773Y-104406123D01*
X191770000Y-104476124D01*
X191723227Y-104406123D01*
X191503877Y-104186773D01*
X191245948Y-104014430D01*
X190959352Y-103895718D01*
X190655104Y-103835200D01*
X190344896Y-103835200D01*
X190040648Y-103895718D01*
X189754052Y-104014430D01*
X189496123Y-104186773D01*
X189276773Y-104406123D01*
X189230000Y-104476124D01*
X189183227Y-104406123D01*
X188963877Y-104186773D01*
X188705948Y-104014430D01*
X188419352Y-103895718D01*
X188115104Y-103835200D01*
X187804896Y-103835200D01*
X187500648Y-103895718D01*
X187214052Y-104014430D01*
X186956123Y-104186773D01*
X186736773Y-104406123D01*
X186690000Y-104476124D01*
X186643227Y-104406123D01*
X186423877Y-104186773D01*
X186165948Y-104014430D01*
X185879352Y-103895718D01*
X185575104Y-103835200D01*
X185264896Y-103835200D01*
X184960648Y-103895718D01*
X184674052Y-104014430D01*
X184416123Y-104186773D01*
X184196773Y-104406123D01*
X184150000Y-104476124D01*
X184103227Y-104406123D01*
X183883877Y-104186773D01*
X183625948Y-104014430D01*
X183339352Y-103895718D01*
X183035104Y-103835200D01*
X182724896Y-103835200D01*
X182420648Y-103895718D01*
X182134052Y-104014430D01*
X181876123Y-104186773D01*
X181656773Y-104406123D01*
X181484430Y-104664052D01*
X181365718Y-104950648D01*
X181326980Y-105145401D01*
X176780000Y-100598422D01*
X176780000Y-97603968D01*
X176970986Y-97760706D01*
X177228966Y-97898599D01*
X177508889Y-97983513D01*
X177727050Y-98005000D01*
X177872950Y-98005000D01*
X178091111Y-97983513D01*
X178371034Y-97898599D01*
X178629014Y-97760706D01*
X178855134Y-97575134D01*
X178994759Y-97405000D01*
X196483422Y-97405000D01*
X199775000Y-100696579D01*
M02*
