G04 #@! TF.GenerationSoftware,KiCad,Pcbnew,5.1.4*
G04 #@! TF.CreationDate,2019-11-11T19:51:54+01:00*
G04 #@! TF.ProjectId,PluggyReloaded,506c7567-6779-4526-956c-6f616465642e,rev?*
G04 #@! TF.SameCoordinates,Original*
G04 #@! TF.FileFunction,Soldermask,Top*
G04 #@! TF.FilePolarity,Negative*
%FSLAX46Y46*%
G04 Gerber Fmt 4.6, Leading zero omitted, Abs format (unit mm)*
G04 Created by KiCad (PCBNEW 5.1.4) date 2019-11-11 19:51:54*
%MOMM*%
%LPD*%
G04 APERTURE LIST*
%ADD10C,0.100000*%
G04 APERTURE END LIST*
D10*
G36*
X207911000Y-139331000D02*
G01*
X206109000Y-139331000D01*
X206109000Y-137529000D01*
X207911000Y-137529000D01*
X207911000Y-139331000D01*
X207911000Y-139331000D01*
G37*
G36*
X207120442Y-134995518D02*
G01*
X207186627Y-135002037D01*
X207356466Y-135053557D01*
X207512991Y-135137222D01*
X207548729Y-135166552D01*
X207650186Y-135249814D01*
X207733448Y-135351271D01*
X207762778Y-135387009D01*
X207846443Y-135543534D01*
X207897963Y-135713373D01*
X207915359Y-135890000D01*
X207897963Y-136066627D01*
X207846443Y-136236466D01*
X207762778Y-136392991D01*
X207733448Y-136428729D01*
X207650186Y-136530186D01*
X207548729Y-136613448D01*
X207512991Y-136642778D01*
X207356466Y-136726443D01*
X207186627Y-136777963D01*
X207120442Y-136784482D01*
X207054260Y-136791000D01*
X206965740Y-136791000D01*
X206899558Y-136784482D01*
X206833373Y-136777963D01*
X206663534Y-136726443D01*
X206507009Y-136642778D01*
X206471271Y-136613448D01*
X206369814Y-136530186D01*
X206286552Y-136428729D01*
X206257222Y-136392991D01*
X206173557Y-136236466D01*
X206122037Y-136066627D01*
X206104641Y-135890000D01*
X206122037Y-135713373D01*
X206173557Y-135543534D01*
X206257222Y-135387009D01*
X206286552Y-135351271D01*
X206369814Y-135249814D01*
X206471271Y-135166552D01*
X206507009Y-135137222D01*
X206663534Y-135053557D01*
X206833373Y-135002037D01*
X206899558Y-134995518D01*
X206965740Y-134989000D01*
X207054260Y-134989000D01*
X207120442Y-134995518D01*
X207120442Y-134995518D01*
G37*
G36*
X207120442Y-132455518D02*
G01*
X207186627Y-132462037D01*
X207356466Y-132513557D01*
X207512991Y-132597222D01*
X207548729Y-132626552D01*
X207650186Y-132709814D01*
X207710329Y-132783100D01*
X207762778Y-132847009D01*
X207846443Y-133003534D01*
X207897963Y-133173373D01*
X207915359Y-133350000D01*
X207897963Y-133526627D01*
X207846443Y-133696466D01*
X207762778Y-133852991D01*
X207733448Y-133888729D01*
X207650186Y-133990186D01*
X207548729Y-134073448D01*
X207512991Y-134102778D01*
X207356466Y-134186443D01*
X207186627Y-134237963D01*
X207120443Y-134244481D01*
X207054260Y-134251000D01*
X206965740Y-134251000D01*
X206899557Y-134244481D01*
X206833373Y-134237963D01*
X206663534Y-134186443D01*
X206507009Y-134102778D01*
X206471271Y-134073448D01*
X206369814Y-133990186D01*
X206286552Y-133888729D01*
X206257222Y-133852991D01*
X206173557Y-133696466D01*
X206122037Y-133526627D01*
X206104641Y-133350000D01*
X206122037Y-133173373D01*
X206173557Y-133003534D01*
X206257222Y-132847009D01*
X206309671Y-132783100D01*
X206369814Y-132709814D01*
X206471271Y-132626552D01*
X206507009Y-132597222D01*
X206663534Y-132513557D01*
X206833373Y-132462037D01*
X206899558Y-132455518D01*
X206965740Y-132449000D01*
X207054260Y-132449000D01*
X207120442Y-132455518D01*
X207120442Y-132455518D01*
G37*
G36*
X189363228Y-131561703D02*
G01*
X189518100Y-131625853D01*
X189657481Y-131718985D01*
X189776015Y-131837519D01*
X189869147Y-131976900D01*
X189933297Y-132131772D01*
X189966000Y-132296184D01*
X189966000Y-132463816D01*
X189933297Y-132628228D01*
X189869147Y-132783100D01*
X189776015Y-132922481D01*
X189657481Y-133041015D01*
X189518100Y-133134147D01*
X189363228Y-133198297D01*
X189198816Y-133231000D01*
X189031184Y-133231000D01*
X188866772Y-133198297D01*
X188711900Y-133134147D01*
X188572519Y-133041015D01*
X188453985Y-132922481D01*
X188360853Y-132783100D01*
X188296703Y-132628228D01*
X188264000Y-132463816D01*
X188264000Y-132296184D01*
X188296703Y-132131772D01*
X188360853Y-131976900D01*
X188453985Y-131837519D01*
X188572519Y-131718985D01*
X188711900Y-131625853D01*
X188866772Y-131561703D01*
X189031184Y-131529000D01*
X189198816Y-131529000D01*
X189363228Y-131561703D01*
X189363228Y-131561703D01*
G37*
G36*
X186593228Y-131561703D02*
G01*
X186748100Y-131625853D01*
X186887481Y-131718985D01*
X187006015Y-131837519D01*
X187099147Y-131976900D01*
X187163297Y-132131772D01*
X187196000Y-132296184D01*
X187196000Y-132463816D01*
X187163297Y-132628228D01*
X187099147Y-132783100D01*
X187006015Y-132922481D01*
X186887481Y-133041015D01*
X186748100Y-133134147D01*
X186593228Y-133198297D01*
X186428816Y-133231000D01*
X186261184Y-133231000D01*
X186096772Y-133198297D01*
X185941900Y-133134147D01*
X185802519Y-133041015D01*
X185683985Y-132922481D01*
X185590853Y-132783100D01*
X185526703Y-132628228D01*
X185494000Y-132463816D01*
X185494000Y-132296184D01*
X185526703Y-132131772D01*
X185590853Y-131976900D01*
X185683985Y-131837519D01*
X185802519Y-131718985D01*
X185941900Y-131625853D01*
X186096772Y-131561703D01*
X186261184Y-131529000D01*
X186428816Y-131529000D01*
X186593228Y-131561703D01*
X186593228Y-131561703D01*
G37*
G36*
X183823228Y-131561703D02*
G01*
X183978100Y-131625853D01*
X184117481Y-131718985D01*
X184236015Y-131837519D01*
X184329147Y-131976900D01*
X184393297Y-132131772D01*
X184426000Y-132296184D01*
X184426000Y-132463816D01*
X184393297Y-132628228D01*
X184329147Y-132783100D01*
X184236015Y-132922481D01*
X184117481Y-133041015D01*
X183978100Y-133134147D01*
X183823228Y-133198297D01*
X183658816Y-133231000D01*
X183491184Y-133231000D01*
X183326772Y-133198297D01*
X183171900Y-133134147D01*
X183032519Y-133041015D01*
X182913985Y-132922481D01*
X182820853Y-132783100D01*
X182756703Y-132628228D01*
X182724000Y-132463816D01*
X182724000Y-132296184D01*
X182756703Y-132131772D01*
X182820853Y-131976900D01*
X182913985Y-131837519D01*
X183032519Y-131718985D01*
X183171900Y-131625853D01*
X183326772Y-131561703D01*
X183491184Y-131529000D01*
X183658816Y-131529000D01*
X183823228Y-131561703D01*
X183823228Y-131561703D01*
G37*
G36*
X181053228Y-131561703D02*
G01*
X181208100Y-131625853D01*
X181347481Y-131718985D01*
X181466015Y-131837519D01*
X181559147Y-131976900D01*
X181623297Y-132131772D01*
X181656000Y-132296184D01*
X181656000Y-132463816D01*
X181623297Y-132628228D01*
X181559147Y-132783100D01*
X181466015Y-132922481D01*
X181347481Y-133041015D01*
X181208100Y-133134147D01*
X181053228Y-133198297D01*
X180888816Y-133231000D01*
X180721184Y-133231000D01*
X180556772Y-133198297D01*
X180401900Y-133134147D01*
X180262519Y-133041015D01*
X180143985Y-132922481D01*
X180050853Y-132783100D01*
X179986703Y-132628228D01*
X179954000Y-132463816D01*
X179954000Y-132296184D01*
X179986703Y-132131772D01*
X180050853Y-131976900D01*
X180143985Y-131837519D01*
X180262519Y-131718985D01*
X180401900Y-131625853D01*
X180556772Y-131561703D01*
X180721184Y-131529000D01*
X180888816Y-131529000D01*
X181053228Y-131561703D01*
X181053228Y-131561703D01*
G37*
G36*
X198058254Y-128987818D02*
G01*
X198344640Y-129106443D01*
X198431513Y-129142427D01*
X198767436Y-129366884D01*
X199053116Y-129652564D01*
X199267598Y-129973558D01*
X199277574Y-129988489D01*
X199432182Y-130361746D01*
X199511000Y-130757993D01*
X199511000Y-131162007D01*
X199432182Y-131558254D01*
X199316506Y-131837520D01*
X199277573Y-131931513D01*
X199053116Y-132267436D01*
X198767436Y-132553116D01*
X198431513Y-132777573D01*
X198431512Y-132777574D01*
X198431511Y-132777574D01*
X198058254Y-132932182D01*
X197662007Y-133011000D01*
X197257993Y-133011000D01*
X196861746Y-132932182D01*
X196488489Y-132777574D01*
X196488488Y-132777574D01*
X196488487Y-132777573D01*
X196152564Y-132553116D01*
X195866884Y-132267436D01*
X195642427Y-131931513D01*
X195603494Y-131837520D01*
X195487818Y-131558254D01*
X195409000Y-131162007D01*
X195409000Y-130757993D01*
X195487818Y-130361746D01*
X195642426Y-129988489D01*
X195652403Y-129973558D01*
X195866884Y-129652564D01*
X196152564Y-129366884D01*
X196488487Y-129142427D01*
X196575360Y-129106443D01*
X196861746Y-128987818D01*
X197257993Y-128909000D01*
X197662007Y-128909000D01*
X198058254Y-128987818D01*
X198058254Y-128987818D01*
G37*
G36*
X173058254Y-128987818D02*
G01*
X173344640Y-129106443D01*
X173431513Y-129142427D01*
X173767436Y-129366884D01*
X174053116Y-129652564D01*
X174267598Y-129973558D01*
X174277574Y-129988489D01*
X174432182Y-130361746D01*
X174511000Y-130757993D01*
X174511000Y-131162007D01*
X174432182Y-131558254D01*
X174316506Y-131837520D01*
X174277573Y-131931513D01*
X174053116Y-132267436D01*
X173767436Y-132553116D01*
X173431513Y-132777573D01*
X173431512Y-132777574D01*
X173431511Y-132777574D01*
X173058254Y-132932182D01*
X172662007Y-133011000D01*
X172257993Y-133011000D01*
X171861746Y-132932182D01*
X171488489Y-132777574D01*
X171488488Y-132777574D01*
X171488487Y-132777573D01*
X171152564Y-132553116D01*
X170866884Y-132267436D01*
X170642427Y-131931513D01*
X170603494Y-131837520D01*
X170487818Y-131558254D01*
X170409000Y-131162007D01*
X170409000Y-130757993D01*
X170487818Y-130361746D01*
X170642426Y-129988489D01*
X170652403Y-129973558D01*
X170866884Y-129652564D01*
X171152564Y-129366884D01*
X171488487Y-129142427D01*
X171575360Y-129106443D01*
X171861746Y-128987818D01*
X172257993Y-128909000D01*
X172662007Y-128909000D01*
X173058254Y-128987818D01*
X173058254Y-128987818D01*
G37*
G36*
X207120442Y-129915518D02*
G01*
X207186627Y-129922037D01*
X207356466Y-129973557D01*
X207512991Y-130057222D01*
X207543768Y-130082480D01*
X207650186Y-130169814D01*
X207733448Y-130271271D01*
X207762778Y-130307009D01*
X207846443Y-130463534D01*
X207897963Y-130633373D01*
X207915359Y-130810000D01*
X207897963Y-130986627D01*
X207846443Y-131156466D01*
X207762778Y-131312991D01*
X207733448Y-131348729D01*
X207650186Y-131450186D01*
X207554149Y-131529000D01*
X207512991Y-131562778D01*
X207356466Y-131646443D01*
X207186627Y-131697963D01*
X207120443Y-131704481D01*
X207054260Y-131711000D01*
X206965740Y-131711000D01*
X206899557Y-131704481D01*
X206833373Y-131697963D01*
X206663534Y-131646443D01*
X206507009Y-131562778D01*
X206465851Y-131529000D01*
X206369814Y-131450186D01*
X206286552Y-131348729D01*
X206257222Y-131312991D01*
X206173557Y-131156466D01*
X206122037Y-130986627D01*
X206104641Y-130810000D01*
X206122037Y-130633373D01*
X206173557Y-130463534D01*
X206257222Y-130307009D01*
X206286552Y-130271271D01*
X206369814Y-130169814D01*
X206476232Y-130082480D01*
X206507009Y-130057222D01*
X206663534Y-129973557D01*
X206833373Y-129922037D01*
X206899558Y-129915518D01*
X206965740Y-129909000D01*
X207054260Y-129909000D01*
X207120442Y-129915518D01*
X207120442Y-129915518D01*
G37*
G36*
X191351000Y-130391000D02*
G01*
X189649000Y-130391000D01*
X189649000Y-128689000D01*
X191351000Y-128689000D01*
X191351000Y-130391000D01*
X191351000Y-130391000D01*
G37*
G36*
X185208228Y-128721703D02*
G01*
X185363100Y-128785853D01*
X185502481Y-128878985D01*
X185621015Y-128997519D01*
X185714147Y-129136900D01*
X185778297Y-129291772D01*
X185811000Y-129456184D01*
X185811000Y-129623816D01*
X185778297Y-129788228D01*
X185714147Y-129943100D01*
X185621015Y-130082481D01*
X185502481Y-130201015D01*
X185363100Y-130294147D01*
X185208228Y-130358297D01*
X185043816Y-130391000D01*
X184876184Y-130391000D01*
X184711772Y-130358297D01*
X184556900Y-130294147D01*
X184417519Y-130201015D01*
X184298985Y-130082481D01*
X184205853Y-129943100D01*
X184141703Y-129788228D01*
X184109000Y-129623816D01*
X184109000Y-129456184D01*
X184141703Y-129291772D01*
X184205853Y-129136900D01*
X184298985Y-128997519D01*
X184417519Y-128878985D01*
X184556900Y-128785853D01*
X184711772Y-128721703D01*
X184876184Y-128689000D01*
X185043816Y-128689000D01*
X185208228Y-128721703D01*
X185208228Y-128721703D01*
G37*
G36*
X187978228Y-128721703D02*
G01*
X188133100Y-128785853D01*
X188272481Y-128878985D01*
X188391015Y-128997519D01*
X188484147Y-129136900D01*
X188548297Y-129291772D01*
X188581000Y-129456184D01*
X188581000Y-129623816D01*
X188548297Y-129788228D01*
X188484147Y-129943100D01*
X188391015Y-130082481D01*
X188272481Y-130201015D01*
X188133100Y-130294147D01*
X187978228Y-130358297D01*
X187813816Y-130391000D01*
X187646184Y-130391000D01*
X187481772Y-130358297D01*
X187326900Y-130294147D01*
X187187519Y-130201015D01*
X187068985Y-130082481D01*
X186975853Y-129943100D01*
X186911703Y-129788228D01*
X186879000Y-129623816D01*
X186879000Y-129456184D01*
X186911703Y-129291772D01*
X186975853Y-129136900D01*
X187068985Y-128997519D01*
X187187519Y-128878985D01*
X187326900Y-128785853D01*
X187481772Y-128721703D01*
X187646184Y-128689000D01*
X187813816Y-128689000D01*
X187978228Y-128721703D01*
X187978228Y-128721703D01*
G37*
G36*
X182438228Y-128721703D02*
G01*
X182593100Y-128785853D01*
X182732481Y-128878985D01*
X182851015Y-128997519D01*
X182944147Y-129136900D01*
X183008297Y-129291772D01*
X183041000Y-129456184D01*
X183041000Y-129623816D01*
X183008297Y-129788228D01*
X182944147Y-129943100D01*
X182851015Y-130082481D01*
X182732481Y-130201015D01*
X182593100Y-130294147D01*
X182438228Y-130358297D01*
X182273816Y-130391000D01*
X182106184Y-130391000D01*
X181941772Y-130358297D01*
X181786900Y-130294147D01*
X181647519Y-130201015D01*
X181528985Y-130082481D01*
X181435853Y-129943100D01*
X181371703Y-129788228D01*
X181339000Y-129623816D01*
X181339000Y-129456184D01*
X181371703Y-129291772D01*
X181435853Y-129136900D01*
X181528985Y-128997519D01*
X181647519Y-128878985D01*
X181786900Y-128785853D01*
X181941772Y-128721703D01*
X182106184Y-128689000D01*
X182273816Y-128689000D01*
X182438228Y-128721703D01*
X182438228Y-128721703D01*
G37*
G36*
X179668228Y-128721703D02*
G01*
X179823100Y-128785853D01*
X179962481Y-128878985D01*
X180081015Y-128997519D01*
X180174147Y-129136900D01*
X180238297Y-129291772D01*
X180271000Y-129456184D01*
X180271000Y-129623816D01*
X180238297Y-129788228D01*
X180174147Y-129943100D01*
X180081015Y-130082481D01*
X179962481Y-130201015D01*
X179823100Y-130294147D01*
X179668228Y-130358297D01*
X179503816Y-130391000D01*
X179336184Y-130391000D01*
X179171772Y-130358297D01*
X179016900Y-130294147D01*
X178877519Y-130201015D01*
X178758985Y-130082481D01*
X178665853Y-129943100D01*
X178601703Y-129788228D01*
X178569000Y-129623816D01*
X178569000Y-129456184D01*
X178601703Y-129291772D01*
X178665853Y-129136900D01*
X178758985Y-128997519D01*
X178877519Y-128878985D01*
X179016900Y-128785853D01*
X179171772Y-128721703D01*
X179336184Y-128689000D01*
X179503816Y-128689000D01*
X179668228Y-128721703D01*
X179668228Y-128721703D01*
G37*
G36*
X207120442Y-127375518D02*
G01*
X207186627Y-127382037D01*
X207356466Y-127433557D01*
X207512991Y-127517222D01*
X207548729Y-127546552D01*
X207650186Y-127629814D01*
X207733448Y-127731271D01*
X207762778Y-127767009D01*
X207846443Y-127923534D01*
X207897963Y-128093373D01*
X207915359Y-128270000D01*
X207897963Y-128446627D01*
X207846443Y-128616466D01*
X207762778Y-128772991D01*
X207752223Y-128785852D01*
X207650186Y-128910186D01*
X207548729Y-128993448D01*
X207512991Y-129022778D01*
X207356466Y-129106443D01*
X207186627Y-129157963D01*
X207120442Y-129164482D01*
X207054260Y-129171000D01*
X206965740Y-129171000D01*
X206899558Y-129164482D01*
X206833373Y-129157963D01*
X206663534Y-129106443D01*
X206507009Y-129022778D01*
X206471271Y-128993448D01*
X206369814Y-128910186D01*
X206267777Y-128785852D01*
X206257222Y-128772991D01*
X206173557Y-128616466D01*
X206122037Y-128446627D01*
X206104641Y-128270000D01*
X206122037Y-128093373D01*
X206173557Y-127923534D01*
X206257222Y-127767009D01*
X206286552Y-127731271D01*
X206369814Y-127629814D01*
X206471271Y-127546552D01*
X206507009Y-127517222D01*
X206663534Y-127433557D01*
X206833373Y-127382037D01*
X206899558Y-127375518D01*
X206965740Y-127369000D01*
X207054260Y-127369000D01*
X207120442Y-127375518D01*
X207120442Y-127375518D01*
G37*
G36*
X207120443Y-124835519D02*
G01*
X207186627Y-124842037D01*
X207356466Y-124893557D01*
X207512991Y-124977222D01*
X207548729Y-125006552D01*
X207650186Y-125089814D01*
X207733448Y-125191271D01*
X207762778Y-125227009D01*
X207846443Y-125383534D01*
X207897963Y-125553373D01*
X207915359Y-125730000D01*
X207897963Y-125906627D01*
X207846443Y-126076466D01*
X207762778Y-126232991D01*
X207733448Y-126268729D01*
X207650186Y-126370186D01*
X207548729Y-126453448D01*
X207512991Y-126482778D01*
X207356466Y-126566443D01*
X207186627Y-126617963D01*
X207120442Y-126624482D01*
X207054260Y-126631000D01*
X206965740Y-126631000D01*
X206899558Y-126624482D01*
X206833373Y-126617963D01*
X206663534Y-126566443D01*
X206507009Y-126482778D01*
X206471271Y-126453448D01*
X206369814Y-126370186D01*
X206286552Y-126268729D01*
X206257222Y-126232991D01*
X206173557Y-126076466D01*
X206122037Y-125906627D01*
X206104641Y-125730000D01*
X206122037Y-125553373D01*
X206173557Y-125383534D01*
X206257222Y-125227009D01*
X206286552Y-125191271D01*
X206369814Y-125089814D01*
X206471271Y-125006552D01*
X206507009Y-124977222D01*
X206663534Y-124893557D01*
X206833373Y-124842037D01*
X206899557Y-124835519D01*
X206965740Y-124829000D01*
X207054260Y-124829000D01*
X207120443Y-124835519D01*
X207120443Y-124835519D01*
G37*
G36*
X177966823Y-121081313D02*
G01*
X178127242Y-121129976D01*
X178259906Y-121200886D01*
X178275078Y-121208996D01*
X178404659Y-121315341D01*
X178511004Y-121444922D01*
X178511005Y-121444924D01*
X178590024Y-121592758D01*
X178638687Y-121753177D01*
X178655117Y-121920000D01*
X178638687Y-122086823D01*
X178590024Y-122247242D01*
X178519114Y-122379906D01*
X178511004Y-122395078D01*
X178404659Y-122524659D01*
X178275078Y-122631004D01*
X178275076Y-122631005D01*
X178127242Y-122710024D01*
X177966823Y-122758687D01*
X177841804Y-122771000D01*
X177758196Y-122771000D01*
X177633177Y-122758687D01*
X177472758Y-122710024D01*
X177324924Y-122631005D01*
X177324922Y-122631004D01*
X177195341Y-122524659D01*
X177088996Y-122395078D01*
X177080886Y-122379906D01*
X177009976Y-122247242D01*
X176961313Y-122086823D01*
X176944883Y-121920000D01*
X176961313Y-121753177D01*
X177009976Y-121592758D01*
X177088995Y-121444924D01*
X177088996Y-121444922D01*
X177195341Y-121315341D01*
X177324922Y-121208996D01*
X177340094Y-121200886D01*
X177472758Y-121129976D01*
X177633177Y-121081313D01*
X177758196Y-121069000D01*
X177841804Y-121069000D01*
X177966823Y-121081313D01*
X177966823Y-121081313D01*
G37*
G36*
X171031000Y-122771000D02*
G01*
X169329000Y-122771000D01*
X169329000Y-121069000D01*
X171031000Y-121069000D01*
X171031000Y-122771000D01*
X171031000Y-122771000D01*
G37*
G36*
X183183765Y-119648620D02*
G01*
X183373288Y-119727123D01*
X183543854Y-119841092D01*
X183688908Y-119986146D01*
X183688909Y-119986148D01*
X183802878Y-120156714D01*
X183881380Y-120346235D01*
X183921400Y-120547430D01*
X183921400Y-120752570D01*
X183881380Y-120953765D01*
X183808392Y-121129975D01*
X183802877Y-121143288D01*
X183688908Y-121313854D01*
X183543854Y-121458908D01*
X183373288Y-121572877D01*
X183373287Y-121572878D01*
X183373286Y-121572878D01*
X183183765Y-121651380D01*
X182982570Y-121691400D01*
X182777430Y-121691400D01*
X182576235Y-121651380D01*
X182386714Y-121572878D01*
X182386713Y-121572878D01*
X182386712Y-121572877D01*
X182216146Y-121458908D01*
X182071092Y-121313854D01*
X181957123Y-121143288D01*
X181951609Y-121129975D01*
X181878620Y-120953765D01*
X181838600Y-120752570D01*
X181838600Y-120547430D01*
X181878620Y-120346235D01*
X181957122Y-120156714D01*
X182071091Y-119986148D01*
X182071092Y-119986146D01*
X182216146Y-119841092D01*
X182386712Y-119727123D01*
X182576235Y-119648620D01*
X182777430Y-119608600D01*
X182982570Y-119608600D01*
X183183765Y-119648620D01*
X183183765Y-119648620D01*
G37*
G36*
X211123765Y-119648620D02*
G01*
X211313288Y-119727123D01*
X211483854Y-119841092D01*
X211628908Y-119986146D01*
X211628909Y-119986148D01*
X211742878Y-120156714D01*
X211821380Y-120346235D01*
X211861400Y-120547430D01*
X211861400Y-120752570D01*
X211821380Y-120953765D01*
X211748392Y-121129975D01*
X211742877Y-121143288D01*
X211628908Y-121313854D01*
X211483854Y-121458908D01*
X211313288Y-121572877D01*
X211313287Y-121572878D01*
X211313286Y-121572878D01*
X211123765Y-121651380D01*
X210922570Y-121691400D01*
X210717430Y-121691400D01*
X210516235Y-121651380D01*
X210326714Y-121572878D01*
X210326713Y-121572878D01*
X210326712Y-121572877D01*
X210156146Y-121458908D01*
X210011092Y-121313854D01*
X209897123Y-121143288D01*
X209891609Y-121129975D01*
X209818620Y-120953765D01*
X209778600Y-120752570D01*
X209778600Y-120547430D01*
X209818620Y-120346235D01*
X209897122Y-120156714D01*
X210011091Y-119986148D01*
X210011092Y-119986146D01*
X210156146Y-119841092D01*
X210326712Y-119727123D01*
X210516235Y-119648620D01*
X210717430Y-119608600D01*
X210922570Y-119608600D01*
X211123765Y-119648620D01*
X211123765Y-119648620D01*
G37*
G36*
X208583765Y-119648620D02*
G01*
X208773288Y-119727123D01*
X208943854Y-119841092D01*
X209088908Y-119986146D01*
X209088909Y-119986148D01*
X209202878Y-120156714D01*
X209281380Y-120346235D01*
X209321400Y-120547430D01*
X209321400Y-120752570D01*
X209281380Y-120953765D01*
X209208392Y-121129975D01*
X209202877Y-121143288D01*
X209088908Y-121313854D01*
X208943854Y-121458908D01*
X208773288Y-121572877D01*
X208773287Y-121572878D01*
X208773286Y-121572878D01*
X208583765Y-121651380D01*
X208382570Y-121691400D01*
X208177430Y-121691400D01*
X207976235Y-121651380D01*
X207786714Y-121572878D01*
X207786713Y-121572878D01*
X207786712Y-121572877D01*
X207616146Y-121458908D01*
X207471092Y-121313854D01*
X207357123Y-121143288D01*
X207351609Y-121129975D01*
X207278620Y-120953765D01*
X207238600Y-120752570D01*
X207238600Y-120547430D01*
X207278620Y-120346235D01*
X207357122Y-120156714D01*
X207471091Y-119986148D01*
X207471092Y-119986146D01*
X207616146Y-119841092D01*
X207786712Y-119727123D01*
X207976235Y-119648620D01*
X208177430Y-119608600D01*
X208382570Y-119608600D01*
X208583765Y-119648620D01*
X208583765Y-119648620D01*
G37*
G36*
X206043765Y-119648620D02*
G01*
X206233288Y-119727123D01*
X206403854Y-119841092D01*
X206548908Y-119986146D01*
X206548909Y-119986148D01*
X206662878Y-120156714D01*
X206741380Y-120346235D01*
X206781400Y-120547430D01*
X206781400Y-120752570D01*
X206741380Y-120953765D01*
X206668392Y-121129975D01*
X206662877Y-121143288D01*
X206548908Y-121313854D01*
X206403854Y-121458908D01*
X206233288Y-121572877D01*
X206233287Y-121572878D01*
X206233286Y-121572878D01*
X206043765Y-121651380D01*
X205842570Y-121691400D01*
X205637430Y-121691400D01*
X205436235Y-121651380D01*
X205246714Y-121572878D01*
X205246713Y-121572878D01*
X205246712Y-121572877D01*
X205076146Y-121458908D01*
X204931092Y-121313854D01*
X204817123Y-121143288D01*
X204811609Y-121129975D01*
X204738620Y-120953765D01*
X204698600Y-120752570D01*
X204698600Y-120547430D01*
X204738620Y-120346235D01*
X204817122Y-120156714D01*
X204931091Y-119986148D01*
X204931092Y-119986146D01*
X205076146Y-119841092D01*
X205246712Y-119727123D01*
X205436235Y-119648620D01*
X205637430Y-119608600D01*
X205842570Y-119608600D01*
X206043765Y-119648620D01*
X206043765Y-119648620D01*
G37*
G36*
X203503765Y-119648620D02*
G01*
X203693288Y-119727123D01*
X203863854Y-119841092D01*
X204008908Y-119986146D01*
X204008909Y-119986148D01*
X204122878Y-120156714D01*
X204201380Y-120346235D01*
X204241400Y-120547430D01*
X204241400Y-120752570D01*
X204201380Y-120953765D01*
X204128392Y-121129975D01*
X204122877Y-121143288D01*
X204008908Y-121313854D01*
X203863854Y-121458908D01*
X203693288Y-121572877D01*
X203693287Y-121572878D01*
X203693286Y-121572878D01*
X203503765Y-121651380D01*
X203302570Y-121691400D01*
X203097430Y-121691400D01*
X202896235Y-121651380D01*
X202706714Y-121572878D01*
X202706713Y-121572878D01*
X202706712Y-121572877D01*
X202536146Y-121458908D01*
X202391092Y-121313854D01*
X202277123Y-121143288D01*
X202271609Y-121129975D01*
X202198620Y-120953765D01*
X202158600Y-120752570D01*
X202158600Y-120547430D01*
X202198620Y-120346235D01*
X202277122Y-120156714D01*
X202391091Y-119986148D01*
X202391092Y-119986146D01*
X202536146Y-119841092D01*
X202706712Y-119727123D01*
X202896235Y-119648620D01*
X203097430Y-119608600D01*
X203302570Y-119608600D01*
X203503765Y-119648620D01*
X203503765Y-119648620D01*
G37*
G36*
X198423765Y-119648620D02*
G01*
X198613288Y-119727123D01*
X198783854Y-119841092D01*
X198928908Y-119986146D01*
X198928909Y-119986148D01*
X199042878Y-120156714D01*
X199121380Y-120346235D01*
X199161400Y-120547430D01*
X199161400Y-120752570D01*
X199121380Y-120953765D01*
X199048392Y-121129975D01*
X199042877Y-121143288D01*
X198928908Y-121313854D01*
X198783854Y-121458908D01*
X198613288Y-121572877D01*
X198613287Y-121572878D01*
X198613286Y-121572878D01*
X198423765Y-121651380D01*
X198222570Y-121691400D01*
X198017430Y-121691400D01*
X197816235Y-121651380D01*
X197626714Y-121572878D01*
X197626713Y-121572878D01*
X197626712Y-121572877D01*
X197456146Y-121458908D01*
X197311092Y-121313854D01*
X197197123Y-121143288D01*
X197191609Y-121129975D01*
X197118620Y-120953765D01*
X197078600Y-120752570D01*
X197078600Y-120547430D01*
X197118620Y-120346235D01*
X197197122Y-120156714D01*
X197311091Y-119986148D01*
X197311092Y-119986146D01*
X197456146Y-119841092D01*
X197626712Y-119727123D01*
X197816235Y-119648620D01*
X198017430Y-119608600D01*
X198222570Y-119608600D01*
X198423765Y-119648620D01*
X198423765Y-119648620D01*
G37*
G36*
X195883765Y-119648620D02*
G01*
X196073288Y-119727123D01*
X196243854Y-119841092D01*
X196388908Y-119986146D01*
X196388909Y-119986148D01*
X196502878Y-120156714D01*
X196581380Y-120346235D01*
X196621400Y-120547430D01*
X196621400Y-120752570D01*
X196581380Y-120953765D01*
X196508392Y-121129975D01*
X196502877Y-121143288D01*
X196388908Y-121313854D01*
X196243854Y-121458908D01*
X196073288Y-121572877D01*
X196073287Y-121572878D01*
X196073286Y-121572878D01*
X195883765Y-121651380D01*
X195682570Y-121691400D01*
X195477430Y-121691400D01*
X195276235Y-121651380D01*
X195086714Y-121572878D01*
X195086713Y-121572878D01*
X195086712Y-121572877D01*
X194916146Y-121458908D01*
X194771092Y-121313854D01*
X194657123Y-121143288D01*
X194651609Y-121129975D01*
X194578620Y-120953765D01*
X194538600Y-120752570D01*
X194538600Y-120547430D01*
X194578620Y-120346235D01*
X194657122Y-120156714D01*
X194771091Y-119986148D01*
X194771092Y-119986146D01*
X194916146Y-119841092D01*
X195086712Y-119727123D01*
X195276235Y-119648620D01*
X195477430Y-119608600D01*
X195682570Y-119608600D01*
X195883765Y-119648620D01*
X195883765Y-119648620D01*
G37*
G36*
X193343765Y-119648620D02*
G01*
X193533288Y-119727123D01*
X193703854Y-119841092D01*
X193848908Y-119986146D01*
X193848909Y-119986148D01*
X193962878Y-120156714D01*
X194041380Y-120346235D01*
X194081400Y-120547430D01*
X194081400Y-120752570D01*
X194041380Y-120953765D01*
X193968392Y-121129975D01*
X193962877Y-121143288D01*
X193848908Y-121313854D01*
X193703854Y-121458908D01*
X193533288Y-121572877D01*
X193533287Y-121572878D01*
X193533286Y-121572878D01*
X193343765Y-121651380D01*
X193142570Y-121691400D01*
X192937430Y-121691400D01*
X192736235Y-121651380D01*
X192546714Y-121572878D01*
X192546713Y-121572878D01*
X192546712Y-121572877D01*
X192376146Y-121458908D01*
X192231092Y-121313854D01*
X192117123Y-121143288D01*
X192111609Y-121129975D01*
X192038620Y-120953765D01*
X191998600Y-120752570D01*
X191998600Y-120547430D01*
X192038620Y-120346235D01*
X192117122Y-120156714D01*
X192231091Y-119986148D01*
X192231092Y-119986146D01*
X192376146Y-119841092D01*
X192546712Y-119727123D01*
X192736235Y-119648620D01*
X192937430Y-119608600D01*
X193142570Y-119608600D01*
X193343765Y-119648620D01*
X193343765Y-119648620D01*
G37*
G36*
X190803765Y-119648620D02*
G01*
X190993288Y-119727123D01*
X191163854Y-119841092D01*
X191308908Y-119986146D01*
X191308909Y-119986148D01*
X191422878Y-120156714D01*
X191501380Y-120346235D01*
X191541400Y-120547430D01*
X191541400Y-120752570D01*
X191501380Y-120953765D01*
X191428392Y-121129975D01*
X191422877Y-121143288D01*
X191308908Y-121313854D01*
X191163854Y-121458908D01*
X190993288Y-121572877D01*
X190993287Y-121572878D01*
X190993286Y-121572878D01*
X190803765Y-121651380D01*
X190602570Y-121691400D01*
X190397430Y-121691400D01*
X190196235Y-121651380D01*
X190006714Y-121572878D01*
X190006713Y-121572878D01*
X190006712Y-121572877D01*
X189836146Y-121458908D01*
X189691092Y-121313854D01*
X189577123Y-121143288D01*
X189571609Y-121129975D01*
X189498620Y-120953765D01*
X189458600Y-120752570D01*
X189458600Y-120547430D01*
X189498620Y-120346235D01*
X189577122Y-120156714D01*
X189691091Y-119986148D01*
X189691092Y-119986146D01*
X189836146Y-119841092D01*
X190006712Y-119727123D01*
X190196235Y-119648620D01*
X190397430Y-119608600D01*
X190602570Y-119608600D01*
X190803765Y-119648620D01*
X190803765Y-119648620D01*
G37*
G36*
X188263765Y-119648620D02*
G01*
X188453288Y-119727123D01*
X188623854Y-119841092D01*
X188768908Y-119986146D01*
X188768909Y-119986148D01*
X188882878Y-120156714D01*
X188961380Y-120346235D01*
X189001400Y-120547430D01*
X189001400Y-120752570D01*
X188961380Y-120953765D01*
X188888392Y-121129975D01*
X188882877Y-121143288D01*
X188768908Y-121313854D01*
X188623854Y-121458908D01*
X188453288Y-121572877D01*
X188453287Y-121572878D01*
X188453286Y-121572878D01*
X188263765Y-121651380D01*
X188062570Y-121691400D01*
X187857430Y-121691400D01*
X187656235Y-121651380D01*
X187466714Y-121572878D01*
X187466713Y-121572878D01*
X187466712Y-121572877D01*
X187296146Y-121458908D01*
X187151092Y-121313854D01*
X187037123Y-121143288D01*
X187031609Y-121129975D01*
X186958620Y-120953765D01*
X186918600Y-120752570D01*
X186918600Y-120547430D01*
X186958620Y-120346235D01*
X187037122Y-120156714D01*
X187151091Y-119986148D01*
X187151092Y-119986146D01*
X187296146Y-119841092D01*
X187466712Y-119727123D01*
X187656235Y-119648620D01*
X187857430Y-119608600D01*
X188062570Y-119608600D01*
X188263765Y-119648620D01*
X188263765Y-119648620D01*
G37*
G36*
X185723765Y-119648620D02*
G01*
X185913288Y-119727123D01*
X186083854Y-119841092D01*
X186228908Y-119986146D01*
X186228909Y-119986148D01*
X186342878Y-120156714D01*
X186421380Y-120346235D01*
X186461400Y-120547430D01*
X186461400Y-120752570D01*
X186421380Y-120953765D01*
X186348392Y-121129975D01*
X186342877Y-121143288D01*
X186228908Y-121313854D01*
X186083854Y-121458908D01*
X185913288Y-121572877D01*
X185913287Y-121572878D01*
X185913286Y-121572878D01*
X185723765Y-121651380D01*
X185522570Y-121691400D01*
X185317430Y-121691400D01*
X185116235Y-121651380D01*
X184926714Y-121572878D01*
X184926713Y-121572878D01*
X184926712Y-121572877D01*
X184756146Y-121458908D01*
X184611092Y-121313854D01*
X184497123Y-121143288D01*
X184491609Y-121129975D01*
X184418620Y-120953765D01*
X184378600Y-120752570D01*
X184378600Y-120547430D01*
X184418620Y-120346235D01*
X184497122Y-120156714D01*
X184611091Y-119986148D01*
X184611092Y-119986146D01*
X184756146Y-119841092D01*
X184926712Y-119727123D01*
X185116235Y-119648620D01*
X185317430Y-119608600D01*
X185522570Y-119608600D01*
X185723765Y-119648620D01*
X185723765Y-119648620D01*
G37*
G36*
X200963765Y-119648620D02*
G01*
X201153288Y-119727123D01*
X201323854Y-119841092D01*
X201468908Y-119986146D01*
X201468909Y-119986148D01*
X201582878Y-120156714D01*
X201661380Y-120346235D01*
X201701400Y-120547430D01*
X201701400Y-120752570D01*
X201661380Y-120953765D01*
X201588392Y-121129975D01*
X201582877Y-121143288D01*
X201468908Y-121313854D01*
X201323854Y-121458908D01*
X201153288Y-121572877D01*
X201153287Y-121572878D01*
X201153286Y-121572878D01*
X200963765Y-121651380D01*
X200762570Y-121691400D01*
X200557430Y-121691400D01*
X200356235Y-121651380D01*
X200166714Y-121572878D01*
X200166713Y-121572878D01*
X200166712Y-121572877D01*
X199996146Y-121458908D01*
X199851092Y-121313854D01*
X199737123Y-121143288D01*
X199731609Y-121129975D01*
X199658620Y-120953765D01*
X199618600Y-120752570D01*
X199618600Y-120547430D01*
X199658620Y-120346235D01*
X199737122Y-120156714D01*
X199851091Y-119986148D01*
X199851092Y-119986146D01*
X199996146Y-119841092D01*
X200166712Y-119727123D01*
X200356235Y-119648620D01*
X200557430Y-119608600D01*
X200762570Y-119608600D01*
X200963765Y-119648620D01*
X200963765Y-119648620D01*
G37*
G36*
X176201564Y-114074389D02*
G01*
X176392833Y-114153615D01*
X176392835Y-114153616D01*
X176564973Y-114268635D01*
X176711365Y-114415027D01*
X176826385Y-114587167D01*
X176905611Y-114778436D01*
X176946000Y-114981484D01*
X176946000Y-115188516D01*
X176905611Y-115391564D01*
X176826385Y-115582833D01*
X176826384Y-115582835D01*
X176711365Y-115754973D01*
X176564973Y-115901365D01*
X176392835Y-116016384D01*
X176392834Y-116016385D01*
X176392833Y-116016385D01*
X176201564Y-116095611D01*
X175998516Y-116136000D01*
X175791484Y-116136000D01*
X175588436Y-116095611D01*
X175397167Y-116016385D01*
X175397166Y-116016385D01*
X175397165Y-116016384D01*
X175225027Y-115901365D01*
X175078635Y-115754973D01*
X174963616Y-115582835D01*
X174963615Y-115582833D01*
X174884389Y-115391564D01*
X174844000Y-115188516D01*
X174844000Y-114981484D01*
X174884389Y-114778436D01*
X174963615Y-114587167D01*
X175078635Y-114415027D01*
X175225027Y-114268635D01*
X175397165Y-114153616D01*
X175397167Y-114153615D01*
X175588436Y-114074389D01*
X175791484Y-114034000D01*
X175998516Y-114034000D01*
X176201564Y-114074389D01*
X176201564Y-114074389D01*
G37*
G36*
X171701564Y-114074389D02*
G01*
X171892833Y-114153615D01*
X171892835Y-114153616D01*
X172064973Y-114268635D01*
X172211365Y-114415027D01*
X172326385Y-114587167D01*
X172405611Y-114778436D01*
X172446000Y-114981484D01*
X172446000Y-115188516D01*
X172405611Y-115391564D01*
X172326385Y-115582833D01*
X172326384Y-115582835D01*
X172211365Y-115754973D01*
X172064973Y-115901365D01*
X171892835Y-116016384D01*
X171892834Y-116016385D01*
X171892833Y-116016385D01*
X171701564Y-116095611D01*
X171498516Y-116136000D01*
X171291484Y-116136000D01*
X171088436Y-116095611D01*
X170897167Y-116016385D01*
X170897166Y-116016385D01*
X170897165Y-116016384D01*
X170725027Y-115901365D01*
X170578635Y-115754973D01*
X170463616Y-115582835D01*
X170463615Y-115582833D01*
X170384389Y-115391564D01*
X170344000Y-115188516D01*
X170344000Y-114981484D01*
X170384389Y-114778436D01*
X170463615Y-114587167D01*
X170578635Y-114415027D01*
X170725027Y-114268635D01*
X170897165Y-114153616D01*
X170897167Y-114153615D01*
X171088436Y-114074389D01*
X171291484Y-114034000D01*
X171498516Y-114034000D01*
X171701564Y-114074389D01*
X171701564Y-114074389D01*
G37*
G36*
X171701564Y-107574389D02*
G01*
X171892833Y-107653615D01*
X171892835Y-107653616D01*
X172064973Y-107768635D01*
X172211365Y-107915027D01*
X172326385Y-108087167D01*
X172405611Y-108278436D01*
X172446000Y-108481484D01*
X172446000Y-108688516D01*
X172405611Y-108891564D01*
X172326385Y-109082833D01*
X172326384Y-109082835D01*
X172211365Y-109254973D01*
X172064973Y-109401365D01*
X171892835Y-109516384D01*
X171892834Y-109516385D01*
X171892833Y-109516385D01*
X171701564Y-109595611D01*
X171498516Y-109636000D01*
X171291484Y-109636000D01*
X171088436Y-109595611D01*
X170897167Y-109516385D01*
X170897166Y-109516385D01*
X170897165Y-109516384D01*
X170725027Y-109401365D01*
X170578635Y-109254973D01*
X170463616Y-109082835D01*
X170463615Y-109082833D01*
X170384389Y-108891564D01*
X170344000Y-108688516D01*
X170344000Y-108481484D01*
X170384389Y-108278436D01*
X170463615Y-108087167D01*
X170578635Y-107915027D01*
X170725027Y-107768635D01*
X170897165Y-107653616D01*
X170897167Y-107653615D01*
X171088436Y-107574389D01*
X171291484Y-107534000D01*
X171498516Y-107534000D01*
X171701564Y-107574389D01*
X171701564Y-107574389D01*
G37*
G36*
X176201564Y-107574389D02*
G01*
X176392833Y-107653615D01*
X176392835Y-107653616D01*
X176564973Y-107768635D01*
X176711365Y-107915027D01*
X176826385Y-108087167D01*
X176905611Y-108278436D01*
X176946000Y-108481484D01*
X176946000Y-108688516D01*
X176905611Y-108891564D01*
X176826385Y-109082833D01*
X176826384Y-109082835D01*
X176711365Y-109254973D01*
X176564973Y-109401365D01*
X176392835Y-109516384D01*
X176392834Y-109516385D01*
X176392833Y-109516385D01*
X176201564Y-109595611D01*
X175998516Y-109636000D01*
X175791484Y-109636000D01*
X175588436Y-109595611D01*
X175397167Y-109516385D01*
X175397166Y-109516385D01*
X175397165Y-109516384D01*
X175225027Y-109401365D01*
X175078635Y-109254973D01*
X174963616Y-109082835D01*
X174963615Y-109082833D01*
X174884389Y-108891564D01*
X174844000Y-108688516D01*
X174844000Y-108481484D01*
X174884389Y-108278436D01*
X174963615Y-108087167D01*
X175078635Y-107915027D01*
X175225027Y-107768635D01*
X175397165Y-107653616D01*
X175397167Y-107653615D01*
X175588436Y-107574389D01*
X175791484Y-107534000D01*
X175998516Y-107534000D01*
X176201564Y-107574389D01*
X176201564Y-107574389D01*
G37*
G36*
X211123765Y-104408620D02*
G01*
X211313288Y-104487123D01*
X211483854Y-104601092D01*
X211628908Y-104746146D01*
X211742877Y-104916712D01*
X211821380Y-105106235D01*
X211861400Y-105307431D01*
X211861400Y-105512569D01*
X211821380Y-105713765D01*
X211742877Y-105903288D01*
X211628908Y-106073854D01*
X211483854Y-106218908D01*
X211313288Y-106332877D01*
X211313287Y-106332878D01*
X211313286Y-106332878D01*
X211123765Y-106411380D01*
X210922570Y-106451400D01*
X210717430Y-106451400D01*
X210516235Y-106411380D01*
X210326714Y-106332878D01*
X210326713Y-106332878D01*
X210326712Y-106332877D01*
X210156146Y-106218908D01*
X210011092Y-106073854D01*
X209897123Y-105903288D01*
X209818620Y-105713765D01*
X209778600Y-105512569D01*
X209778600Y-105307431D01*
X209818620Y-105106235D01*
X209897123Y-104916712D01*
X210011092Y-104746146D01*
X210156146Y-104601092D01*
X210326712Y-104487123D01*
X210516235Y-104408620D01*
X210717430Y-104368600D01*
X210922570Y-104368600D01*
X211123765Y-104408620D01*
X211123765Y-104408620D01*
G37*
G36*
X183183765Y-104408620D02*
G01*
X183373288Y-104487123D01*
X183543854Y-104601092D01*
X183688908Y-104746146D01*
X183802877Y-104916712D01*
X183881380Y-105106235D01*
X183921400Y-105307431D01*
X183921400Y-105512569D01*
X183881380Y-105713765D01*
X183802877Y-105903288D01*
X183688908Y-106073854D01*
X183543854Y-106218908D01*
X183373288Y-106332877D01*
X183373287Y-106332878D01*
X183373286Y-106332878D01*
X183183765Y-106411380D01*
X182982570Y-106451400D01*
X182777430Y-106451400D01*
X182576235Y-106411380D01*
X182386714Y-106332878D01*
X182386713Y-106332878D01*
X182386712Y-106332877D01*
X182216146Y-106218908D01*
X182071092Y-106073854D01*
X181957123Y-105903288D01*
X181878620Y-105713765D01*
X181838600Y-105512569D01*
X181838600Y-105307431D01*
X181878620Y-105106235D01*
X181957123Y-104916712D01*
X182071092Y-104746146D01*
X182216146Y-104601092D01*
X182386712Y-104487123D01*
X182576235Y-104408620D01*
X182777430Y-104368600D01*
X182982570Y-104368600D01*
X183183765Y-104408620D01*
X183183765Y-104408620D01*
G37*
G36*
X185723765Y-104408620D02*
G01*
X185913288Y-104487123D01*
X186083854Y-104601092D01*
X186228908Y-104746146D01*
X186342877Y-104916712D01*
X186421380Y-105106235D01*
X186461400Y-105307431D01*
X186461400Y-105512569D01*
X186421380Y-105713765D01*
X186342877Y-105903288D01*
X186228908Y-106073854D01*
X186083854Y-106218908D01*
X185913288Y-106332877D01*
X185913287Y-106332878D01*
X185913286Y-106332878D01*
X185723765Y-106411380D01*
X185522570Y-106451400D01*
X185317430Y-106451400D01*
X185116235Y-106411380D01*
X184926714Y-106332878D01*
X184926713Y-106332878D01*
X184926712Y-106332877D01*
X184756146Y-106218908D01*
X184611092Y-106073854D01*
X184497123Y-105903288D01*
X184418620Y-105713765D01*
X184378600Y-105512569D01*
X184378600Y-105307431D01*
X184418620Y-105106235D01*
X184497123Y-104916712D01*
X184611092Y-104746146D01*
X184756146Y-104601092D01*
X184926712Y-104487123D01*
X185116235Y-104408620D01*
X185317430Y-104368600D01*
X185522570Y-104368600D01*
X185723765Y-104408620D01*
X185723765Y-104408620D01*
G37*
G36*
X188263765Y-104408620D02*
G01*
X188453288Y-104487123D01*
X188623854Y-104601092D01*
X188768908Y-104746146D01*
X188882877Y-104916712D01*
X188961380Y-105106235D01*
X189001400Y-105307431D01*
X189001400Y-105512569D01*
X188961380Y-105713765D01*
X188882877Y-105903288D01*
X188768908Y-106073854D01*
X188623854Y-106218908D01*
X188453288Y-106332877D01*
X188453287Y-106332878D01*
X188453286Y-106332878D01*
X188263765Y-106411380D01*
X188062570Y-106451400D01*
X187857430Y-106451400D01*
X187656235Y-106411380D01*
X187466714Y-106332878D01*
X187466713Y-106332878D01*
X187466712Y-106332877D01*
X187296146Y-106218908D01*
X187151092Y-106073854D01*
X187037123Y-105903288D01*
X186958620Y-105713765D01*
X186918600Y-105512569D01*
X186918600Y-105307431D01*
X186958620Y-105106235D01*
X187037123Y-104916712D01*
X187151092Y-104746146D01*
X187296146Y-104601092D01*
X187466712Y-104487123D01*
X187656235Y-104408620D01*
X187857430Y-104368600D01*
X188062570Y-104368600D01*
X188263765Y-104408620D01*
X188263765Y-104408620D01*
G37*
G36*
X190803765Y-104408620D02*
G01*
X190993288Y-104487123D01*
X191163854Y-104601092D01*
X191308908Y-104746146D01*
X191422877Y-104916712D01*
X191501380Y-105106235D01*
X191541400Y-105307431D01*
X191541400Y-105512569D01*
X191501380Y-105713765D01*
X191422877Y-105903288D01*
X191308908Y-106073854D01*
X191163854Y-106218908D01*
X190993288Y-106332877D01*
X190993287Y-106332878D01*
X190993286Y-106332878D01*
X190803765Y-106411380D01*
X190602570Y-106451400D01*
X190397430Y-106451400D01*
X190196235Y-106411380D01*
X190006714Y-106332878D01*
X190006713Y-106332878D01*
X190006712Y-106332877D01*
X189836146Y-106218908D01*
X189691092Y-106073854D01*
X189577123Y-105903288D01*
X189498620Y-105713765D01*
X189458600Y-105512569D01*
X189458600Y-105307431D01*
X189498620Y-105106235D01*
X189577123Y-104916712D01*
X189691092Y-104746146D01*
X189836146Y-104601092D01*
X190006712Y-104487123D01*
X190196235Y-104408620D01*
X190397430Y-104368600D01*
X190602570Y-104368600D01*
X190803765Y-104408620D01*
X190803765Y-104408620D01*
G37*
G36*
X193343765Y-104408620D02*
G01*
X193533288Y-104487123D01*
X193703854Y-104601092D01*
X193848908Y-104746146D01*
X193962877Y-104916712D01*
X194041380Y-105106235D01*
X194081400Y-105307431D01*
X194081400Y-105512569D01*
X194041380Y-105713765D01*
X193962877Y-105903288D01*
X193848908Y-106073854D01*
X193703854Y-106218908D01*
X193533288Y-106332877D01*
X193533287Y-106332878D01*
X193533286Y-106332878D01*
X193343765Y-106411380D01*
X193142570Y-106451400D01*
X192937430Y-106451400D01*
X192736235Y-106411380D01*
X192546714Y-106332878D01*
X192546713Y-106332878D01*
X192546712Y-106332877D01*
X192376146Y-106218908D01*
X192231092Y-106073854D01*
X192117123Y-105903288D01*
X192038620Y-105713765D01*
X191998600Y-105512569D01*
X191998600Y-105307431D01*
X192038620Y-105106235D01*
X192117123Y-104916712D01*
X192231092Y-104746146D01*
X192376146Y-104601092D01*
X192546712Y-104487123D01*
X192736235Y-104408620D01*
X192937430Y-104368600D01*
X193142570Y-104368600D01*
X193343765Y-104408620D01*
X193343765Y-104408620D01*
G37*
G36*
X200963765Y-104408620D02*
G01*
X201153288Y-104487123D01*
X201323854Y-104601092D01*
X201468908Y-104746146D01*
X201582877Y-104916712D01*
X201661380Y-105106235D01*
X201701400Y-105307431D01*
X201701400Y-105512569D01*
X201661380Y-105713765D01*
X201582877Y-105903288D01*
X201468908Y-106073854D01*
X201323854Y-106218908D01*
X201153288Y-106332877D01*
X201153287Y-106332878D01*
X201153286Y-106332878D01*
X200963765Y-106411380D01*
X200762570Y-106451400D01*
X200557430Y-106451400D01*
X200356235Y-106411380D01*
X200166714Y-106332878D01*
X200166713Y-106332878D01*
X200166712Y-106332877D01*
X199996146Y-106218908D01*
X199851092Y-106073854D01*
X199737123Y-105903288D01*
X199658620Y-105713765D01*
X199618600Y-105512569D01*
X199618600Y-105307431D01*
X199658620Y-105106235D01*
X199737123Y-104916712D01*
X199851092Y-104746146D01*
X199996146Y-104601092D01*
X200166712Y-104487123D01*
X200356235Y-104408620D01*
X200557430Y-104368600D01*
X200762570Y-104368600D01*
X200963765Y-104408620D01*
X200963765Y-104408620D01*
G37*
G36*
X203503765Y-104408620D02*
G01*
X203693288Y-104487123D01*
X203863854Y-104601092D01*
X204008908Y-104746146D01*
X204122877Y-104916712D01*
X204201380Y-105106235D01*
X204241400Y-105307431D01*
X204241400Y-105512569D01*
X204201380Y-105713765D01*
X204122877Y-105903288D01*
X204008908Y-106073854D01*
X203863854Y-106218908D01*
X203693288Y-106332877D01*
X203693287Y-106332878D01*
X203693286Y-106332878D01*
X203503765Y-106411380D01*
X203302570Y-106451400D01*
X203097430Y-106451400D01*
X202896235Y-106411380D01*
X202706714Y-106332878D01*
X202706713Y-106332878D01*
X202706712Y-106332877D01*
X202536146Y-106218908D01*
X202391092Y-106073854D01*
X202277123Y-105903288D01*
X202198620Y-105713765D01*
X202158600Y-105512569D01*
X202158600Y-105307431D01*
X202198620Y-105106235D01*
X202277123Y-104916712D01*
X202391092Y-104746146D01*
X202536146Y-104601092D01*
X202706712Y-104487123D01*
X202896235Y-104408620D01*
X203097430Y-104368600D01*
X203302570Y-104368600D01*
X203503765Y-104408620D01*
X203503765Y-104408620D01*
G37*
G36*
X206043765Y-104408620D02*
G01*
X206233288Y-104487123D01*
X206403854Y-104601092D01*
X206548908Y-104746146D01*
X206662877Y-104916712D01*
X206741380Y-105106235D01*
X206781400Y-105307431D01*
X206781400Y-105512569D01*
X206741380Y-105713765D01*
X206662877Y-105903288D01*
X206548908Y-106073854D01*
X206403854Y-106218908D01*
X206233288Y-106332877D01*
X206233287Y-106332878D01*
X206233286Y-106332878D01*
X206043765Y-106411380D01*
X205842570Y-106451400D01*
X205637430Y-106451400D01*
X205436235Y-106411380D01*
X205246714Y-106332878D01*
X205246713Y-106332878D01*
X205246712Y-106332877D01*
X205076146Y-106218908D01*
X204931092Y-106073854D01*
X204817123Y-105903288D01*
X204738620Y-105713765D01*
X204698600Y-105512569D01*
X204698600Y-105307431D01*
X204738620Y-105106235D01*
X204817123Y-104916712D01*
X204931092Y-104746146D01*
X205076146Y-104601092D01*
X205246712Y-104487123D01*
X205436235Y-104408620D01*
X205637430Y-104368600D01*
X205842570Y-104368600D01*
X206043765Y-104408620D01*
X206043765Y-104408620D01*
G37*
G36*
X208583765Y-104408620D02*
G01*
X208773288Y-104487123D01*
X208943854Y-104601092D01*
X209088908Y-104746146D01*
X209202877Y-104916712D01*
X209281380Y-105106235D01*
X209321400Y-105307431D01*
X209321400Y-105512569D01*
X209281380Y-105713765D01*
X209202877Y-105903288D01*
X209088908Y-106073854D01*
X208943854Y-106218908D01*
X208773288Y-106332877D01*
X208773287Y-106332878D01*
X208773286Y-106332878D01*
X208583765Y-106411380D01*
X208382570Y-106451400D01*
X208177430Y-106451400D01*
X207976235Y-106411380D01*
X207786714Y-106332878D01*
X207786713Y-106332878D01*
X207786712Y-106332877D01*
X207616146Y-106218908D01*
X207471092Y-106073854D01*
X207357123Y-105903288D01*
X207278620Y-105713765D01*
X207238600Y-105512569D01*
X207238600Y-105307431D01*
X207278620Y-105106235D01*
X207357123Y-104916712D01*
X207471092Y-104746146D01*
X207616146Y-104601092D01*
X207786712Y-104487123D01*
X207976235Y-104408620D01*
X208177430Y-104368600D01*
X208382570Y-104368600D01*
X208583765Y-104408620D01*
X208583765Y-104408620D01*
G37*
G36*
X198423765Y-104408620D02*
G01*
X198613288Y-104487123D01*
X198783854Y-104601092D01*
X198928908Y-104746146D01*
X199042877Y-104916712D01*
X199121380Y-105106235D01*
X199161400Y-105307431D01*
X199161400Y-105512569D01*
X199121380Y-105713765D01*
X199042877Y-105903288D01*
X198928908Y-106073854D01*
X198783854Y-106218908D01*
X198613288Y-106332877D01*
X198613287Y-106332878D01*
X198613286Y-106332878D01*
X198423765Y-106411380D01*
X198222570Y-106451400D01*
X198017430Y-106451400D01*
X197816235Y-106411380D01*
X197626714Y-106332878D01*
X197626713Y-106332878D01*
X197626712Y-106332877D01*
X197456146Y-106218908D01*
X197311092Y-106073854D01*
X197197123Y-105903288D01*
X197118620Y-105713765D01*
X197078600Y-105512569D01*
X197078600Y-105307431D01*
X197118620Y-105106235D01*
X197197123Y-104916712D01*
X197311092Y-104746146D01*
X197456146Y-104601092D01*
X197626712Y-104487123D01*
X197816235Y-104408620D01*
X198017430Y-104368600D01*
X198222570Y-104368600D01*
X198423765Y-104408620D01*
X198423765Y-104408620D01*
G37*
G36*
X195883765Y-104408620D02*
G01*
X196073288Y-104487123D01*
X196243854Y-104601092D01*
X196388908Y-104746146D01*
X196502877Y-104916712D01*
X196581380Y-105106235D01*
X196621400Y-105307431D01*
X196621400Y-105512569D01*
X196581380Y-105713765D01*
X196502877Y-105903288D01*
X196388908Y-106073854D01*
X196243854Y-106218908D01*
X196073288Y-106332877D01*
X196073287Y-106332878D01*
X196073286Y-106332878D01*
X195883765Y-106411380D01*
X195682570Y-106451400D01*
X195477430Y-106451400D01*
X195276235Y-106411380D01*
X195086714Y-106332878D01*
X195086713Y-106332878D01*
X195086712Y-106332877D01*
X194916146Y-106218908D01*
X194771092Y-106073854D01*
X194657123Y-105903288D01*
X194578620Y-105713765D01*
X194538600Y-105512569D01*
X194538600Y-105307431D01*
X194578620Y-105106235D01*
X194657123Y-104916712D01*
X194771092Y-104746146D01*
X194916146Y-104601092D01*
X195086712Y-104487123D01*
X195276235Y-104408620D01*
X195477430Y-104368600D01*
X195682570Y-104368600D01*
X195883765Y-104408620D01*
X195883765Y-104408620D01*
G37*
G36*
X177910442Y-95625518D02*
G01*
X177976627Y-95632037D01*
X178146466Y-95683557D01*
X178302991Y-95767222D01*
X178338729Y-95796552D01*
X178440186Y-95879814D01*
X178523448Y-95981271D01*
X178552778Y-96017009D01*
X178636443Y-96173534D01*
X178687963Y-96343373D01*
X178705359Y-96520000D01*
X178687963Y-96696627D01*
X178636443Y-96866466D01*
X178552778Y-97022991D01*
X178523448Y-97058729D01*
X178440186Y-97160186D01*
X178338729Y-97243448D01*
X178302991Y-97272778D01*
X178146466Y-97356443D01*
X177976627Y-97407963D01*
X177910442Y-97414482D01*
X177844260Y-97421000D01*
X177755740Y-97421000D01*
X177689558Y-97414482D01*
X177623373Y-97407963D01*
X177453534Y-97356443D01*
X177297009Y-97272778D01*
X177261271Y-97243448D01*
X177159814Y-97160186D01*
X177076552Y-97058729D01*
X177047222Y-97022991D01*
X176963557Y-96866466D01*
X176912037Y-96696627D01*
X176894641Y-96520000D01*
X176912037Y-96343373D01*
X176963557Y-96173534D01*
X177047222Y-96017009D01*
X177076552Y-95981271D01*
X177159814Y-95879814D01*
X177261271Y-95796552D01*
X177297009Y-95767222D01*
X177453534Y-95683557D01*
X177623373Y-95632037D01*
X177689558Y-95625518D01*
X177755740Y-95619000D01*
X177844260Y-95619000D01*
X177910442Y-95625518D01*
X177910442Y-95625518D01*
G37*
G36*
X177910443Y-93085519D02*
G01*
X177976627Y-93092037D01*
X178146466Y-93143557D01*
X178302991Y-93227222D01*
X178338729Y-93256552D01*
X178440186Y-93339814D01*
X178523448Y-93441271D01*
X178552778Y-93477009D01*
X178636443Y-93633534D01*
X178687963Y-93803373D01*
X178705359Y-93980000D01*
X178687963Y-94156627D01*
X178636443Y-94326466D01*
X178552778Y-94482991D01*
X178523448Y-94518729D01*
X178440186Y-94620186D01*
X178338729Y-94703448D01*
X178302991Y-94732778D01*
X178146466Y-94816443D01*
X177976627Y-94867963D01*
X177910443Y-94874481D01*
X177844260Y-94881000D01*
X177755740Y-94881000D01*
X177689557Y-94874481D01*
X177623373Y-94867963D01*
X177453534Y-94816443D01*
X177297009Y-94732778D01*
X177261271Y-94703448D01*
X177159814Y-94620186D01*
X177076552Y-94518729D01*
X177047222Y-94482991D01*
X176963557Y-94326466D01*
X176912037Y-94156627D01*
X176894641Y-93980000D01*
X176912037Y-93803373D01*
X176963557Y-93633534D01*
X177047222Y-93477009D01*
X177076552Y-93441271D01*
X177159814Y-93339814D01*
X177261271Y-93256552D01*
X177297009Y-93227222D01*
X177453534Y-93143557D01*
X177623373Y-93092037D01*
X177689557Y-93085519D01*
X177755740Y-93079000D01*
X177844260Y-93079000D01*
X177910443Y-93085519D01*
X177910443Y-93085519D01*
G37*
G36*
X177910443Y-90545519D02*
G01*
X177976627Y-90552037D01*
X178146466Y-90603557D01*
X178302991Y-90687222D01*
X178338729Y-90716552D01*
X178440186Y-90799814D01*
X178523448Y-90901271D01*
X178552778Y-90937009D01*
X178636443Y-91093534D01*
X178687963Y-91263373D01*
X178705359Y-91440000D01*
X178687963Y-91616627D01*
X178636443Y-91786466D01*
X178552778Y-91942991D01*
X178523448Y-91978729D01*
X178440186Y-92080186D01*
X178338729Y-92163448D01*
X178302991Y-92192778D01*
X178146466Y-92276443D01*
X177976627Y-92327963D01*
X177910443Y-92334481D01*
X177844260Y-92341000D01*
X177755740Y-92341000D01*
X177689557Y-92334481D01*
X177623373Y-92327963D01*
X177453534Y-92276443D01*
X177297009Y-92192778D01*
X177261271Y-92163448D01*
X177159814Y-92080186D01*
X177076552Y-91978729D01*
X177047222Y-91942991D01*
X176963557Y-91786466D01*
X176912037Y-91616627D01*
X176894641Y-91440000D01*
X176912037Y-91263373D01*
X176963557Y-91093534D01*
X177047222Y-90937009D01*
X177076552Y-90901271D01*
X177159814Y-90799814D01*
X177261271Y-90716552D01*
X177297009Y-90687222D01*
X177453534Y-90603557D01*
X177623373Y-90552037D01*
X177689558Y-90545518D01*
X177755740Y-90539000D01*
X177844260Y-90539000D01*
X177910443Y-90545519D01*
X177910443Y-90545519D01*
G37*
G36*
X177910443Y-88005519D02*
G01*
X177976627Y-88012037D01*
X178146466Y-88063557D01*
X178302991Y-88147222D01*
X178338729Y-88176552D01*
X178440186Y-88259814D01*
X178523448Y-88361271D01*
X178552778Y-88397009D01*
X178636443Y-88553534D01*
X178687963Y-88723373D01*
X178705359Y-88900000D01*
X178687963Y-89076627D01*
X178636443Y-89246466D01*
X178552778Y-89402991D01*
X178523448Y-89438729D01*
X178440186Y-89540186D01*
X178338729Y-89623448D01*
X178302991Y-89652778D01*
X178146466Y-89736443D01*
X177976627Y-89787963D01*
X177910443Y-89794481D01*
X177844260Y-89801000D01*
X177755740Y-89801000D01*
X177689557Y-89794481D01*
X177623373Y-89787963D01*
X177453534Y-89736443D01*
X177297009Y-89652778D01*
X177261271Y-89623448D01*
X177159814Y-89540186D01*
X177076552Y-89438729D01*
X177047222Y-89402991D01*
X176963557Y-89246466D01*
X176912037Y-89076627D01*
X176894641Y-88900000D01*
X176912037Y-88723373D01*
X176963557Y-88553534D01*
X177047222Y-88397009D01*
X177076552Y-88361271D01*
X177159814Y-88259814D01*
X177261271Y-88176552D01*
X177297009Y-88147222D01*
X177453534Y-88063557D01*
X177623373Y-88012037D01*
X177689557Y-88005519D01*
X177755740Y-87999000D01*
X177844260Y-87999000D01*
X177910443Y-88005519D01*
X177910443Y-88005519D01*
G37*
G36*
X177910442Y-85465518D02*
G01*
X177976627Y-85472037D01*
X178146466Y-85523557D01*
X178302991Y-85607222D01*
X178338729Y-85636552D01*
X178440186Y-85719814D01*
X178523448Y-85821271D01*
X178552778Y-85857009D01*
X178636443Y-86013534D01*
X178687963Y-86183373D01*
X178705359Y-86360000D01*
X178687963Y-86536627D01*
X178636443Y-86706466D01*
X178552778Y-86862991D01*
X178523448Y-86898729D01*
X178440186Y-87000186D01*
X178338729Y-87083448D01*
X178302991Y-87112778D01*
X178146466Y-87196443D01*
X177976627Y-87247963D01*
X177910442Y-87254482D01*
X177844260Y-87261000D01*
X177755740Y-87261000D01*
X177689558Y-87254482D01*
X177623373Y-87247963D01*
X177453534Y-87196443D01*
X177297009Y-87112778D01*
X177261271Y-87083448D01*
X177159814Y-87000186D01*
X177076552Y-86898729D01*
X177047222Y-86862991D01*
X176963557Y-86706466D01*
X176912037Y-86536627D01*
X176894641Y-86360000D01*
X176912037Y-86183373D01*
X176963557Y-86013534D01*
X177047222Y-85857009D01*
X177076552Y-85821271D01*
X177159814Y-85719814D01*
X177261271Y-85636552D01*
X177297009Y-85607222D01*
X177453534Y-85523557D01*
X177623373Y-85472037D01*
X177689558Y-85465518D01*
X177755740Y-85459000D01*
X177844260Y-85459000D01*
X177910442Y-85465518D01*
X177910442Y-85465518D01*
G37*
G36*
X178701000Y-84721000D02*
G01*
X176899000Y-84721000D01*
X176899000Y-82919000D01*
X178701000Y-82919000D01*
X178701000Y-84721000D01*
X178701000Y-84721000D01*
G37*
G36*
X209872037Y-73701483D02*
G01*
X210182145Y-73829934D01*
X210182147Y-73829935D01*
X210461237Y-74016417D01*
X210698583Y-74253763D01*
X210885065Y-74532853D01*
X210885066Y-74532855D01*
X211013517Y-74842963D01*
X211079000Y-75172169D01*
X211079000Y-75507831D01*
X211013517Y-75837037D01*
X210885066Y-76147145D01*
X210885065Y-76147147D01*
X210698583Y-76426237D01*
X210461237Y-76663583D01*
X210182147Y-76850065D01*
X210182146Y-76850066D01*
X210182145Y-76850066D01*
X209872037Y-76978517D01*
X209542831Y-77044000D01*
X209207169Y-77044000D01*
X208877963Y-76978517D01*
X208567855Y-76850066D01*
X208567854Y-76850066D01*
X208567853Y-76850065D01*
X208288763Y-76663583D01*
X208051417Y-76426237D01*
X207864935Y-76147147D01*
X207864934Y-76147145D01*
X207736483Y-75837037D01*
X207671000Y-75507831D01*
X207671000Y-75172169D01*
X207736483Y-74842963D01*
X207864934Y-74532855D01*
X207864935Y-74532853D01*
X208051417Y-74253763D01*
X208288763Y-74016417D01*
X208567853Y-73829935D01*
X208567855Y-73829934D01*
X208877963Y-73701483D01*
X209207169Y-73636000D01*
X209542831Y-73636000D01*
X209872037Y-73701483D01*
X209872037Y-73701483D01*
G37*
G36*
X206593766Y-71208821D02*
G01*
X206730257Y-71265358D01*
X206853097Y-71347437D01*
X206957563Y-71451903D01*
X207039642Y-71574743D01*
X207096179Y-71711234D01*
X207125000Y-71856130D01*
X207125000Y-72003870D01*
X207096179Y-72148766D01*
X207039642Y-72285257D01*
X206957563Y-72408097D01*
X206853097Y-72512563D01*
X206730257Y-72594642D01*
X206593766Y-72651179D01*
X206448870Y-72680000D01*
X206301130Y-72680000D01*
X206156234Y-72651179D01*
X206019743Y-72594642D01*
X205896903Y-72512563D01*
X205792437Y-72408097D01*
X205710358Y-72285257D01*
X205653821Y-72148766D01*
X205625000Y-72003870D01*
X205625000Y-71856130D01*
X205653821Y-71711234D01*
X205710358Y-71574743D01*
X205792437Y-71451903D01*
X205896903Y-71347437D01*
X206019743Y-71265358D01*
X206156234Y-71208821D01*
X206301130Y-71180000D01*
X206448870Y-71180000D01*
X206593766Y-71208821D01*
X206593766Y-71208821D01*
G37*
G36*
X204103766Y-71208821D02*
G01*
X204240257Y-71265358D01*
X204363097Y-71347437D01*
X204467563Y-71451903D01*
X204549642Y-71574743D01*
X204606179Y-71711234D01*
X204635000Y-71856130D01*
X204635000Y-72003870D01*
X204606179Y-72148766D01*
X204549642Y-72285257D01*
X204467563Y-72408097D01*
X204363097Y-72512563D01*
X204240257Y-72594642D01*
X204103766Y-72651179D01*
X203958870Y-72680000D01*
X203811130Y-72680000D01*
X203666234Y-72651179D01*
X203529743Y-72594642D01*
X203406903Y-72512563D01*
X203302437Y-72408097D01*
X203220358Y-72285257D01*
X203163821Y-72148766D01*
X203135000Y-72003870D01*
X203135000Y-71856130D01*
X203163821Y-71711234D01*
X203220358Y-71574743D01*
X203302437Y-71451903D01*
X203406903Y-71347437D01*
X203529743Y-71265358D01*
X203666234Y-71208821D01*
X203811130Y-71180000D01*
X203958870Y-71180000D01*
X204103766Y-71208821D01*
X204103766Y-71208821D01*
G37*
G36*
X179668228Y-70301703D02*
G01*
X179823100Y-70365853D01*
X179962481Y-70458985D01*
X180081015Y-70577519D01*
X180174147Y-70716900D01*
X180238297Y-70871772D01*
X180271000Y-71036184D01*
X180271000Y-71203816D01*
X180238297Y-71368228D01*
X180174147Y-71523100D01*
X180081015Y-71662481D01*
X179962481Y-71781015D01*
X179823100Y-71874147D01*
X179668228Y-71938297D01*
X179503816Y-71971000D01*
X179336184Y-71971000D01*
X179171772Y-71938297D01*
X179016900Y-71874147D01*
X178877519Y-71781015D01*
X178758985Y-71662481D01*
X178665853Y-71523100D01*
X178601703Y-71368228D01*
X178569000Y-71203816D01*
X178569000Y-71036184D01*
X178601703Y-70871772D01*
X178665853Y-70716900D01*
X178758985Y-70577519D01*
X178877519Y-70458985D01*
X179016900Y-70365853D01*
X179171772Y-70301703D01*
X179336184Y-70269000D01*
X179503816Y-70269000D01*
X179668228Y-70301703D01*
X179668228Y-70301703D01*
G37*
G36*
X191351000Y-71971000D02*
G01*
X189649000Y-71971000D01*
X189649000Y-70269000D01*
X191351000Y-70269000D01*
X191351000Y-71971000D01*
X191351000Y-71971000D01*
G37*
G36*
X185208228Y-70301703D02*
G01*
X185363100Y-70365853D01*
X185502481Y-70458985D01*
X185621015Y-70577519D01*
X185714147Y-70716900D01*
X185778297Y-70871772D01*
X185811000Y-71036184D01*
X185811000Y-71203816D01*
X185778297Y-71368228D01*
X185714147Y-71523100D01*
X185621015Y-71662481D01*
X185502481Y-71781015D01*
X185363100Y-71874147D01*
X185208228Y-71938297D01*
X185043816Y-71971000D01*
X184876184Y-71971000D01*
X184711772Y-71938297D01*
X184556900Y-71874147D01*
X184417519Y-71781015D01*
X184298985Y-71662481D01*
X184205853Y-71523100D01*
X184141703Y-71368228D01*
X184109000Y-71203816D01*
X184109000Y-71036184D01*
X184141703Y-70871772D01*
X184205853Y-70716900D01*
X184298985Y-70577519D01*
X184417519Y-70458985D01*
X184556900Y-70365853D01*
X184711772Y-70301703D01*
X184876184Y-70269000D01*
X185043816Y-70269000D01*
X185208228Y-70301703D01*
X185208228Y-70301703D01*
G37*
G36*
X187978228Y-70301703D02*
G01*
X188133100Y-70365853D01*
X188272481Y-70458985D01*
X188391015Y-70577519D01*
X188484147Y-70716900D01*
X188548297Y-70871772D01*
X188581000Y-71036184D01*
X188581000Y-71203816D01*
X188548297Y-71368228D01*
X188484147Y-71523100D01*
X188391015Y-71662481D01*
X188272481Y-71781015D01*
X188133100Y-71874147D01*
X187978228Y-71938297D01*
X187813816Y-71971000D01*
X187646184Y-71971000D01*
X187481772Y-71938297D01*
X187326900Y-71874147D01*
X187187519Y-71781015D01*
X187068985Y-71662481D01*
X186975853Y-71523100D01*
X186911703Y-71368228D01*
X186879000Y-71203816D01*
X186879000Y-71036184D01*
X186911703Y-70871772D01*
X186975853Y-70716900D01*
X187068985Y-70577519D01*
X187187519Y-70458985D01*
X187326900Y-70365853D01*
X187481772Y-70301703D01*
X187646184Y-70269000D01*
X187813816Y-70269000D01*
X187978228Y-70301703D01*
X187978228Y-70301703D01*
G37*
G36*
X182438228Y-70301703D02*
G01*
X182593100Y-70365853D01*
X182732481Y-70458985D01*
X182851015Y-70577519D01*
X182944147Y-70716900D01*
X183008297Y-70871772D01*
X183041000Y-71036184D01*
X183041000Y-71203816D01*
X183008297Y-71368228D01*
X182944147Y-71523100D01*
X182851015Y-71662481D01*
X182732481Y-71781015D01*
X182593100Y-71874147D01*
X182438228Y-71938297D01*
X182273816Y-71971000D01*
X182106184Y-71971000D01*
X181941772Y-71938297D01*
X181786900Y-71874147D01*
X181647519Y-71781015D01*
X181528985Y-71662481D01*
X181435853Y-71523100D01*
X181371703Y-71368228D01*
X181339000Y-71203816D01*
X181339000Y-71036184D01*
X181371703Y-70871772D01*
X181435853Y-70716900D01*
X181528985Y-70577519D01*
X181647519Y-70458985D01*
X181786900Y-70365853D01*
X181941772Y-70301703D01*
X182106184Y-70269000D01*
X182273816Y-70269000D01*
X182438228Y-70301703D01*
X182438228Y-70301703D01*
G37*
G36*
X198058254Y-67727818D02*
G01*
X198383557Y-67862563D01*
X198431513Y-67882427D01*
X198767436Y-68106884D01*
X199053116Y-68392564D01*
X199143765Y-68528229D01*
X199277574Y-68728489D01*
X199432182Y-69101746D01*
X199511000Y-69497993D01*
X199511000Y-69902007D01*
X199432182Y-70298254D01*
X199316506Y-70577520D01*
X199277573Y-70671513D01*
X199053116Y-71007436D01*
X198767436Y-71293116D01*
X198431513Y-71517573D01*
X198431512Y-71517574D01*
X198431511Y-71517574D01*
X198058254Y-71672182D01*
X197662007Y-71751000D01*
X197257993Y-71751000D01*
X196861746Y-71672182D01*
X196488489Y-71517574D01*
X196488488Y-71517574D01*
X196488487Y-71517573D01*
X196152564Y-71293116D01*
X195866884Y-71007436D01*
X195642427Y-70671513D01*
X195603494Y-70577520D01*
X195487818Y-70298254D01*
X195409000Y-69902007D01*
X195409000Y-69497993D01*
X195487818Y-69101746D01*
X195642426Y-68728489D01*
X195776236Y-68528229D01*
X195866884Y-68392564D01*
X196152564Y-68106884D01*
X196488487Y-67882427D01*
X196536443Y-67862563D01*
X196861746Y-67727818D01*
X197257993Y-67649000D01*
X197662007Y-67649000D01*
X198058254Y-67727818D01*
X198058254Y-67727818D01*
G37*
G36*
X173058254Y-67727818D02*
G01*
X173383557Y-67862563D01*
X173431513Y-67882427D01*
X173767436Y-68106884D01*
X174053116Y-68392564D01*
X174143765Y-68528229D01*
X174277574Y-68728489D01*
X174432182Y-69101746D01*
X174511000Y-69497993D01*
X174511000Y-69902007D01*
X174432182Y-70298254D01*
X174316506Y-70577520D01*
X174277573Y-70671513D01*
X174053116Y-71007436D01*
X173767436Y-71293116D01*
X173431513Y-71517573D01*
X173431512Y-71517574D01*
X173431511Y-71517574D01*
X173058254Y-71672182D01*
X172662007Y-71751000D01*
X172257993Y-71751000D01*
X171861746Y-71672182D01*
X171488489Y-71517574D01*
X171488488Y-71517574D01*
X171488487Y-71517573D01*
X171152564Y-71293116D01*
X170866884Y-71007436D01*
X170642427Y-70671513D01*
X170603494Y-70577520D01*
X170487818Y-70298254D01*
X170409000Y-69902007D01*
X170409000Y-69497993D01*
X170487818Y-69101746D01*
X170642426Y-68728489D01*
X170776236Y-68528229D01*
X170866884Y-68392564D01*
X171152564Y-68106884D01*
X171488487Y-67882427D01*
X171536443Y-67862563D01*
X171861746Y-67727818D01*
X172257993Y-67649000D01*
X172662007Y-67649000D01*
X173058254Y-67727818D01*
X173058254Y-67727818D01*
G37*
G36*
X207125000Y-70630000D02*
G01*
X205625000Y-70630000D01*
X205625000Y-69130000D01*
X207125000Y-69130000D01*
X207125000Y-70630000D01*
X207125000Y-70630000D01*
G37*
G36*
X210682037Y-66941483D02*
G01*
X210971141Y-67061234D01*
X210992147Y-67069935D01*
X211271237Y-67256417D01*
X211508583Y-67493763D01*
X211671456Y-67737520D01*
X211695066Y-67772855D01*
X211823517Y-68082963D01*
X211889000Y-68412169D01*
X211889000Y-68747831D01*
X211823517Y-69077037D01*
X211695066Y-69387145D01*
X211695065Y-69387147D01*
X211508583Y-69666237D01*
X211271237Y-69903583D01*
X210992147Y-70090065D01*
X210992146Y-70090066D01*
X210992145Y-70090066D01*
X210682037Y-70218517D01*
X210352831Y-70284000D01*
X210017169Y-70284000D01*
X209687963Y-70218517D01*
X209377855Y-70090066D01*
X209377854Y-70090066D01*
X209377853Y-70090065D01*
X209098763Y-69903583D01*
X208861417Y-69666237D01*
X208674935Y-69387147D01*
X208674934Y-69387145D01*
X208546483Y-69077037D01*
X208481000Y-68747831D01*
X208481000Y-68412169D01*
X208546483Y-68082963D01*
X208674934Y-67772855D01*
X208698544Y-67737520D01*
X208861417Y-67493763D01*
X209098763Y-67256417D01*
X209377853Y-67069935D01*
X209398859Y-67061234D01*
X209687963Y-66941483D01*
X210017169Y-66876000D01*
X210352831Y-66876000D01*
X210682037Y-66941483D01*
X210682037Y-66941483D01*
G37*
G36*
X189363228Y-67461703D02*
G01*
X189518100Y-67525853D01*
X189657481Y-67618985D01*
X189776015Y-67737519D01*
X189869147Y-67876900D01*
X189933297Y-68031772D01*
X189966000Y-68196184D01*
X189966000Y-68363816D01*
X189933297Y-68528228D01*
X189869147Y-68683100D01*
X189776015Y-68822481D01*
X189657481Y-68941015D01*
X189518100Y-69034147D01*
X189363228Y-69098297D01*
X189198816Y-69131000D01*
X189031184Y-69131000D01*
X188866772Y-69098297D01*
X188711900Y-69034147D01*
X188572519Y-68941015D01*
X188453985Y-68822481D01*
X188360853Y-68683100D01*
X188296703Y-68528228D01*
X188264000Y-68363816D01*
X188264000Y-68196184D01*
X188296703Y-68031772D01*
X188360853Y-67876900D01*
X188453985Y-67737519D01*
X188572519Y-67618985D01*
X188711900Y-67525853D01*
X188866772Y-67461703D01*
X189031184Y-67429000D01*
X189198816Y-67429000D01*
X189363228Y-67461703D01*
X189363228Y-67461703D01*
G37*
G36*
X186593228Y-67461703D02*
G01*
X186748100Y-67525853D01*
X186887481Y-67618985D01*
X187006015Y-67737519D01*
X187099147Y-67876900D01*
X187163297Y-68031772D01*
X187196000Y-68196184D01*
X187196000Y-68363816D01*
X187163297Y-68528228D01*
X187099147Y-68683100D01*
X187006015Y-68822481D01*
X186887481Y-68941015D01*
X186748100Y-69034147D01*
X186593228Y-69098297D01*
X186428816Y-69131000D01*
X186261184Y-69131000D01*
X186096772Y-69098297D01*
X185941900Y-69034147D01*
X185802519Y-68941015D01*
X185683985Y-68822481D01*
X185590853Y-68683100D01*
X185526703Y-68528228D01*
X185494000Y-68363816D01*
X185494000Y-68196184D01*
X185526703Y-68031772D01*
X185590853Y-67876900D01*
X185683985Y-67737519D01*
X185802519Y-67618985D01*
X185941900Y-67525853D01*
X186096772Y-67461703D01*
X186261184Y-67429000D01*
X186428816Y-67429000D01*
X186593228Y-67461703D01*
X186593228Y-67461703D01*
G37*
G36*
X183823228Y-67461703D02*
G01*
X183978100Y-67525853D01*
X184117481Y-67618985D01*
X184236015Y-67737519D01*
X184329147Y-67876900D01*
X184393297Y-68031772D01*
X184426000Y-68196184D01*
X184426000Y-68363816D01*
X184393297Y-68528228D01*
X184329147Y-68683100D01*
X184236015Y-68822481D01*
X184117481Y-68941015D01*
X183978100Y-69034147D01*
X183823228Y-69098297D01*
X183658816Y-69131000D01*
X183491184Y-69131000D01*
X183326772Y-69098297D01*
X183171900Y-69034147D01*
X183032519Y-68941015D01*
X182913985Y-68822481D01*
X182820853Y-68683100D01*
X182756703Y-68528228D01*
X182724000Y-68363816D01*
X182724000Y-68196184D01*
X182756703Y-68031772D01*
X182820853Y-67876900D01*
X182913985Y-67737519D01*
X183032519Y-67618985D01*
X183171900Y-67525853D01*
X183326772Y-67461703D01*
X183491184Y-67429000D01*
X183658816Y-67429000D01*
X183823228Y-67461703D01*
X183823228Y-67461703D01*
G37*
G36*
X181053228Y-67461703D02*
G01*
X181208100Y-67525853D01*
X181347481Y-67618985D01*
X181466015Y-67737519D01*
X181559147Y-67876900D01*
X181623297Y-68031772D01*
X181656000Y-68196184D01*
X181656000Y-68363816D01*
X181623297Y-68528228D01*
X181559147Y-68683100D01*
X181466015Y-68822481D01*
X181347481Y-68941015D01*
X181208100Y-69034147D01*
X181053228Y-69098297D01*
X180888816Y-69131000D01*
X180721184Y-69131000D01*
X180556772Y-69098297D01*
X180401900Y-69034147D01*
X180262519Y-68941015D01*
X180143985Y-68822481D01*
X180050853Y-68683100D01*
X179986703Y-68528228D01*
X179954000Y-68363816D01*
X179954000Y-68196184D01*
X179986703Y-68031772D01*
X180050853Y-67876900D01*
X180143985Y-67737519D01*
X180262519Y-67618985D01*
X180401900Y-67525853D01*
X180556772Y-67461703D01*
X180721184Y-67429000D01*
X180888816Y-67429000D01*
X181053228Y-67461703D01*
X181053228Y-67461703D01*
G37*
G36*
X206593766Y-66558821D02*
G01*
X206730257Y-66615358D01*
X206853097Y-66697437D01*
X206957563Y-66801903D01*
X207039642Y-66924743D01*
X207096179Y-67061234D01*
X207125000Y-67206130D01*
X207125000Y-67353870D01*
X207096179Y-67498766D01*
X207039642Y-67635257D01*
X206957563Y-67758097D01*
X206853097Y-67862563D01*
X206730257Y-67944642D01*
X206593766Y-68001179D01*
X206448870Y-68030000D01*
X206301130Y-68030000D01*
X206156234Y-68001179D01*
X206019743Y-67944642D01*
X205896903Y-67862563D01*
X205792437Y-67758097D01*
X205710358Y-67635257D01*
X205653821Y-67498766D01*
X205625000Y-67353870D01*
X205625000Y-67206130D01*
X205653821Y-67061234D01*
X205710358Y-66924743D01*
X205792437Y-66801903D01*
X205896903Y-66697437D01*
X206019743Y-66615358D01*
X206156234Y-66558821D01*
X206301130Y-66530000D01*
X206448870Y-66530000D01*
X206593766Y-66558821D01*
X206593766Y-66558821D01*
G37*
G36*
X204103766Y-64508821D02*
G01*
X204240257Y-64565358D01*
X204363097Y-64647437D01*
X204467563Y-64751903D01*
X204549642Y-64874743D01*
X204606179Y-65011234D01*
X204635000Y-65156130D01*
X204635000Y-65303870D01*
X204606179Y-65448766D01*
X204549642Y-65585257D01*
X204467563Y-65708097D01*
X204363097Y-65812563D01*
X204240257Y-65894642D01*
X204103766Y-65951179D01*
X203958870Y-65980000D01*
X203811130Y-65980000D01*
X203666234Y-65951179D01*
X203529743Y-65894642D01*
X203406903Y-65812563D01*
X203302437Y-65708097D01*
X203220358Y-65585257D01*
X203163821Y-65448766D01*
X203135000Y-65303870D01*
X203135000Y-65156130D01*
X203163821Y-65011234D01*
X203220358Y-64874743D01*
X203302437Y-64751903D01*
X203406903Y-64647437D01*
X203529743Y-64565358D01*
X203666234Y-64508821D01*
X203811130Y-64480000D01*
X203958870Y-64480000D01*
X204103766Y-64508821D01*
X204103766Y-64508821D01*
G37*
G36*
X206593766Y-64508821D02*
G01*
X206730257Y-64565358D01*
X206853097Y-64647437D01*
X206957563Y-64751903D01*
X207039642Y-64874743D01*
X207096179Y-65011234D01*
X207125000Y-65156130D01*
X207125000Y-65303870D01*
X207096179Y-65448766D01*
X207039642Y-65585257D01*
X206957563Y-65708097D01*
X206853097Y-65812563D01*
X206730257Y-65894642D01*
X206593766Y-65951179D01*
X206448870Y-65980000D01*
X206301130Y-65980000D01*
X206156234Y-65951179D01*
X206019743Y-65894642D01*
X205896903Y-65812563D01*
X205792437Y-65708097D01*
X205710358Y-65585257D01*
X205653821Y-65448766D01*
X205625000Y-65303870D01*
X205625000Y-65156130D01*
X205653821Y-65011234D01*
X205710358Y-64874743D01*
X205792437Y-64751903D01*
X205896903Y-64647437D01*
X206019743Y-64565358D01*
X206156234Y-64508821D01*
X206301130Y-64480000D01*
X206448870Y-64480000D01*
X206593766Y-64508821D01*
X206593766Y-64508821D01*
G37*
G36*
X209872037Y-60181483D02*
G01*
X210182145Y-60309934D01*
X210182147Y-60309935D01*
X210461237Y-60496417D01*
X210698583Y-60733763D01*
X210885065Y-61012853D01*
X210885066Y-61012855D01*
X211013517Y-61322963D01*
X211079000Y-61652169D01*
X211079000Y-61987831D01*
X211013517Y-62317037D01*
X210885066Y-62627145D01*
X210885065Y-62627147D01*
X210698583Y-62906237D01*
X210461237Y-63143583D01*
X210182147Y-63330065D01*
X210182146Y-63330066D01*
X210182145Y-63330066D01*
X209872037Y-63458517D01*
X209542831Y-63524000D01*
X209207169Y-63524000D01*
X208877963Y-63458517D01*
X208567855Y-63330066D01*
X208567854Y-63330066D01*
X208567853Y-63330065D01*
X208288763Y-63143583D01*
X208051417Y-62906237D01*
X207864935Y-62627147D01*
X207864934Y-62627145D01*
X207736483Y-62317037D01*
X207671000Y-61987831D01*
X207671000Y-61652169D01*
X207736483Y-61322963D01*
X207864934Y-61012855D01*
X207864935Y-61012853D01*
X208051417Y-60733763D01*
X208288763Y-60496417D01*
X208567853Y-60309935D01*
X208567855Y-60309934D01*
X208877963Y-60181483D01*
X209207169Y-60116000D01*
X209542831Y-60116000D01*
X209872037Y-60181483D01*
X209872037Y-60181483D01*
G37*
M02*
